<svg id="Layer_1" data-name="Layer 1" xmlns="http://www.w3.org/2000/svg" xmlns:xlink="http://www.w3.org/1999/xlink" viewBox="0 0 851.5103 1152.0388"><defs><linearGradient id="linear-gradient" x1="467.9496" y1="-219.9292" x2="279.1687" y2="3052.2715" gradientUnits="userSpaceOnUse"><stop offset="0" stop-color="#22b2da"/><stop offset="0.0561" stop-color="#42bdde"/><stop offset="0.1363" stop-color="#69cae3"/><stop offset="0.2157" stop-color="#88d5e7"/><stop offset="0.293" stop-color="#9ddcea"/><stop offset="0.3673" stop-color="#abe0eb"/><stop offset="0.4351" stop-color="#afe2ec"/><stop offset="1" stop-color="#eef9fc"/></linearGradient><linearGradient id="linear-gradient-2" x1="252.2905" y1="-877.5443" x2="-23.4542" y2="3902.0308" gradientUnits="userSpaceOnUse"><stop offset="0" stop-color="#da4a22"/><stop offset="0.248" stop-color="#ec5b33"/><stop offset="1" stop-color="#ffbdaa"/></linearGradient></defs><path d="M0,576.3375v-10.63c.01-112.54.0205-176.62.0205-176.61V37.2574c171.21-98.53,359.85,25.62,445.15,60.38,145.2,59.08,280,82.86,406.34,84.36V985.2688c-183.61-25.91-368.92-34.13-546.15,13.8v.01c-4.2,1.14-8.4,2.3-12.59,3.51-.9805.28-1.96.56-2.95.84q-4.7548,1.38-9.51,2.82c-1.98.6-3.96,1.2-5.93,1.82-1.97.6-3.95,1.22-5.92,1.85-1.86.59-3.7295,1.19-5.58,1.79q-5.79,1.89-11.55,3.85c-1.3.44-2.6.89-3.9,1.34q-10.26,3.54-20.48,7.38c-1.62.6-3.25,1.22-4.86,1.84-1.62.61-3.24,1.24-4.86,1.87-1.52.58-3.03,1.18-4.55,1.78-1.71.68-3.43,1.37-5.14,2.06-1.61.65-3.23,1.3-4.84,1.97-1.61.65-3.23,1.32-4.84,2q-2.4156.99-4.83,2.03c-1.61.69-3.22,1.37-4.82,2.07-1.61.69-3.21,1.39-4.82,2.1-1.61.7-3.21,1.42-4.82,2.14-1.6.71-3.21,1.43-4.81,2.17q-2.4,1.08-4.8,2.2-2.3994,1.095-4.8,2.24-2.46,1.1552-4.92,2.33c-1.43.68-2.87,1.37-4.3,2.08q-.2856.12-.57.27-2.19,1.05-4.36,2.13c-.16.08-.32.16-.47.24q-2.2645,1.11-4.5195,2.25c-1.59.79-3.18,1.6-4.77,2.41-1.59.79-3.17,1.61-4.76,2.44-1.59.81-3.17,1.64-4.76,2.48q-4.7556,2.49-9.5,5.07-2.37,1.275-4.74,2.59-2.37,1.29-4.74,2.63c-1.58.87-3.15,1.76-4.73,2.66-1.57.89-3.15,1.79-4.72,2.7-1.57.9-3.15,1.81-4.72,2.74q-4.71,2.73-9.41,5.58-2.3555,1.395-4.7,2.85-2.3547,1.41-4.69,2.88-7.035,4.335-14.04,8.88-4.6647,3-9.32,6.11-9.3156,6.1652-18.57,12.69c-1.54,1.07-3.09,2.16-4.63,3.27-1.54,1.09-3.07,2.19-4.61,3.31-1.54,1.1-3.08,2.21-4.62,3.35q-11.52,8.4-22.95,17.33l-.0195.02c-.01-65.5747-.0195-47.3152-.02-11.2715v11.2715" fill="url(#linear-gradient)"/><path d="M305.36,998.345v.01c-4.2,1.14-8.4,2.3-12.59,3.51-.9805.27-1.97.56-2.95.84q-4.7548,1.38-9.51,2.82c-1.98.59-3.95,1.2-5.93,1.82-1.97.6-3.95,1.22-5.92,1.85q-2.79.885-5.58,1.79-5.79,1.89-11.55,3.85c-1.3.44-2.6.89-3.9,1.34q-10.26,3.54-20.48,7.38c-1.62.6-3.24,1.22-4.86,1.84-1.62.61-3.24,1.24-4.86,1.87q-2.2654.8852-4.55,1.78c-1.71.68-3.43,1.37-5.14,2.06-1.62.65-3.23,1.3-4.84,1.97q-2.43.99-4.84,2-2.4156,1.005-4.83,2.03c-1.61.69-3.22,1.37-4.82,2.07q-2.4149,1.05-4.82,2.1c-1.61.71-3.21,1.42-4.82,2.14-1.6.72-3.21,1.44-4.81,2.17s-3.2,1.46-4.8,2.2-3.2,1.49-4.8,2.24q-2.46,1.1552-4.92,2.33-2.16,1.035-4.3,2.08-.2856.12-.57.27c-1.45.71-2.91,1.42-4.36,2.13-.16.08-.32.16-.47.24-1.51.74-3.01,1.49-4.5195,2.25-1.59.79-3.18,1.6-4.77,2.41s-3.17,1.62-4.76,2.44-3.18,1.65-4.76,2.48q-4.7556,2.49-9.5,5.07-2.37,1.29-4.74,2.59-2.37,1.305-4.74,2.63-2.3547,1.32-4.73,2.66c-1.57.89-3.15,1.79-4.72,2.7s-3.14,1.82-4.72,2.74q-4.71,2.745-9.41,5.58c-1.57.94-3.13,1.89-4.7,2.85-1.56.95-3.13,1.91-4.69,2.88q-7.035,4.35-14.04,8.88-4.6647,3.0155-9.32,6.11-9.3156,6.1952-18.57,12.69-2.31,1.635-4.63,3.27-2.31,1.65-4.61,3.31-2.31,1.6652-4.62,3.35-11.52,8.43-22.95,17.35v-.02C.0205,993.1451.01,844.565,0,710.345v-10.63H.0205C166.43,699.715,301.74,832.795,305.36,998.345Z" fill="url(#linear-gradient-2)"/></svg>