<svg width="0" height="0">
  <clipPath id="myclippath" clipPathUnits="objectBoundingBox">
    <polygon points="372.5,722.4000244140625 347.0321960449219,707.6348876953125 322.4065856933594,691.4880981445312 298.2879943847656,674.5921630859375 274.6021423339844,657.0943603515625 251.32945251464844,639.050537109375 228.47366333007812,620.4815673828125 206.05300903320312,601.3895263671875 184.09703063964844,581.7649536132812 162.6377716064453,561.5982666015625 141.74755859375,540.84326171875 121.51777648925781,519.4445190429688 102.05461883544922,497.3467102050781 83.49943542480469,474.4819641113281 66.04176330566406,450.7696838378906 49.93928146362305,426.1187438964844 35.547176361083984,400.4343566894531 23.359539031982422,373.6376647949219 14.059260368347168,345.71441650390625 8.549838066101074,316.8133239746094 7.66549825668335,287.4053039550781 9.855238914489746,258.04766845703125 14.805757522583008,229.03024291992188 22.76241111755371,200.69190979003906 33.89457321166992,173.4468536376953 48.241111755371094,147.75047302246094 65.62940979003906,124.00556182861328 85.73350524902344,102.50958251953125 108.14393615722656,83.42774200439453 132.43601989746094,66.80297088623047 158.21621704101562,52.589332580566406 185.11404418945312,40.619625091552734 212.84396362304688,30.72441291809082 241.18748474121094,22.749956130981445 269.97418212890625,16.5626163482666 299.0713195800781,12.048659324645996 328.3702087402344,9.11303424835205 357.7812805175781,7.676790714263916 387.2273864746094,7.676900386810303 416.6375427246094,9.113140106201172 445.9365234375,12.047780990600586 475.0334167480469,16.55937385559082 503.82177734375,22.74339485168457 532.1658935546875,30.71402359008789 559.8967895507812,40.606441497802734 586.7948608398438,52.57716369628906 612.5701904296875,66.79865264892578 636.8579711914062,83.4293441772461 659.2684936523438,102.51152801513672 679.3718872070312,124.00724792480469 696.7598266601562,147.7520751953125 711.1061401367188,173.44830322265625 722.2379760742188,200.693115234375 730.1945190429688,229.03126525878906 735.1448364257812,258.0479736328125 737.33447265625,287.4045715332031 736.4503173828125,316.8125305175781 730.9411010742188,345.712890625 721.6406860351562,373.6372375488281 709.4533081054688,400.4334411621094 695.0615234375,426.11737060546875 678.9592895507812,450.7680969238281 661.5018920898438,474.4801940917969 642.9464111328125,497.345458984375 623.4827880859375,519.4439697265625 603.2530517578125,540.8427124023438 582.3627319335938,561.5977172851562 560.9039306640625,581.7639770507812 538.9476928710938,601.388916015625 516.5269165039062,620.4810791015625 493.6719665527344,639.0494995117188 470.398193359375,657.0940551757812 446.712646484375,674.5917358398438 422.5947570800781,691.4871215820312 397.9683837890625,707.6344604492188 372.5003356933594,722.3998413085938"/>
  </clipPath>
</svg>