<svg xmlns="http://www.w3.org/2000/svg" xmlns:xlink="http://www.w3.org/1999/xlink" 
viewBox="0 0 1920.04 1584.74"
height="100%"
width="100%">
    <defs>
        <linearGradient id="linear-gradient" x1="1027.55" y1="-399.39" x2="751.81" y2="4380.18" gradientUnits="userSpaceOnUse"><stop offset="0" stop-color="#22b2da"/><stop offset="0.06" stop-color="#42bdde"/><stop offset="0.14" stop-color="#69cae3"/><stop offset="0.22" stop-color="#88d5e7"/><stop offset="0.29" stop-color="#9ddcea"/><stop offset="0.37" stop-color="#abe0eb"/><stop offset="0.44" stop-color="#afe2ec"/><stop offset="1" stop-color="#eef9fc"/>
        </linearGradient>
        <linearGradient id="linear-gradient-2" x1="252.31" y1="-444.12" x2="-23.43" y2="4335.46" gradientUnits="userSpaceOnUse"><stop offset="0" stop-color="#da4a22"/><stop offset="0.25" stop-color="#ec5b33"/><stop offset="1" stop-color="#ffbdaa"/>
        </linearGradient>
    </defs>
    <g id="Layer_2" data-name="Layer 2">
        <g id="Layer_1-2" data-name="Layer 1">
            <!-- <path d="M1920,0V1440.69c-218.85,137.42-508.81,78.87-818.36,20.31-262.43-49.65-537.95-99.1-796.32-29.22-105.3,28.47-207.76,76.77-305.32,153,0-162.34,0-314.61,0-451.6,0-407.89,0-680.4,0-680.38V100.92C171.25,2.39,359.89,126.54,445.19,161.3,1082.42,420.59,1519.34,0,1920,0Z" style="fill:url(#linear-gradient)"/> -->
            <!-- <path d="M305.38,1431.78c-105.3,28.47-207.76,76.77-305.32,153,0-162.34,0-314.61,0-451.6H0C166.45,1133.14,301.77,1266.23,305.38,1431.78Z" style="fill:url(#linear-gradient-2)"/> -->
        </g>
    </g>
</svg>