<?xml-stylesheet type="text/css" href="../../../../css/2-modules/modules.css"?>
<svg class="about-s1 svg-image" id="svg-images" 
xmlns="http://www.w3.org/2000/svg"
xmlns:xlink="http://www.w3.org/1999/xlink"
viewBox="0 0 673.91 464.78"
height="100%"
width="100%">
  <defs>
    <clipPath id="clip-path">
      <path d="M653.7 378.35c-35.7 52.37-148.78 78.93-336.08 78.93-230.3 0-294.18-35.9-307.2-66-15.22-35.16 32.54-86.04 64.15-119.7 11.2-11.93 20.87-22.24 26.73-30.6 26.34-41.26-2.1-84.21-27.2-122.11-17.17-25.95-34.94-52.8-26.61-68.3 10.56-19.65 66-43.07 270.13-43.07 197.94 0 312.54 22.1 340.57 65.69 15.43 23.97 1.84 53.8-11.3 82.66-7.86 17.25-15.28 33.55-15.49 48.18-.2 14.01 6.5 31.08 14.26 50.86 15 38.24 33.7 85.83 8.04 123.46z"/>
    </clipPath>
  </defs>
  <path class="border" d="M653.7 378.35c-35.7 52.37-148.78 78.93-336.08 78.93-230.3 0-294.18-35.9-307.2-66-15.22-35.16 32.54-86.04 64.15-119.7 11.2-11.93 20.87-22.24 26.73-30.6 26.34-41.26-2.1-84.21-27.2-122.11-17.17-25.95-34.94-52.8-26.61-68.3 10.56-19.65 66-43.07 270.13-43.07 197.94 0 312.54 22.1 340.57 65.69 15.43 23.97 1.84 53.8-11.3 82.66-7.86 17.25-15.28 33.55-15.49 48.18-.2 14.01 6.5 31.08 14.26 50.86 15 38.24 33.7 85.83 8.04 123.46z" stroke="#2bdd51" stroke-miterlimit="10" stroke-width="15"/>
  <image href="../../jpeg/compressed/about_2.jpg" x="-50" y="0" width="120%" clip-path="url(#clip-path)"/>
</svg>
