<svg xmlns="http://www.w3.org/2000/svg" viewBox="0 0 300 211.94">
  <defs/>
  <g data-name="Layer 2">
    <g data-name="Layer 1">
      <path fill="#22da4a" d="M141.57 5C121 5 103 5.54 87.86 6.59a287.14 287.14 0 00-36.06 4.46C43 12.84 36 15.06 31 17.65c-4.1 2.13-6.89 4.53-8.3 7.12a10.38 10.38 0 00-1.18 5.6 23.51 23.51 0 001.88 7.43c2.32 5.81 6.48 12.2 10.88 18.94 10.65 16.32 22.72 34.82 12 51.89v.09l-.06.09c-2.49 3.6-6.66 8.11-11.5 13.34-7.45 8-16.73 18.08-22.89 28.19a47.48 47.48 0 00-6.26 14.36 19.52 19.52 0 00.9 12.3 20.3 20.3 0 003.55 5.4 32.8 32.8 0 006.4 5.4c5.77 3.81 13.76 7.11 23.74 9.8 11.05 3 24.78 5.29 40.81 6.84 17.26 1.67 37.66 2.52 60.6 2.52a597.43 597.43 0 0062-2.87c16.65-1.77 31.24-4.39 43.35-7.79 11-3.1 20.25-6.91 27.46-11.34a55.85 55.85 0 008.69-6.49 39.78 39.78 0 005.94-6.79 33.33 33.33 0 005.43-13.31 45.59 45.59 0 00.06-14.31c-1.38-10-5.24-19.95-8.64-28.74-3.31-8.57-6.18-16-6.09-21.83.08-6.12 3.1-12.84 6.59-20.62 3-6.67 6.09-13.56 7.41-20.36a28.64 28.64 0 00.44-9.38 20.23 20.23 0 00-3.21-8.57 26.63 26.63 0 00-4.78-5.45 44.06 44.06 0 00-7.77-5.38c-6.74-3.76-15.74-7-26.75-9.62-12.16-2.91-27.14-5.11-44.51-6.66C188.45 5.83 166.37 5 141.57 5m0-5c224.92 0 143.55 66.31 143.16 93.54s84.79 118.4-143.16 118.4S25.31 130.2 42 106C69.26 62.68-83.34 0 141.57 0z" data-name="photo frame-2"/>
    </g>
  </g>
</svg>
