<svg xmlns="http://www.w3.org/2000/svg" viewBox="0 0 300 233.28">
  <defs/>
  <g data-name="Layer 2">
    <g data-name="Layer 1">
      <path fill="#22da4a" d="M125.76 5a133.69 133.69 0 00-24.65 2.28 128.73 128.73 0 00-22.86 6.54A123.13 123.13 0 0057.7 24.16a119.1 119.1 0 00-17.81 13.66 113.62 113.62 0 00-14.61 16.53 109.05 109.05 0 00-11 18.94A105.06 105.06 0 005 116.64 104 104 0 0014.44 160a108.79 108.79 0 0011.09 18.94 115.08 115.08 0 0014.72 16.54 119.61 119.61 0 0017.88 13.67 123.9 123.9 0 0020.55 10.34A126.56 126.56 0 00101.4 226a131.27 131.27 0 0024.38 2.28 269.85 269.85 0 0072.41-10.95 222.28 222.28 0 0029.17-11 190.24 190.24 0 0024.2-13.33c13.63-8.93 24.94-19.15 32.71-29.56a64.8 64.8 0 008.12-13.95 31.49 31.49 0 002.61-11.65 16.07 16.07 0 00-1.2-6.41 12.86 12.86 0 00-3.58-4.76 19.09 19.09 0 00-6.65-3.46 38.42 38.42 0 00-10.49-1.57c-9.31-.24-17.08-4.48-23.77-12.94-5.6-7.1-10.14-16.7-14.95-26.86-7.79-16.49-16.63-35.18-32.66-50a90.67 90.67 0 00-13.34-10.21 96 96 0 00-16.65-8.27 118.44 118.44 0 00-20.66-5.76A163.29 163.29 0 00125.76 5m.07-5C248.6 3.5 228 115.46 273.21 116.64c67.32 1.76 4 113.7-147.38 116.64C56.34 233.28 0 181.06 0 116.64S55.34 0 125.83 0z" data-name="photo frame"/>
    </g>
  </g>
</svg>
