<svg id="Layer_1" data-name="Layer 1" xmlns="http://www.w3.org/2000/svg" xmlns:xlink="http://www.w3.org/1999/xlink" viewBox="0 0 520.1878 950.958"><defs><linearGradient id="linear-gradient" x1="294.5588" y1="-192.4112" x2="137.9758" y2="2521.6942" gradientUnits="userSpaceOnUse"><stop offset="0" stop-color="#22b2da"/><stop offset="0.0561" stop-color="#42bdde"/><stop offset="0.1363" stop-color="#69cae3"/><stop offset="0.2157" stop-color="#88d5e7"/><stop offset="0.293" stop-color="#9ddcea"/><stop offset="0.3673" stop-color="#abe0eb"/><stop offset="0.4351" stop-color="#afe2ec"/><stop offset="1" stop-color="#eef9fc"/></linearGradient><linearGradient id="linear-gradient-2" x1="153.8615" y1="784.312" x2="-302.7091" y2="364.2474" gradientUnits="userSpaceOnUse"><stop offset="0" stop-color="#da4a22"/><stop offset="0.248" stop-color="#ec5b33"/><stop offset="1" stop-color="#ffbdaa"/></linearGradient></defs><path d="M520.1878,64.9591v707.22c-30.9787-.7912-117.9993,9.69-141.0594,15.92-.02.01-.05.01-.07.02C273.7585,816.589,97.57,874.7681.01,950.958L.03,37.2589C133.5-39.5511,422.7479,18.9591,520.1878,64.9591Z" fill="url(#linear-gradient)"/><path d="M379.1084,786.6391c0,.48,0,.96-.01,1.44-.02.01-.05.01-.07.02C273.7285,816.569,97.56,874.079,0,950.2689v-469.05C168.67,481.2289,379.1084,617.9689,379.1084,786.6391Z" fill="url(#linear-gradient-2)"/></svg>