<svg xmlns="http://www.w3.org/2000/svg" data-name="Layer 1" viewBox="0 0 520.1878 950.958">
    <defs/><defs>
        <linearGradient id="a" x1="294.5588" x2="137.9758" y1="-192.4112" y2="2521.6942" gradientUnits="userSpaceOnUse"><stop offset="0" stop-color="#22b2da"/><stop offset=".0561" stop-color="#42bdde"/><stop offset=".1363" stop-color="#69cae3"/><stop offset=".2157" stop-color="#88d5e7"/><stop offset=".293" stop-color="#9ddcea"/><stop offset=".3673" stop-color="#abe0eb"/><stop offset=".4351" stop-color="#afe2ec"/><stop offset="1" stop-color="#eef9fc"/></linearGradient>
        <linearGradient id="b" x1="153.8615" x2="-302.7091" y1="784.312" y2="364.2474" gradientUnits="userSpaceOnUse"><stop offset="0" stop-color="#da4a22"/><stop offset=".248" stop-color="#ec5b33"/><stop offset="1" stop-color="#ffbdaa"/></linearGradient>
    </defs>
        <path fill="url(#a)" d="M520.1878 64.9591v707.22c-30.9787-.7912-117.9993 9.69-141.0594 15.92-.02.01-.05.01-.07.02C273.7585 816.589 97.57 874.7681.01 950.958L.03 37.2589c133.47-76.81 422.7179-18.2998 520.1578 27.7002z"/>
        <!-- <path fill="url(#b)" d="M379.1084 786.6391c0 .48 0 .96-.01 1.44-.02.01-.05.01-.07.02C273.7285 816.569 97.56 874.079 0 950.2689v-469.05c168.67.01 379.1084 136.75 379.1084 305.4202z"/> -->
</svg>