<svg id="Layer_1" data-name="Layer 1" xmlns="http://www.w3.org/2000/svg" xmlns:xlink="http://www.w3.org/1999/xlink" viewBox="0 0 1920 2160"><defs><linearGradient id="linear-gradient" x1="1044.6104" y1="2546.577" x2="894.7142" y2="-51.6178" gradientTransform="matrix(1, 0, 0, -1, 0, 2160)" gradientUnits="userSpaceOnUse"><stop offset="0" stop-color="#22b2da"/><stop offset="0.056" stop-color="#42bdde"/><stop offset="0.136" stop-color="#69cae3"/><stop offset="0.216" stop-color="#88d5e7"/><stop offset="0.293" stop-color="#9ddcea"/><stop offset="0.367" stop-color="#abe0eb"/><stop offset="0.435" stop-color="#afe2ec"/><stop offset="1" stop-color="#eef9fc"/></linearGradient><linearGradient id="linear-gradient-2" x1="2558.7336" y1="-2185.4552" x2="2217.6014" y2="-250.8001" gradientTransform="matrix(-1, 0, 0, 1, 3340, 2551.4399)" gradientUnits="userSpaceOnUse"><stop offset="0" stop-color="#da4a22"/><stop offset="0.52" stop-color="#ff7650"/><stop offset="1" stop-color="#ffbdaa"/></linearGradient><linearGradient id="linear-gradient-3" x1="126.3217" y1="131.7222" x2="634.7973" y2="444.7043" gradientUnits="userSpaceOnUse"><stop offset="0" stop-color="#22b2da"/><stop offset="0.0508" stop-color="#34b8dc"/><stop offset="0.3988" stop-color="#afe2ec"/><stop offset="1" stop-color="#eef9fc"/></linearGradient><linearGradient id="linear-gradient-4" x1="178.226" y1="222.8584" x2="370.5403" y2="222.8584" xlink:href="#linear-gradient-3"/><linearGradient id="linear-gradient-5" x1="126.3217" y1="662.6612" x2="634.7973" y2="975.6433" xlink:href="#linear-gradient-3"/><linearGradient id="linear-gradient-6" x1="178.226" y1="753.7975" x2="370.5403" y2="753.7975" xlink:href="#linear-gradient-3"/><linearGradient id="linear-gradient-7" x1="1163.9388" y1="205.2042" x2="1672.4143" y2="518.1863" xlink:href="#linear-gradient-3"/><linearGradient id="linear-gradient-8" x1="1215.843" y1="296.3404" x2="1408.1573" y2="296.3404" xlink:href="#linear-gradient-3"/><linearGradient id="linear-gradient-9" x1="681.491" y1="565.821" x2="995.3635" y2="759.019" xlink:href="#linear-gradient-3"/><linearGradient id="linear-gradient-10" x1="713.5305" y1="622.0777" x2="832.2426" y2="622.0777" xlink:href="#linear-gradient-3"/><linearGradient id="linear-gradient-11" x1="1667.9735" y1="144.0837" x2="1981.846" y2="337.2817" xlink:href="#linear-gradient-3"/><linearGradient id="linear-gradient-12" x1="1700.013" y1="200.3404" x2="1818.725" y2="200.3404" xlink:href="#linear-gradient-3"/><linearGradient id="linear-gradient-13" x1="717.2856" y1="166.6017" x2="1031.1581" y2="359.7997" xlink:href="#linear-gradient-3"/><linearGradient id="linear-gradient-14" x1="749.3251" y1="222.8584" x2="868.0371" y2="222.8584" xlink:href="#linear-gradient-3"/><linearGradient id="linear-gradient-15" x1="436.2642" y1="1006.4899" x2="750.1366" y2="1199.6879" xlink:href="#linear-gradient-3"/><linearGradient id="linear-gradient-16" x1="468.3037" y1="1062.7466" x2="587.0157" y2="1062.7466" xlink:href="#linear-gradient-3"/><linearGradient id="linear-gradient-17" x1="1598.0023" y1="1141.2951" x2="1783.4724" y2="1271.4808" gradientUnits="userSpaceOnUse"><stop offset="0" stop-color="#da4a22"/><stop offset="0.3272" stop-color="#ec5b33"/><stop offset="1" stop-color="#ffbdaa"/></linearGradient><linearGradient id="linear-gradient-18" x1="844.3428" y1="1884.7844" x2="1029.8129" y2="2014.9702" xlink:href="#linear-gradient-17"/><linearGradient id="linear-gradient-19" x1="1067.2234" y1="1200.5541" x2="1252.6935" y2="1330.7398" xlink:href="#linear-gradient-17"/><linearGradient id="linear-gradient-20" x1="76.2754" y1="1869.6078" x2="261.7454" y2="1999.7935" xlink:href="#linear-gradient-17"/><linearGradient id="linear-gradient-21" x1="35.4858" y1="1385.9043" x2="335.9487" y2="1596.8061" xlink:href="#linear-gradient-17"/><linearGradient id="linear-gradient-22" x1="1268.1168" y1="1528.883" x2="1568.5796" y2="1739.7848" xlink:href="#linear-gradient-17"/><linearGradient id="linear-gradient-23" x1="517.5034" y1="1528.883" x2="817.9663" y2="1739.7848" xlink:href="#linear-gradient-17"/><linearGradient id="linear-gradient-24" x1="1386.6098" y1="637.6887" x2="1687.0727" y2="848.5905" xlink:href="#linear-gradient-17"/><linearGradient id="linear-gradient-25" x1="1505.1525" y1="1824.5984" x2="1805.6154" y2="2035.5002" xlink:href="#linear-gradient-17"/></defs><path d="M0,0H1920V2160H0Z" fill="url(#linear-gradient)"/><path d="M0,1006.755C960,2160,960-19.628,1920,599.265V2160H0Z" fill="url(#linear-gradient-2)"/><g id="globes_blue"><path id="globe_blue" d="M274.3832,126.8584a96,96,0,1,1-96,96A96,96,0,0,1,274.3832,126.8584Z" stroke-miterlimit="10" stroke-width="0.3143" opacity="0.4" fill="url(#linear-gradient-3)" stroke="url(#linear-gradient-4)"/><path id="globe_blue-2" data-name="globe_blue" d="M274.3832,657.7975a96,96,0,1,1-96,96A96,96,0,0,1,274.3832,657.7975Z" stroke-miterlimit="10" stroke-width="0.3143" opacity="0.4" fill="url(#linear-gradient-5)" stroke="url(#linear-gradient-6)"/><path id="globe_blue-3" data-name="globe_blue" d="M1312,200.34a96,96,0,1,1-96,96A96,96,0,0,1,1312,200.34Z" stroke-miterlimit="10" stroke-width="0.3143" opacity="0.4" fill="url(#linear-gradient-7)" stroke="url(#linear-gradient-8)"/><path id="globe_blue-4" data-name="globe_blue" d="M772.8866,562.8187a59.259,59.259,0,1,1-59.2591,59.2591A59.2592,59.2592,0,0,1,772.8866,562.8187Z" stroke-miterlimit="10" stroke-width="0.194" opacity="0.4" fill="url(#linear-gradient-9)" stroke="url(#linear-gradient-10)"/><path id="globe_blue-5" data-name="globe_blue" d="M1759.3691,141.0814a59.259,59.259,0,1,1-59.2591,59.2591A59.2592,59.2592,0,0,1,1759.3691,141.0814Z" stroke-miterlimit="10" stroke-width="0.194" opacity="0.4" fill="url(#linear-gradient-11)" stroke="url(#linear-gradient-12)"/><path id="globe_blue-6" data-name="globe_blue" d="M808.6812,163.5994a59.259,59.259,0,1,1-59.2591,59.2591A59.2592,59.2592,0,0,1,808.6812,163.5994Z" stroke-miterlimit="10" stroke-width="0.194" opacity="0.4" fill="url(#linear-gradient-13)" stroke="url(#linear-gradient-14)"/><path id="globe_blue-7" data-name="globe_blue" d="M527.66,1003.4876a59.259,59.259,0,1,1-59.2591,59.2591A59.2592,59.2592,0,0,1,527.66,1003.4876Z" stroke-miterlimit="10" stroke-width="0.194" opacity="0.4" fill="url(#linear-gradient-15)" stroke="url(#linear-gradient-16)"/></g><g id="globes_red"><path id="globe_red" d="M1700.11,1153.7079a59.259,59.259,0,1,1-59.2591,59.2591A59.2592,59.2592,0,0,1,1700.11,1153.7079Z" opacity="0.4" fill="url(#linear-gradient-17)"/><path id="globe_red-2" data-name="globe_red" d="M946.4507,1897.1972a59.259,59.259,0,1,1-59.2591,59.2591A59.2592,59.2592,0,0,1,946.4507,1897.1972Z" opacity="0.4" fill="url(#linear-gradient-18)"/><path id="globe_red-3" data-name="globe_red" d="M1169.3312,1212.9669a59.259,59.259,0,1,1-59.2591,59.2591A59.2592,59.2592,0,0,1,1169.3312,1212.9669Z" opacity="0.4" fill="url(#linear-gradient-19)"/><path id="globe_red-4" data-name="globe_red" d="M178.3832,1882.0206a59.259,59.259,0,1,1-59.2591,59.2591A59.2592,59.2592,0,0,1,178.3832,1882.0206Z" opacity="0.4" fill="url(#linear-gradient-20)"/><path id="globe_red-5" data-name="globe_red" d="M200.9012,1406.0131a96,96,0,1,1-96,96A96,96,0,0,1,200.9012,1406.0131Z" opacity="0.4" fill="url(#linear-gradient-21)"/><path id="globe_red-6" data-name="globe_red" d="M1433.5322,1548.9918a96,96,0,1,1-96,96A96,96,0,0,1,1433.5322,1548.9918Z" opacity="0.4" fill="url(#linear-gradient-22)"/><path id="globe_red-7" data-name="globe_red" d="M682.9188,1548.9918a96,96,0,1,1-96,96A96,96,0,0,1,682.9188,1548.9918Z" opacity="0.4" fill="url(#linear-gradient-23)"/><path id="globe_red-8" data-name="globe_red" d="M1552.0252,657.7975a96,96,0,1,1-96,96A96,96,0,0,1,1552.0252,657.7975Z" opacity="0.4" fill="url(#linear-gradient-24)"/><path id="globe_red-9" data-name="globe_red" d="M1670.568,1844.7072a96,96,0,1,1-96,96A96,96,0,0,1,1670.568,1844.7072Z" opacity="0.4" fill="url(#linear-gradient-25)"/></g></svg>