<?xml version="1.0" encoding="utf-8"?>
<!-- Generator: Adobe Illustrator 24.1.3, SVG Export Plug-In . SVG Version: 6.00 Build 0)  -->
<svg version="1.1" id="Layer_1" xmlns="http://www.w3.org/2000/svg" xmlns:xlink="http://www.w3.org/1999/xlink" x="0px" y="0px"
	 viewBox="0 0 576 2160" style="enable-background:new 0 0 576 2160;" xml:space="preserve">
<style type="text/css">
	.st0{fill:url(#SVGID_1_);}
	.st1{fill:url(#SVGID_2_);}
	.st2{opacity:0.4;fill:url(#globe_x5F_blue_4_);stroke:url(#globe_x5F_blue_7_);stroke-width:0.3143;stroke-miterlimit:10;}
	.st3{opacity:0.4;fill:url(#globe_x5F_blue_8_);stroke:url(#globe_x5F_blue_9_);stroke-width:0.3143;stroke-miterlimit:10;}
	.st4{opacity:0.4;fill:url(#globe_x5F_blue_10_);stroke:url(#globe_x5F_blue_11_);stroke-width:0.194;stroke-miterlimit:10;}
	.st5{opacity:0.4;fill:url(#globe_x5F_blue_12_);stroke:url(#globe_x5F_blue_13_);stroke-width:0.194;stroke-miterlimit:10;}
	.st6{opacity:0.4;fill:url(#globe_x5F_blue_14_);stroke:url(#globe_x5F_blue_15_);stroke-width:0.194;stroke-miterlimit:10;}
	.st7{opacity:0.4;fill:url(#globe_x5F_blue_16_);stroke:url(#globe_x5F_blue_17_);stroke-width:0.194;stroke-miterlimit:10;}
	.st8{opacity:0.4;fill:url(#globe_x5F_red_1_);}
	.st9{opacity:0.4;fill:url(#globe_x5F_red_3_);}
	.st10{opacity:0.4;fill:url(#globe_x5F_red_9_);}
	.st11{opacity:0.4;fill:url(#globe_x5F_red_10_);}
	.st12{opacity:0.4;fill:url(#globe_x5F_red_11_);}
	.st13{opacity:0.4;fill:url(#globe_x5F_red_12_);}
</style>
<linearGradient id="SVGID_1_" gradientUnits="userSpaceOnUse" x1="369.7224" y1="2496.4998" x2="224.9425" y2="-12.98" gradientTransform="matrix(1 0 0 -1 0 2160)">
	<stop  offset="0" style="stop-color:#22B2DA"/>
	<stop  offset="6.000000e-02" style="stop-color:#42BDDE"/>
	<stop  offset="0.14" style="stop-color:#69CAE3"/>
	<stop  offset="0.22" style="stop-color:#88D5E7"/>
	<stop  offset="0.29" style="stop-color:#9DDCEA"/>
	<stop  offset="0.37" style="stop-color:#ABE0EB"/>
	<stop  offset="0.44" style="stop-color:#AFE2EC"/>
	<stop  offset="1" style="stop-color:#EEF9FC"/>
</linearGradient>
<path class="st0" d="M0,0h576v2160H0V0z"/>
<linearGradient id="SVGID_2_" gradientUnits="userSpaceOnUse" x1="411.6821" y1="-255.2696" x2="111.502" y2="1447.1204" gradientTransform="matrix(1 0 0 -1 0 2160)">
	<stop  offset="0" style="stop-color:#DA4A22"/>
	<stop  offset="0.52" style="stop-color:#FF7650"/>
	<stop  offset="1" style="stop-color:#FFBDAA"/>
</linearGradient>
<path class="st1" d="M576,1267.7V2160H0V732.5C243.2,1200,424.8,1325.2,576,1267.7L576,1267.7z"/>
<g id="globes_x5F_blue">
	<linearGradient id="globe_x5F_blue_4_" gradientUnits="userSpaceOnUse" x1="-4.0738" y1="84.9141" x2="504.4017" y2="397.8962">
		<stop  offset="0" style="stop-color:#22B2DA"/>
		<stop  offset="5.078889e-02" style="stop-color:#34B8DC"/>
		<stop  offset="0.3988" style="stop-color:#AFE2EC"/>
		<stop  offset="1" style="stop-color:#EEF9FC"/>
	</linearGradient>
	<linearGradient id="globe_x5F_blue_7_" gradientUnits="userSpaceOnUse" x1="47.8304" y1="176.0504" x2="240.1447" y2="176.0504">
		<stop  offset="0" style="stop-color:#22B2DA"/>
		<stop  offset="5.078889e-02" style="stop-color:#34B8DC"/>
		<stop  offset="0.3988" style="stop-color:#AFE2EC"/>
		<stop  offset="1" style="stop-color:#EEF9FC"/>
	</linearGradient>
	<path id="globe_x5F_blue_6_" class="st2" d="M144,80.1c53,0,96,43,96,96c0,10.6-1.7,21.2-5.2,31.2c-12.9,37.7-48.7,64.8-90.8,64.8
		c-53,0-96-43-96-96S91,80.1,144,80.1z"/>
	<linearGradient id="globe_x5F_blue_8_" gradientUnits="userSpaceOnUse" x1="282.8799" y1="599.1993" x2="791.3555" y2="912.1814">
		<stop  offset="0" style="stop-color:#22B2DA"/>
		<stop  offset="5.078889e-02" style="stop-color:#34B8DC"/>
		<stop  offset="0.3988" style="stop-color:#AFE2EC"/>
		<stop  offset="1" style="stop-color:#EEF9FC"/>
	</linearGradient>
	<linearGradient id="globe_x5F_blue_9_" gradientUnits="userSpaceOnUse" x1="334.7841" y1="690.3355" x2="527.0984" y2="690.3355">
		<stop  offset="0" style="stop-color:#22B2DA"/>
		<stop  offset="5.078889e-02" style="stop-color:#34B8DC"/>
		<stop  offset="0.3988" style="stop-color:#AFE2EC"/>
		<stop  offset="1" style="stop-color:#EEF9FC"/>
	</linearGradient>
	<path id="globe_x5F_blue_5_" class="st3" d="M430.9,594.3c53,0,96,43,96,96c0,10.6-1.7,21.2-5.2,31.2
		c-12.9,37.7-48.7,64.8-90.8,64.8c-53,0-96-43-96-96C334.9,637.3,377.9,594.3,430.9,594.3z"/>
	<linearGradient id="globe_x5F_blue_10_" gradientUnits="userSpaceOnUse" x1="377.358" y1="119.7937" x2="691.2304" y2="312.9916">
		<stop  offset="0" style="stop-color:#22B2DA"/>
		<stop  offset="5.078889e-02" style="stop-color:#34B8DC"/>
		<stop  offset="0.3988" style="stop-color:#AFE2EC"/>
		<stop  offset="1" style="stop-color:#EEF9FC"/>
	</linearGradient>
	<linearGradient id="globe_x5F_blue_11_" gradientUnits="userSpaceOnUse" x1="409.3975" y1="176.0504" x2="528.1095" y2="176.0504">
		<stop  offset="0" style="stop-color:#22B2DA"/>
		<stop  offset="5.078889e-02" style="stop-color:#34B8DC"/>
		<stop  offset="0.3988" style="stop-color:#AFE2EC"/>
		<stop  offset="1" style="stop-color:#EEF9FC"/>
	</linearGradient>
	<path id="globe_x5F_blue_3_" class="st4" d="M468.8,116.8c32.7,0,59.3,26.5,59.3,59.3c0,6.6-1.1,13.1-3.2,19.3
		c-8,23.2-30.1,40-56,40c-32.7,0-59.3-26.5-59.3-59.3S436,116.8,468.8,116.8z"/>
	<linearGradient id="globe_x5F_blue_12_" gradientUnits="userSpaceOnUse" x1="52.592" y1="651.4156" x2="366.4644" y2="844.6136">
		<stop  offset="0" style="stop-color:#22B2DA"/>
		<stop  offset="5.078889e-02" style="stop-color:#34B8DC"/>
		<stop  offset="0.3988" style="stop-color:#AFE2EC"/>
		<stop  offset="1" style="stop-color:#EEF9FC"/>
	</linearGradient>
	<linearGradient id="globe_x5F_blue_13_" gradientUnits="userSpaceOnUse" x1="84.6315" y1="707.6723" x2="203.3435" y2="707.6723">
		<stop  offset="0" style="stop-color:#22B2DA"/>
		<stop  offset="5.078889e-02" style="stop-color:#34B8DC"/>
		<stop  offset="0.3988" style="stop-color:#AFE2EC"/>
		<stop  offset="1" style="stop-color:#EEF9FC"/>
	</linearGradient>
	<path id="globe_x5F_blue_1_" class="st5" d="M144,648.4c32.7,0,59.3,26.5,59.3,59.3c0,6.6-1.1,13.1-3.2,19.3c-8,23.2-30.1,40-56,40
		c-32.7,0-59.3-26.5-59.3-59.3S111.3,648.4,144,648.4z"/>
	
		<linearGradient id="globe_x5F_blue_14_" gradientUnits="userSpaceOnUse" x1="339.5458" y1="1032.5778" x2="653.4182" y2="1225.7758">
		<stop  offset="0" style="stop-color:#22B2DA"/>
		<stop  offset="5.078889e-02" style="stop-color:#34B8DC"/>
		<stop  offset="0.3988" style="stop-color:#AFE2EC"/>
		<stop  offset="1" style="stop-color:#EEF9FC"/>
	</linearGradient>
	
		<linearGradient id="globe_x5F_blue_15_" gradientUnits="userSpaceOnUse" x1="371.5853" y1="1088.8345" x2="490.2973" y2="1088.8345">
		<stop  offset="0" style="stop-color:#22B2DA"/>
		<stop  offset="5.078889e-02" style="stop-color:#34B8DC"/>
		<stop  offset="0.3988" style="stop-color:#AFE2EC"/>
		<stop  offset="1" style="stop-color:#EEF9FC"/>
	</linearGradient>
	<path id="globe_x5F_blue" class="st6" d="M430.9,1029.6c32.7,0,59.3,26.5,59.3,59.3c0,6.6-1.1,13.1-3.2,19.3c-8,23.2-30.1,40-56,40
		c-32.7,0-59.3-26.5-59.3-59.3S398.2,1029.6,430.9,1029.6z"/>
	<linearGradient id="globe_x5F_blue_16_" gradientUnits="userSpaceOnUse" x1="171.11" y1="370.1693" x2="484.9825" y2="563.3673">
		<stop  offset="0" style="stop-color:#22B2DA"/>
		<stop  offset="5.078889e-02" style="stop-color:#34B8DC"/>
		<stop  offset="0.3988" style="stop-color:#AFE2EC"/>
		<stop  offset="1" style="stop-color:#EEF9FC"/>
	</linearGradient>
	<linearGradient id="globe_x5F_blue_17_" gradientUnits="userSpaceOnUse" x1="203.1495" y1="426.426" x2="321.8615" y2="426.426">
		<stop  offset="0" style="stop-color:#22B2DA"/>
		<stop  offset="5.078889e-02" style="stop-color:#34B8DC"/>
		<stop  offset="0.3988" style="stop-color:#AFE2EC"/>
		<stop  offset="1" style="stop-color:#EEF9FC"/>
	</linearGradient>
	<path id="globe_x5F_blue_2_" class="st7" d="M262.5,367.2c32.7,0,59.3,26.5,59.3,59.3c0,6.6-1.1,13.1-3.2,19.3
		c-8,23.2-30.1,40-56,40c-32.7,0-59.3-26.5-59.3-59.3S229.8,367.2,262.5,367.2z"/>
</g>
<g id="globes_x5F_red">
	<linearGradient id="globe_x5F_red_1_" gradientUnits="userSpaceOnUse" x1="366.6457" y1="1962.8848" x2="552.1158" y2="2093.0706">
		<stop  offset="0" style="stop-color:#DA4A22"/>
		<stop  offset="0.3272" style="stop-color:#EC5B33"/>
		<stop  offset="1" style="stop-color:#FFBDAA"/>
	</linearGradient>
	<path id="globe_x5F_red_8_" class="st8" d="M468.8,1975.3c32.7,0,59.3,26.5,59.3,59.3c0,6.6-1.1,13.1-3.2,19.3
		c-8,23.2-30.1,40-56,40c-32.7,0-59.3-26.5-59.3-59.3S436,1975.3,468.8,1975.3z"/>
	<linearGradient id="globe_x5F_red_3_" gradientUnits="userSpaceOnUse" x1="366.6457" y1="1406.3389" x2="552.1158" y2="1536.5247">
		<stop  offset="0" style="stop-color:#DA4A22"/>
		<stop  offset="0.3272" style="stop-color:#EC5B33"/>
		<stop  offset="1" style="stop-color:#FFBDAA"/>
	</linearGradient>
	<path id="globe_x5F_red_7_" class="st9" d="M468.8,1418.8c32.7,0,59.3,26.5,59.3,59.3c0,6.6-1.1,13.1-3.2,19.3
		c-8,23.2-30.1,40-56,40c-32.7,0-59.3-26.5-59.3-59.3S436,1418.8,468.8,1418.8z"/>
	<linearGradient id="globe_x5F_red_9_" gradientUnits="userSpaceOnUse" x1="27.6601" y1="1962.8848" x2="213.1302" y2="2093.0706">
		<stop  offset="0" style="stop-color:#DA4A22"/>
		<stop  offset="0.3272" style="stop-color:#EC5B33"/>
		<stop  offset="1" style="stop-color:#FFBDAA"/>
	</linearGradient>
	<path id="globe_x5F_red_6_" class="st10" d="M129.8,1975.3c32.7,0,59.3,26.5,59.3,59.3c0,6.6-1.1,13.1-3.2,19.3
		c-8,23.2-30.1,40-56,40c-32.7,0-59.3-26.5-59.3-59.3S97,1975.3,129.8,1975.3z"/>
	<linearGradient id="globe_x5F_red_10_" gradientUnits="userSpaceOnUse" x1="41.8798" y1="1502.3389" x2="227.3499" y2="1632.5247">
		<stop  offset="0" style="stop-color:#DA4A22"/>
		<stop  offset="0.3272" style="stop-color:#EC5B33"/>
		<stop  offset="1" style="stop-color:#FFBDAA"/>
	</linearGradient>
	<path id="globe_x5F_red_5_" class="st11" d="M144,1514.8c32.7,0,59.3,26.5,59.3,59.3c0,6.6-1.1,13.1-3.2,19.3
		c-8,23.2-30.1,40-56,40c-32.7,0-59.3-26.5-59.3-59.3S111.3,1514.8,144,1514.8z"/>
	
		<linearGradient id="globe_x5F_red_11_" gradientUnits="userSpaceOnUse" x1="-35.6475" y1="1110.6429" x2="264.8154" y2="1321.5447">
		<stop  offset="0" style="stop-color:#DA4A22"/>
		<stop  offset="0.3272" style="stop-color:#EC5B33"/>
		<stop  offset="1" style="stop-color:#FFBDAA"/>
	</linearGradient>
	<path id="globe_x5F_red_4_" class="st12" d="M129.8,1130.8c53,0,96,43,96,96c0,10.6-1.7,21.2-5.2,31.2
		c-12.9,37.7-48.7,64.8-90.8,64.8c-53,0-96-43-96-96S76.7,1130.8,129.8,1130.8z"/>
	
		<linearGradient id="globe_x5F_red_12_" gradientUnits="userSpaceOnUse" x1="169.449" y1="1662.9834" x2="469.9118" y2="1873.8853" gradientTransform="matrix(0.9979 -6.520034e-02 6.520034e-02 0.9979 -115.2089 23.2916)">
		<stop  offset="0" style="stop-color:#DA4A22"/>
		<stop  offset="0.3272" style="stop-color:#EC5B33"/>
		<stop  offset="1" style="stop-color:#FFBDAA"/>
	</linearGradient>
	<path id="globe_x5F_red_2_" class="st13" d="M328.7,1681c52.9-3.5,98.6,36.6,102.1,89.5c0.7,10.6-0.4,21.3-3.2,31.5
		c-10.5,38.4-44.4,67.8-86.4,70.5c-52.9,3.5-98.6-36.6-102.1-89.5C235.7,1730.1,275.8,1684.4,328.7,1681z"/>
</g>
</svg>
