<?xml version="1.0" encoding="utf-8"?>
<!-- Generator: Adobe Illustrator 24.1.3, SVG Export Plug-In . SVG Version: 6.00 Build 0)  -->
<svg version="1.1" id="Layer_1" xmlns="http://www.w3.org/2000/svg" xmlns:xlink="http://www.w3.org/1999/xlink" x="0px" y="0px"
	 viewBox="0 0 997.6 2026.5" style="enable-background:new 0 0 997.6 2026.5;" xml:space="preserve">
<style type="text/css">
	.st0{fill:url(#Path_13_1_);}
	.st1{fill:url(#Path_16_1_);}
	.st2{opacity:0.4;fill:url(#globe_x5F_blue_9_);stroke:url(#globe_x5F_blue_10_);stroke-width:0.3143;stroke-miterlimit:10;}
	.st3{opacity:0.4;fill:url(#globe_x5F_blue_11_);stroke:url(#globe_x5F_blue_12_);stroke-width:0.3143;stroke-miterlimit:10;}
	.st4{opacity:0.4;fill:url(#globe_x5F_blue_13_);stroke:url(#globe_x5F_blue_14_);stroke-width:0.3143;stroke-miterlimit:10;}
	.st5{opacity:0.4;fill:url(#globe_x5F_blue_15_);stroke:url(#globe_x5F_blue_16_);stroke-width:0.194;stroke-miterlimit:10;}
	.st6{opacity:0.4;fill:url(#globe_x5F_blue_17_);stroke:url(#globe_x5F_blue_18_);stroke-width:0.194;stroke-miterlimit:10;}
	.st7{opacity:0.4;fill:url(#globe_x5F_blue_19_);stroke:url(#globe_x5F_blue_20_);stroke-width:0.194;stroke-miterlimit:10;}
	.st8{opacity:0.4;fill:url(#globe_x5F_blue_21_);stroke:url(#globe_x5F_blue_22_);stroke-width:0.194;stroke-miterlimit:10;}
	.st9{opacity:0.4;fill:url(#globe_x5F_blue_23_);stroke:url(#globe_x5F_blue_24_);stroke-width:0.194;stroke-miterlimit:10;}
	.st10{opacity:0.4;fill:url(#globe_x5F_blue_25_);stroke:url(#globe_x5F_blue_26_);stroke-width:0.194;stroke-miterlimit:10;}
	.st11{opacity:0.4;fill:url(#globe_x5F_red_3_);}
	.st12{opacity:0.4;fill:url(#globe_x5F_red_7_);}
	.st13{opacity:0.4;fill:url(#globe_x5F_red_9_);}
	.st14{opacity:0.4;fill:url(#globe_x5F_red_10_);}
	.st15{opacity:0.4;fill:url(#globe_x5F_red_11_);}
	.st16{opacity:0.4;fill:url(#globe_x5F_red_12_);}
</style>
<linearGradient id="Path_13_1_" gradientUnits="userSpaceOnUse" x1="-4083.2283" y1="159.9206" x2="-4083.2283" y2="160.591" gradientTransform="matrix(1920.1023 0 0 3469.9954 7840715 -555223.6875)">
	<stop  offset="0" style="stop-color:#AFE2EC"/>
	<stop  offset="1" style="stop-color:#EEF9FC"/>
</linearGradient>
<path id="Path_13" class="st0" d="M0.6,69.4c0-92.6,996.3-92.6,996.3,0v1957l-996.3,0.1L0.6,69.4z"/>
<linearGradient id="Path_16_1_" gradientUnits="userSpaceOnUse" x1="-4082.8572" y1="159.8935" x2="-4083.4202" y2="160.4279" gradientTransform="matrix(1925.0815 0 0 2465.5713 7861056.5 -393178.5938)">
	<stop  offset="0" style="stop-color:#DA4A22"/>
	<stop  offset="0.52" style="stop-color:#FF7650"/>
	<stop  offset="1" style="stop-color:#FFBDAA"/>
</linearGradient>
<path id="Path_16" class="st1" d="M0,1962.2c-0.3-329.7,352.1-353.7,618-540C855.1,1256,785,708.3,997.6,765.3v1261.3H0V1962.2z"/>
<g id="globes_x5F_blue">
	<linearGradient id="globe_x5F_blue_9_" gradientUnits="userSpaceOnUse" x1="20.3034" y1="138.545" x2="528.7791" y2="451.5271">
		<stop  offset="0" style="stop-color:#22B2DA"/>
		<stop  offset="5.078889e-02" style="stop-color:#34B8DC"/>
		<stop  offset="0.3988" style="stop-color:#AFE2EC"/>
		<stop  offset="1" style="stop-color:#EEF9FC"/>
	</linearGradient>
	<linearGradient id="globe_x5F_blue_10_" gradientUnits="userSpaceOnUse" x1="72.2076" y1="229.6812" x2="264.522" y2="229.6812">
		<stop  offset="0" style="stop-color:#22B2DA"/>
		<stop  offset="5.078889e-02" style="stop-color:#34B8DC"/>
		<stop  offset="0.3988" style="stop-color:#AFE2EC"/>
		<stop  offset="1" style="stop-color:#EEF9FC"/>
	</linearGradient>
	<path id="globe_x5F_blue_6_" class="st2" d="M168.4,133.7c53,0,96,43,96,96c0,10.6-1.7,21.2-5.2,31.2
		c-12.9,37.7-48.7,64.8-90.8,64.8c-53,0-96-43-96-96S115.3,133.7,168.4,133.7z"/>
	
		<linearGradient id="globe_x5F_blue_11_" gradientUnits="userSpaceOnUse" x1="116.3034" y1="793.2245" x2="624.7791" y2="1106.2067">
		<stop  offset="0" style="stop-color:#22B2DA"/>
		<stop  offset="5.078889e-02" style="stop-color:#34B8DC"/>
		<stop  offset="0.3988" style="stop-color:#AFE2EC"/>
		<stop  offset="1" style="stop-color:#EEF9FC"/>
	</linearGradient>
	<linearGradient id="globe_x5F_blue_12_" gradientUnits="userSpaceOnUse" x1="168.2077" y1="884.3608" x2="360.522" y2="884.3608">
		<stop  offset="0" style="stop-color:#22B2DA"/>
		<stop  offset="5.078889e-02" style="stop-color:#34B8DC"/>
		<stop  offset="0.3988" style="stop-color:#AFE2EC"/>
		<stop  offset="1" style="stop-color:#EEF9FC"/>
	</linearGradient>
	<path id="globe_x5F_blue_5_" class="st3" d="M264.4,788.4c53,0,96,43,96,96c0,10.6-1.7,21.2-5.2,31.2
		c-12.9,37.7-48.7,64.8-90.8,64.8c-53,0-96-43-96-96S211.3,788.4,264.4,788.4z"/>
	
		<linearGradient id="globe_x5F_blue_13_" gradientUnits="userSpaceOnUse" x1="365.4949" y1="1107.6061" x2="873.9705" y2="1420.5883">
		<stop  offset="0" style="stop-color:#22B2DA"/>
		<stop  offset="5.078889e-02" style="stop-color:#34B8DC"/>
		<stop  offset="0.3988" style="stop-color:#AFE2EC"/>
		<stop  offset="1" style="stop-color:#EEF9FC"/>
	</linearGradient>
	
		<linearGradient id="globe_x5F_blue_14_" gradientUnits="userSpaceOnUse" x1="417.3991" y1="1198.7423" x2="609.7134" y2="1198.7423">
		<stop  offset="0" style="stop-color:#22B2DA"/>
		<stop  offset="5.078889e-02" style="stop-color:#34B8DC"/>
		<stop  offset="0.3988" style="stop-color:#AFE2EC"/>
		<stop  offset="1" style="stop-color:#EEF9FC"/>
	</linearGradient>
	<path id="globe_x5F_blue_4_" class="st4" d="M513.6,1102.7c53,0,96,43,96,96c0,10.6-1.7,21.2-5.2,31.2
		c-12.9,37.7-48.7,64.8-90.8,64.8c-53,0-96-43-96-96C417.6,1145.7,460.5,1102.7,513.6,1102.7z"/>
	
		<linearGradient id="globe_x5F_blue_15_" gradientUnits="userSpaceOnUse" x1="747.1221" y1="493.9556" x2="1060.9945" y2="687.1536">
		<stop  offset="0" style="stop-color:#22B2DA"/>
		<stop  offset="5.078889e-02" style="stop-color:#34B8DC"/>
		<stop  offset="0.3988" style="stop-color:#AFE2EC"/>
		<stop  offset="1" style="stop-color:#EEF9FC"/>
	</linearGradient>
	<linearGradient id="globe_x5F_blue_16_" gradientUnits="userSpaceOnUse" x1="779.1616" y1="550.2123" x2="897.8736" y2="550.2123">
		<stop  offset="0" style="stop-color:#22B2DA"/>
		<stop  offset="5.078889e-02" style="stop-color:#34B8DC"/>
		<stop  offset="0.3988" style="stop-color:#AFE2EC"/>
		<stop  offset="1" style="stop-color:#EEF9FC"/>
	</linearGradient>
	<path id="globe_x5F_blue_3_" class="st5" d="M838.5,491c32.7,0,59.3,26.5,59.3,59.3c0,6.6-1.1,13.1-3.2,19.3c-8,23.2-30.1,40-56,40
		c-32.7,0-59.3-26.5-59.3-59.3S805.8,491,838.5,491z"/>
	
		<linearGradient id="globe_x5F_blue_17_" gradientUnits="userSpaceOnUse" x1="54.4513" y1="1396.8335" x2="368.3238" y2="1590.0315">
		<stop  offset="0" style="stop-color:#22B2DA"/>
		<stop  offset="5.078889e-02" style="stop-color:#34B8DC"/>
		<stop  offset="0.3988" style="stop-color:#AFE2EC"/>
		<stop  offset="1" style="stop-color:#EEF9FC"/>
	</linearGradient>
	
		<linearGradient id="globe_x5F_blue_18_" gradientUnits="userSpaceOnUse" x1="86.4908" y1="1453.0901" x2="205.2028" y2="1453.0901">
		<stop  offset="0" style="stop-color:#22B2DA"/>
		<stop  offset="5.078889e-02" style="stop-color:#34B8DC"/>
		<stop  offset="0.3988" style="stop-color:#AFE2EC"/>
		<stop  offset="1" style="stop-color:#EEF9FC"/>
	</linearGradient>
	<path id="globe_x5F_blue_2_" class="st6" d="M145.8,1393.8c32.7,0,59.3,26.5,59.3,59.3c0,6.6-1.1,13.1-3.2,19.3
		c-8,23.2-30.1,40-56,40c-32.7,0-59.3-26.5-59.3-59.3S113.1,1393.8,145.8,1393.8z"/>
	
		<linearGradient id="globe_x5F_blue_19_" gradientUnits="userSpaceOnUse" x1="788.9695" y1="114.1655" x2="1102.8419" y2="307.3635">
		<stop  offset="0" style="stop-color:#22B2DA"/>
		<stop  offset="5.078889e-02" style="stop-color:#34B8DC"/>
		<stop  offset="0.3988" style="stop-color:#AFE2EC"/>
		<stop  offset="1" style="stop-color:#EEF9FC"/>
	</linearGradient>
	<linearGradient id="globe_x5F_blue_20_" gradientUnits="userSpaceOnUse" x1="821.009" y1="170.4222" x2="939.7209" y2="170.4222">
		<stop  offset="0" style="stop-color:#22B2DA"/>
		<stop  offset="5.078889e-02" style="stop-color:#34B8DC"/>
		<stop  offset="0.3988" style="stop-color:#AFE2EC"/>
		<stop  offset="1" style="stop-color:#EEF9FC"/>
	</linearGradient>
	<path id="globe_x5F_blue_1_" class="st7" d="M880.4,111.2c32.7,0,59.3,26.5,59.3,59.3c0,6.6-1.1,13.1-3.2,19.3
		c-8,23.2-30.1,40-56,40c-32.7,0-59.3-26.5-59.3-59.3S847.6,111.2,880.4,111.2z"/>
	<linearGradient id="globe_x5F_blue_21_" gradientUnits="userSpaceOnUse" x1="490.2139" y1="672.8451" x2="804.0864" y2="866.0431">
		<stop  offset="0" style="stop-color:#22B2DA"/>
		<stop  offset="5.078889e-02" style="stop-color:#34B8DC"/>
		<stop  offset="0.3988" style="stop-color:#AFE2EC"/>
		<stop  offset="1" style="stop-color:#EEF9FC"/>
	</linearGradient>
	<linearGradient id="globe_x5F_blue_22_" gradientUnits="userSpaceOnUse" x1="522.2534" y1="729.1018" x2="640.9654" y2="729.1018">
		<stop  offset="0" style="stop-color:#22B2DA"/>
		<stop  offset="5.078889e-02" style="stop-color:#34B8DC"/>
		<stop  offset="0.3988" style="stop-color:#AFE2EC"/>
		<stop  offset="1" style="stop-color:#EEF9FC"/>
	</linearGradient>
	<path id="globe_x5F_blue" class="st8" d="M581.6,669.8c32.7,0,59.3,26.5,59.3,59.3c0,6.6-1.1,13.1-3.2,19.3c-8,23.2-30.1,40-56,40
		c-32.7,0-59.3-26.5-59.3-59.3C522.4,696.4,548.9,669.8,581.6,669.8z"/>
	<linearGradient id="globe_x5F_blue_23_" gradientUnits="userSpaceOnUse" x1="246.4513" y1="434.6966" x2="560.3237" y2="627.8946">
		<stop  offset="0" style="stop-color:#22B2DA"/>
		<stop  offset="5.078889e-02" style="stop-color:#34B8DC"/>
		<stop  offset="0.3988" style="stop-color:#AFE2EC"/>
		<stop  offset="1" style="stop-color:#EEF9FC"/>
	</linearGradient>
	<linearGradient id="globe_x5F_blue_24_" gradientUnits="userSpaceOnUse" x1="278.4908" y1="490.9533" x2="397.2028" y2="490.9533">
		<stop  offset="0" style="stop-color:#22B2DA"/>
		<stop  offset="5.078889e-02" style="stop-color:#34B8DC"/>
		<stop  offset="0.3988" style="stop-color:#AFE2EC"/>
		<stop  offset="1" style="stop-color:#EEF9FC"/>
	</linearGradient>
	<path id="globe_x5F_blue_7_" class="st9" d="M337.8,431.7c32.7,0,59.3,26.5,59.3,59.3c0,6.6-1.1,13.1-3.2,19.3
		c-8,23.2-30.1,40-56,40c-32.7,0-59.3-26.5-59.3-59.3S305.1,431.7,337.8,431.7z"/>
	<linearGradient id="globe_x5F_blue_25_" gradientUnits="userSpaceOnUse" x1="490.2139" y1="200.5431" x2="804.0864" y2="393.7411">
		<stop  offset="0" style="stop-color:#22B2DA"/>
		<stop  offset="5.078889e-02" style="stop-color:#34B8DC"/>
		<stop  offset="0.3988" style="stop-color:#AFE2EC"/>
		<stop  offset="1" style="stop-color:#EEF9FC"/>
	</linearGradient>
	<linearGradient id="globe_x5F_blue_26_" gradientUnits="userSpaceOnUse" x1="522.2534" y1="256.7998" x2="640.9654" y2="256.7998">
		<stop  offset="0" style="stop-color:#22B2DA"/>
		<stop  offset="5.078889e-02" style="stop-color:#34B8DC"/>
		<stop  offset="0.3988" style="stop-color:#AFE2EC"/>
		<stop  offset="1" style="stop-color:#EEF9FC"/>
	</linearGradient>
	<path id="globe_x5F_blue_8_" class="st10" d="M581.6,197.5c32.7,0,59.3,26.5,59.3,59.3c0,6.6-1.1,13.1-3.2,19.3
		c-8,23.2-30.1,40-56,40c-32.7,0-59.3-26.5-59.3-59.3S548.9,197.5,581.6,197.5z"/>
</g>
<g id="globes_x5F_red">
	<linearGradient id="globe_x5F_red_3_" gradientUnits="userSpaceOnUse" x1="814.9982" y1="971.8116" x2="1000.4683" y2="1101.9973">
		<stop  offset="0" style="stop-color:#DA4A22"/>
		<stop  offset="0.3272" style="stop-color:#EC5B33"/>
		<stop  offset="1" style="stop-color:#FFBDAA"/>
	</linearGradient>
	<path id="globe_x5F_red_8_" class="st11" d="M917.1,984.2c32.7,0,59.3,26.5,59.3,59.3c0,6.6-1.1,13.1-3.2,19.3
		c-8,23.2-30.1,40-56,40c-32.7,0-59.3-26.5-59.3-59.3C857.8,1010.8,884.4,984.2,917.1,984.2z"/>
	<linearGradient id="globe_x5F_red_7_" gradientUnits="userSpaceOnUse" x1="507.4485" y1="1575.7236" x2="692.9186" y2="1705.9093">
		<stop  offset="0" style="stop-color:#DA4A22"/>
		<stop  offset="0.3272" style="stop-color:#EC5B33"/>
		<stop  offset="1" style="stop-color:#FFBDAA"/>
	</linearGradient>
	<path id="globe_x5F_red_6_" class="st12" d="M609.6,1588.1c32.7,0,59.3,26.5,59.3,59.3c0,6.6-1.1,13.1-3.2,19.3
		c-8,23.2-30.1,40-56,40c-32.7,0-59.3-26.5-59.3-59.3S576.8,1588.1,609.6,1588.1z"/>
	<linearGradient id="globe_x5F_red_9_" gradientUnits="userSpaceOnUse" x1="354.257" y1="1873.9613" x2="539.7271" y2="2004.1471">
		<stop  offset="0" style="stop-color:#DA4A22"/>
		<stop  offset="0.3272" style="stop-color:#EC5B33"/>
		<stop  offset="1" style="stop-color:#FFBDAA"/>
	</linearGradient>
	<path id="globe_x5F_red_5_" class="st13" d="M456.4,1886.4c32.7,0,59.3,26.5,59.3,59.3c0,6.6-1.1,13.1-3.2,19.3
		c-8,23.2-30.1,40-56,40c-32.7,0-59.3-26.5-59.3-59.3S423.6,1886.4,456.4,1886.4z"/>
	<linearGradient id="globe_x5F_red_10_" gradientUnits="userSpaceOnUse" x1="50.7568" y1="1686.5455" x2="351.2196" y2="1897.4474">
		<stop  offset="0" style="stop-color:#DA4A22"/>
		<stop  offset="0.3272" style="stop-color:#EC5B33"/>
		<stop  offset="1" style="stop-color:#FFBDAA"/>
	</linearGradient>
	<path id="globe_x5F_red_4_" class="st14" d="M216.2,1706.7c53,0,96,43,96,96c0,10.6-1.7,21.2-5.2,31.2
		c-12.9,37.7-48.7,64.8-90.8,64.8c-53,0-96-43-96-96S163.2,1706.7,216.2,1706.7z"/>
	
		<linearGradient id="globe_x5F_red_11_" gradientUnits="userSpaceOnUse" x1="714.9497" y1="1759.0563" x2="1015.4125" y2="1969.958">
		<stop  offset="0" style="stop-color:#DA4A22"/>
		<stop  offset="0.3272" style="stop-color:#EC5B33"/>
		<stop  offset="1" style="stop-color:#FFBDAA"/>
	</linearGradient>
	<path id="globe_x5F_red_2_" class="st15" d="M880.4,1779.2c53,0,96,43,96,96c0,10.6-1.7,21.2-5.2,31.2
		c-12.9,37.7-48.7,64.8-90.8,64.8c-53,0-96-43-96-96S827.3,1779.2,880.4,1779.2z"/>
	
		<linearGradient id="globe_x5F_red_12_" gradientUnits="userSpaceOnUse" x1="714.9497" y1="1336.9813" x2="1015.4125" y2="1547.8832">
		<stop  offset="0" style="stop-color:#DA4A22"/>
		<stop  offset="0.3272" style="stop-color:#EC5B33"/>
		<stop  offset="1" style="stop-color:#FFBDAA"/>
	</linearGradient>
	<path id="globe_x5F_red_1_" class="st16" d="M880.4,1357.1c53,0,96,43,96,96c0,10.6-1.7,21.2-5.2,31.2
		c-12.9,37.7-48.7,64.8-90.8,64.8c-53,0-96-43-96-96S827.3,1357.1,880.4,1357.1z"/>
</g>
</svg>
