<?xml version="1.0" encoding="utf-8"?>
<!-- Generator: Adobe Illustrator 24.1.3, SVG Export Plug-In . SVG Version: 6.00 Build 0)  -->
<svg version="1.1" id="Layer_1" xmlns="http://www.w3.org/2000/svg" xmlns:xlink="http://www.w3.org/1999/xlink" x="0px" y="0px"
	 viewBox="0 0 851.5 1152" style="enable-background:new 0 0 851.5 1152;" xml:space="preserve">
<style type="text/css">
	.st0{fill:url(#SVGID_1_);}
	.st1{opacity:0.4;fill:url(#globe_x5F_blue_7_);stroke:url(#globe_x5F_blue_8_);stroke-width:0.3143;stroke-miterlimit:10;}
	.st2{opacity:0.4;fill:url(#globe_x5F_blue_9_);stroke:url(#globe_x5F_blue_10_);stroke-width:0.3143;stroke-miterlimit:10;}
	.st3{opacity:0.4;fill:url(#globe_x5F_blue_11_);stroke:url(#globe_x5F_blue_12_);stroke-width:0.3143;stroke-miterlimit:10;}
	.st4{opacity:0.4;fill:url(#globe_x5F_blue_13_);stroke:url(#globe_x5F_blue_14_);stroke-width:0.194;stroke-miterlimit:10;}
	.st5{opacity:0.4;fill:url(#globe_x5F_blue_15_);stroke:url(#globe_x5F_blue_16_);stroke-width:0.194;stroke-miterlimit:10;}
	.st6{opacity:0.4;fill:url(#globe_x5F_blue_17_);stroke:url(#globe_x5F_blue_18_);stroke-width:0.194;stroke-miterlimit:10;}
	.st7{opacity:0.4;fill:url(#globe_x5F_blue_19_);stroke:url(#globe_x5F_blue_20_);stroke-width:0.194;stroke-miterlimit:10;}
</style>
<linearGradient id="SVGID_1_" gradientUnits="userSpaceOnUse" x1="467.9496" y1="1371.9292" x2="279.1689" y2="-1900.2714" gradientTransform="matrix(1 0 0 -1 0 1152)">
	<stop  offset="0" style="stop-color:#22B2DA"/>
	<stop  offset="5.610000e-02" style="stop-color:#42BDDE"/>
	<stop  offset="0.1363" style="stop-color:#69CAE3"/>
	<stop  offset="0.2157" style="stop-color:#88D5E7"/>
	<stop  offset="0.293" style="stop-color:#9DDCEA"/>
	<stop  offset="0.3673" style="stop-color:#ABE0EB"/>
	<stop  offset="0.4351" style="stop-color:#AFE2EC"/>
	<stop  offset="1" style="stop-color:#EEF9FC"/>
</linearGradient>
<path class="st0" d="M0,576.3v-10.6c0-112.5,0-176.6,0-176.6V37.3c171.2-98.5,359.9,25.6,445.1,60.4c145.2,59.1,280,82.9,406.3,84.4
	v803.3c-183.6-25.9-368.9-34.1-546.2,13.8v0c-4.2,1.1-8.4,2.3-12.6,3.5c-1,0.3-2,0.6-3,0.8c-3.2,0.9-6.3,1.9-9.5,2.8
	c-2,0.6-4,1.2-5.9,1.8c-2,0.6-4,1.2-5.9,1.8c-1.9,0.6-3.7,1.2-5.6,1.8c-3.9,1.3-7.7,2.5-11.6,3.8c-1.3,0.4-2.6,0.9-3.9,1.3
	c-6.8,2.4-13.7,4.8-20.5,7.4c-1.6,0.6-3.3,1.2-4.9,1.8c-1.6,0.6-3.2,1.2-4.9,1.9c-1.5,0.6-3,1.2-4.6,1.8c-1.7,0.7-3.4,1.4-5.1,2.1
	c-1.6,0.7-3.2,1.3-4.8,2c-1.6,0.7-3.2,1.3-4.8,2c-1.6,0.7-3.2,1.3-4.8,2c-1.6,0.7-3.2,1.4-4.8,2.1c-1.6,0.7-3.2,1.4-4.8,2.1
	c-1.6,0.7-3.2,1.4-4.8,2.1c-1.6,0.7-3.2,1.4-4.8,2.2c-1.6,0.7-3.2,1.5-4.8,2.2c-1.6,0.7-3.2,1.5-4.8,2.2c-1.6,0.8-3.3,1.5-4.9,2.3
	c-1.4,0.7-2.9,1.4-4.3,2.1c-0.2,0.1-0.4,0.2-0.6,0.3c-1.5,0.7-2.9,1.4-4.4,2.1c-0.2,0.1-0.3,0.2-0.5,0.2c-1.5,0.7-3,1.5-4.5,2.3
	c-1.6,0.8-3.2,1.6-4.8,2.4c-1.6,0.8-3.2,1.6-4.8,2.4c-1.6,0.8-3.2,1.6-4.8,2.5c-3.2,1.7-6.3,3.3-9.5,5.1c-1.6,0.9-3.2,1.7-4.7,2.6
	c-1.6,0.9-3.2,1.7-4.7,2.6c-1.6,0.9-3.2,1.8-4.7,2.7c-1.6,0.9-3.2,1.8-4.7,2.7c-1.6,0.9-3.2,1.8-4.7,2.7c-3.1,1.8-6.3,3.7-9.4,5.6
	c-1.6,0.9-3.1,1.9-4.7,2.8c-1.6,0.9-3.1,1.9-4.7,2.9c-4.7,2.9-9.4,5.8-14,8.9c-3.1,2-6.2,4-9.3,6.1c-6.2,4.1-12.4,8.3-18.6,12.7
	c-1.5,1.1-3.1,2.2-4.6,3.3c-1.5,1.1-3.1,2.2-4.6,3.3c-1.5,1.1-3.1,2.2-4.6,3.3c-7.7,5.6-15.3,11.4-23,17.3l0,0c0-65.6,0-47.3,0-11.3
	v11.3"/>
<g id="globes_x5F_blue">
	<linearGradient id="globe_x5F_blue_7_" gradientUnits="userSpaceOnUse" x1="-14.3842" y1="163.5608" x2="494.0914" y2="476.5429">
		<stop  offset="0" style="stop-color:#22B2DA"/>
		<stop  offset="5.078889e-02" style="stop-color:#34B8DC"/>
		<stop  offset="0.3988" style="stop-color:#AFE2EC"/>
		<stop  offset="1" style="stop-color:#EEF9FC"/>
	</linearGradient>
	<linearGradient id="globe_x5F_blue_8_" gradientUnits="userSpaceOnUse" x1="37.5201" y1="254.6971" x2="229.8344" y2="254.6971">
		<stop  offset="0" style="stop-color:#22B2DA"/>
		<stop  offset="5.078889e-02" style="stop-color:#34B8DC"/>
		<stop  offset="0.3988" style="stop-color:#AFE2EC"/>
		<stop  offset="1" style="stop-color:#EEF9FC"/>
	</linearGradient>
	<path id="globe_x5F_blue_6_" class="st1" d="M133.7,158.7c53,0,96,43,96,96c0,10.6-1.7,21.2-5.2,31.2
		c-12.9,37.7-48.7,64.8-90.8,64.8c-53,0-96-43-96-96S80.7,158.7,133.7,158.7z"/>
	<linearGradient id="globe_x5F_blue_9_" gradientUnits="userSpaceOnUse" x1="-24.5969" y1="799.2436" x2="483.8787" y2="1112.2257">
		<stop  offset="0" style="stop-color:#22B2DA"/>
		<stop  offset="5.078889e-02" style="stop-color:#34B8DC"/>
		<stop  offset="0.3988" style="stop-color:#AFE2EC"/>
		<stop  offset="1" style="stop-color:#EEF9FC"/>
	</linearGradient>
	<linearGradient id="globe_x5F_blue_10_" gradientUnits="userSpaceOnUse" x1="27.3073" y1="890.3799" x2="219.6216" y2="890.3799">
		<stop  offset="0" style="stop-color:#22B2DA"/>
		<stop  offset="5.078889e-02" style="stop-color:#34B8DC"/>
		<stop  offset="0.3988" style="stop-color:#AFE2EC"/>
		<stop  offset="1" style="stop-color:#EEF9FC"/>
	</linearGradient>
	<path id="globe_x5F_blue_5_" class="st2" d="M123.5,794.4c53,0,96,43,96,96c0,10.6-1.7,21.2-5.2,31.2
		c-12.9,37.7-48.7,64.8-90.8,64.8c-53,0-96-43-96-96C27.5,837.4,70.4,794.4,123.5,794.4z"/>
	<linearGradient id="globe_x5F_blue_11_" gradientUnits="userSpaceOnUse" x1="357.4352" y1="562.8387" x2="865.9108" y2="875.8209">
		<stop  offset="0" style="stop-color:#22B2DA"/>
		<stop  offset="5.078889e-02" style="stop-color:#34B8DC"/>
		<stop  offset="0.3988" style="stop-color:#AFE2EC"/>
		<stop  offset="1" style="stop-color:#EEF9FC"/>
	</linearGradient>
	<linearGradient id="globe_x5F_blue_12_" gradientUnits="userSpaceOnUse" x1="409.3394" y1="653.975" x2="601.6537" y2="653.975">
		<stop  offset="0" style="stop-color:#22B2DA"/>
		<stop  offset="5.078889e-02" style="stop-color:#34B8DC"/>
		<stop  offset="0.3988" style="stop-color:#AFE2EC"/>
		<stop  offset="1" style="stop-color:#EEF9FC"/>
	</linearGradient>
	<path id="globe_x5F_blue_4_" class="st3" d="M505.5,558c53,0,96,43,96,96c0,10.6-1.7,21.2-5.2,31.2c-12.9,37.7-48.7,64.8-90.8,64.8
		c-53,0-96-43-96-96C409.5,601,452.5,558,505.5,558z"/>
	<linearGradient id="globe_x5F_blue_13_" gradientUnits="userSpaceOnUse" x1="657.0761" y1="797.3822" x2="970.9485" y2="990.5801">
		<stop  offset="0" style="stop-color:#22B2DA"/>
		<stop  offset="5.078889e-02" style="stop-color:#34B8DC"/>
		<stop  offset="0.3988" style="stop-color:#AFE2EC"/>
		<stop  offset="1" style="stop-color:#EEF9FC"/>
	</linearGradient>
	<linearGradient id="globe_x5F_blue_14_" gradientUnits="userSpaceOnUse" x1="689.1156" y1="853.6389" x2="807.8276" y2="853.6389">
		<stop  offset="0" style="stop-color:#22B2DA"/>
		<stop  offset="5.078889e-02" style="stop-color:#34B8DC"/>
		<stop  offset="0.3988" style="stop-color:#AFE2EC"/>
		<stop  offset="1" style="stop-color:#EEF9FC"/>
	</linearGradient>
	<path id="globe_x5F_blue_3_" class="st4" d="M748.5,794.4c32.7,0,59.3,26.5,59.3,59.3c0,6.6-1.1,13.1-3.2,19.3
		c-8,23.2-30.1,40-56,40c-32.7,0-59.3-26.5-59.3-59.3S715.7,794.4,748.5,794.4z"/>
	<linearGradient id="globe_x5F_blue_15_" gradientUnits="userSpaceOnUse" x1="307.7815" y1="267.6465" x2="621.6539" y2="460.8445">
		<stop  offset="0" style="stop-color:#22B2DA"/>
		<stop  offset="5.078889e-02" style="stop-color:#34B8DC"/>
		<stop  offset="0.3988" style="stop-color:#AFE2EC"/>
		<stop  offset="1" style="stop-color:#EEF9FC"/>
	</linearGradient>
	<linearGradient id="globe_x5F_blue_16_" gradientUnits="userSpaceOnUse" x1="339.821" y1="323.9032" x2="458.533" y2="323.9032">
		<stop  offset="0" style="stop-color:#22B2DA"/>
		<stop  offset="5.078889e-02" style="stop-color:#34B8DC"/>
		<stop  offset="0.3988" style="stop-color:#AFE2EC"/>
		<stop  offset="1" style="stop-color:#EEF9FC"/>
	</linearGradient>
	<path id="globe_x5F_blue_2_" class="st5" d="M399.2,264.6c32.7,0,59.3,26.5,59.3,59.3c0,6.6-1.1,13.1-3.2,19.3
		c-8,23.2-30.1,40-56,40c-32.7,0-59.3-26.5-59.3-59.3S366.4,264.6,399.2,264.6z"/>
	<linearGradient id="globe_x5F_blue_17_" gradientUnits="userSpaceOnUse" x1="636.6506" y1="373.5936" x2="950.523" y2="566.7916">
		<stop  offset="0" style="stop-color:#22B2DA"/>
		<stop  offset="5.078889e-02" style="stop-color:#34B8DC"/>
		<stop  offset="0.3988" style="stop-color:#AFE2EC"/>
		<stop  offset="1" style="stop-color:#EEF9FC"/>
	</linearGradient>
	<linearGradient id="globe_x5F_blue_18_" gradientUnits="userSpaceOnUse" x1="668.6901" y1="429.8503" x2="787.402" y2="429.8503">
		<stop  offset="0" style="stop-color:#22B2DA"/>
		<stop  offset="5.078889e-02" style="stop-color:#34B8DC"/>
		<stop  offset="0.3988" style="stop-color:#AFE2EC"/>
		<stop  offset="1" style="stop-color:#EEF9FC"/>
	</linearGradient>
	<path id="globe_x5F_blue_1_" class="st6" d="M728,370.6c32.7,0,59.3,26.5,59.3,59.3c0,6.6-1.1,13.1-3.2,19.3c-8,23.2-30.1,40-56,40
		c-32.7,0-59.3-26.5-59.3-59.3S695.3,370.6,728,370.6z"/>
	<linearGradient id="globe_x5F_blue_19_" gradientUnits="userSpaceOnUse" x1="128.0689" y1="519.7627" x2="441.9414" y2="712.9607">
		<stop  offset="0" style="stop-color:#22B2DA"/>
		<stop  offset="5.078889e-02" style="stop-color:#34B8DC"/>
		<stop  offset="0.3988" style="stop-color:#AFE2EC"/>
		<stop  offset="1" style="stop-color:#EEF9FC"/>
	</linearGradient>
	<linearGradient id="globe_x5F_blue_20_" gradientUnits="userSpaceOnUse" x1="160.1084" y1="576.0194" x2="278.8205" y2="576.0194">
		<stop  offset="0" style="stop-color:#22B2DA"/>
		<stop  offset="5.078889e-02" style="stop-color:#34B8DC"/>
		<stop  offset="0.3988" style="stop-color:#AFE2EC"/>
		<stop  offset="1" style="stop-color:#EEF9FC"/>
	</linearGradient>
	<path id="globe_x5F_blue" class="st7" d="M219.5,516.8c32.7,0,59.3,26.5,59.3,59.3c0,6.6-1.1,13.1-3.2,19.3c-8,23.2-30.1,40-56,40
		c-32.7,0-59.3-26.5-59.3-59.3C160.2,543.3,186.7,516.8,219.5,516.8z"/>
</g>
</svg>
