<?xml version="1.0" encoding="utf-8"?>
<!-- Generator: Adobe Illustrator 24.1.3, SVG Export Plug-In . SVG Version: 6.00 Build 0)  -->
<svg version="1.1" id="Layer_1" xmlns="http://www.w3.org/2000/svg" xmlns:xlink="http://www.w3.org/1999/xlink" x="0px" y="0px"
	 viewBox="0 0 520.2 951" style="enable-background:new 0 0 520.2 951;" xml:space="preserve">
<style type="text/css">
	.st0{fill:url(#SVGID_1_);}
	.st1{opacity:0.4;fill:url(#globe_x5F_blue_4_);stroke:url(#globe_x5F_blue_7_);stroke-width:0.3143;stroke-miterlimit:10;}
	.st2{opacity:0.4;fill:url(#globe_x5F_blue_8_);stroke:url(#globe_x5F_blue_9_);stroke-width:0.3143;stroke-miterlimit:10;}
	.st3{opacity:0.4;fill:url(#globe_x5F_blue_10_);stroke:url(#globe_x5F_blue_11_);stroke-width:0.194;stroke-miterlimit:10;}
	.st4{opacity:0.4;fill:url(#globe_x5F_blue_12_);stroke:url(#globe_x5F_blue_13_);stroke-width:0.194;stroke-miterlimit:10;}
	.st5{opacity:0.4;fill:url(#globe_x5F_blue_14_);stroke:url(#globe_x5F_blue_15_);stroke-width:0.194;stroke-miterlimit:10;}
	.st6{opacity:0.4;fill:url(#globe_x5F_blue_16_);stroke:url(#globe_x5F_blue_17_);stroke-width:0.194;stroke-miterlimit:10;}
</style>
<linearGradient id="SVGID_1_" gradientUnits="userSpaceOnUse" x1="294.5587" y1="1142.4113" x2="137.9758" y2="-1571.6938" gradientTransform="matrix(1 0 0 -1 0 950)">
	<stop  offset="0" style="stop-color:#22B2DA"/>
	<stop  offset="5.610000e-02" style="stop-color:#42BDDE"/>
	<stop  offset="0.1363" style="stop-color:#69CAE3"/>
	<stop  offset="0.2157" style="stop-color:#88D5E7"/>
	<stop  offset="0.293" style="stop-color:#9DDCEA"/>
	<stop  offset="0.3673" style="stop-color:#ABE0EB"/>
	<stop  offset="0.4351" style="stop-color:#AFE2EC"/>
	<stop  offset="1" style="stop-color:#EEF9FC"/>
</linearGradient>
<path class="st0" d="M520.2,65v707.2c-31-0.8-118,9.7-141.1,15.9c0,0,0,0-0.1,0C273.8,816.6,97.6,874.8,0,951L0,37.3
	C133.5-39.6,422.7,19,520.2,65z"/>
<g id="globes_x5F_blue">
	<linearGradient id="globe_x5F_blue_4_" gradientUnits="userSpaceOnUse" x1="-4.8845" y1="154.2872" x2="503.5911" y2="467.2693">
		<stop  offset="0" style="stop-color:#22B2DA"/>
		<stop  offset="5.078889e-02" style="stop-color:#34B8DC"/>
		<stop  offset="0.3988" style="stop-color:#AFE2EC"/>
		<stop  offset="1" style="stop-color:#EEF9FC"/>
	</linearGradient>
	<linearGradient id="globe_x5F_blue_7_" gradientUnits="userSpaceOnUse" x1="47.0197" y1="245.4234" x2="239.334" y2="245.4234">
		<stop  offset="0" style="stop-color:#22B2DA"/>
		<stop  offset="5.078889e-02" style="stop-color:#34B8DC"/>
		<stop  offset="0.3988" style="stop-color:#AFE2EC"/>
		<stop  offset="1" style="stop-color:#EEF9FC"/>
	</linearGradient>
	<path id="globe_x5F_blue_6_" class="st1" d="M143.2,149.4c53,0,96,43,96,96c0,10.6-1.7,21.2-5.2,31.2
		c-12.9,37.7-48.7,64.8-90.8,64.8c-53,0-96-43-96-96S90.2,149.4,143.2,149.4z"/>
	<linearGradient id="globe_x5F_blue_8_" gradientUnits="userSpaceOnUse" x1="209.6335" y1="522.5388" x2="718.1091" y2="835.5209">
		<stop  offset="0" style="stop-color:#22B2DA"/>
		<stop  offset="5.078889e-02" style="stop-color:#34B8DC"/>
		<stop  offset="0.3988" style="stop-color:#AFE2EC"/>
		<stop  offset="1" style="stop-color:#EEF9FC"/>
	</linearGradient>
	<linearGradient id="globe_x5F_blue_9_" gradientUnits="userSpaceOnUse" x1="261.5377" y1="613.675" x2="453.852" y2="613.675">
		<stop  offset="0" style="stop-color:#22B2DA"/>
		<stop  offset="5.078889e-02" style="stop-color:#34B8DC"/>
		<stop  offset="0.3988" style="stop-color:#AFE2EC"/>
		<stop  offset="1" style="stop-color:#EEF9FC"/>
	</linearGradient>
	<path id="globe_x5F_blue_5_" class="st2" d="M357.7,517.7c53,0,96,43,96,96c0,10.6-1.7,21.2-5.2,31.2
		c-12.9,37.7-48.7,64.8-90.8,64.8c-53,0-96-43-96-96S304.7,517.7,357.7,517.7z"/>
	<linearGradient id="globe_x5F_blue_10_" gradientUnits="userSpaceOnUse" x1="51.7813" y1="434.6678" x2="365.6538" y2="627.8658">
		<stop  offset="0" style="stop-color:#22B2DA"/>
		<stop  offset="5.078889e-02" style="stop-color:#34B8DC"/>
		<stop  offset="0.3988" style="stop-color:#AFE2EC"/>
		<stop  offset="1" style="stop-color:#EEF9FC"/>
	</linearGradient>
	<linearGradient id="globe_x5F_blue_11_" gradientUnits="userSpaceOnUse" x1="83.8208" y1="490.9245" x2="202.5329" y2="490.9245">
		<stop  offset="0" style="stop-color:#22B2DA"/>
		<stop  offset="5.078889e-02" style="stop-color:#34B8DC"/>
		<stop  offset="0.3988" style="stop-color:#AFE2EC"/>
		<stop  offset="1" style="stop-color:#EEF9FC"/>
	</linearGradient>
	<path id="globe_x5F_blue_3_" class="st3" d="M143.2,431.7c32.7,0,59.3,26.5,59.3,59.3c0,6.6-1.1,13.1-3.2,19.3
		c-8,23.2-30.1,40-56,40c-32.7,0-59.3-26.5-59.3-59.3S110.4,431.7,143.2,431.7z"/>
	<linearGradient id="globe_x5F_blue_12_" gradientUnits="userSpaceOnUse" x1="325.5583" y1="311.9173" x2="639.4308" y2="505.1153">
		<stop  offset="0" style="stop-color:#22B2DA"/>
		<stop  offset="5.078889e-02" style="stop-color:#34B8DC"/>
		<stop  offset="0.3988" style="stop-color:#AFE2EC"/>
		<stop  offset="1" style="stop-color:#EEF9FC"/>
	</linearGradient>
	<linearGradient id="globe_x5F_blue_13_" gradientUnits="userSpaceOnUse" x1="357.5978" y1="368.174" x2="476.3098" y2="368.174">
		<stop  offset="0" style="stop-color:#22B2DA"/>
		<stop  offset="5.078889e-02" style="stop-color:#34B8DC"/>
		<stop  offset="0.3988" style="stop-color:#AFE2EC"/>
		<stop  offset="1" style="stop-color:#EEF9FC"/>
	</linearGradient>
	<path id="globe_x5F_blue_2_" class="st4" d="M417,308.9c32.7,0,59.3,26.5,59.3,59.3c0,6.6-1.1,13.1-3.2,19.3c-8,23.2-30.1,40-56,40
		c-32.7,0-59.3-26.5-59.3-59.3S384.2,308.9,417,308.9z"/>
	<linearGradient id="globe_x5F_blue_14_" gradientUnits="userSpaceOnUse" x1="266.2993" y1="66.4162" x2="580.1718" y2="259.6142">
		<stop  offset="0" style="stop-color:#22B2DA"/>
		<stop  offset="5.078889e-02" style="stop-color:#34B8DC"/>
		<stop  offset="0.3988" style="stop-color:#AFE2EC"/>
		<stop  offset="1" style="stop-color:#EEF9FC"/>
	</linearGradient>
	<linearGradient id="globe_x5F_blue_15_" gradientUnits="userSpaceOnUse" x1="298.3388" y1="122.6729" x2="417.0508" y2="122.6729">
		<stop  offset="0" style="stop-color:#22B2DA"/>
		<stop  offset="5.078889e-02" style="stop-color:#34B8DC"/>
		<stop  offset="0.3988" style="stop-color:#AFE2EC"/>
		<stop  offset="1" style="stop-color:#EEF9FC"/>
	</linearGradient>
	<path id="globe_x5F_blue_1_" class="st5" d="M357.7,63.4c32.7,0,59.3,26.5,59.3,59.3c0,6.6-1.1,13.1-3.2,19.3
		c-8,23.2-30.1,40-56,40c-32.7,0-59.3-26.5-59.3-59.3S325,63.4,357.7,63.4z"/>
	<linearGradient id="globe_x5F_blue_16_" gradientUnits="userSpaceOnUse" x1="29.2633" y1="680.1688" x2="343.1358" y2="873.3668">
		<stop  offset="0" style="stop-color:#22B2DA"/>
		<stop  offset="5.078889e-02" style="stop-color:#34B8DC"/>
		<stop  offset="0.3988" style="stop-color:#AFE2EC"/>
		<stop  offset="1" style="stop-color:#EEF9FC"/>
	</linearGradient>
	<linearGradient id="globe_x5F_blue_17_" gradientUnits="userSpaceOnUse" x1="61.3028" y1="736.4255" x2="180.0149" y2="736.4255">
		<stop  offset="0" style="stop-color:#22B2DA"/>
		<stop  offset="5.078889e-02" style="stop-color:#34B8DC"/>
		<stop  offset="0.3988" style="stop-color:#AFE2EC"/>
		<stop  offset="1" style="stop-color:#EEF9FC"/>
	</linearGradient>
	<path id="globe_x5F_blue" class="st6" d="M120.7,677.2c32.7,0,59.3,26.5,59.3,59.3c0,6.6-1.1,13.1-3.2,19.3c-8,23.2-30.1,40-56,40
		c-32.7,0-59.3-26.5-59.3-59.3C61.4,703.7,87.9,677.2,120.7,677.2z"/>
</g>
</svg>
