<?xml version="1.0" encoding="utf-8"?>
<!-- Generator: Adobe Illustrator 24.1.3, SVG Export Plug-In . SVG Version: 6.00 Build 0)  -->
<svg version="1.1" id="Layer_1" xmlns="http://www.w3.org/2000/svg" xmlns:xlink="http://www.w3.org/1999/xlink" x="0px" y="0px"
	 viewBox="0 0 375 1080" style="enable-background:new 0 0 375 1080;" xml:space="preserve">
<style type="text/css">
	.st0{fill:url(#SVGID_1_);}
	.st1{fill:url(#SVGID_2_);}
	.st2{opacity:0.4;fill:url(#globe_x5F_blue_11_);stroke:url(#globe_x5F_blue_12_);stroke-width:0.1199;stroke-miterlimit:10;}
	.st3{opacity:0.4;fill:url(#globe_x5F_blue_13_);stroke:url(#globe_x5F_blue_14_);stroke-width:0.1199;stroke-miterlimit:10;}
	.st4{opacity:0.4;fill:url(#globe_x5F_blue_15_);stroke:url(#globe_x5F_blue_16_);stroke-width:0.1199;stroke-miterlimit:10;}
	.st5{opacity:0.4;fill:url(#globe_x5F_blue_17_);stroke:url(#globe_x5F_blue_18_);stroke-width:0.1199;stroke-miterlimit:10;}
	.st6{opacity:0.4;fill:url(#globe_x5F_blue_19_);stroke:url(#globe_x5F_blue_20_);stroke-width:7.411359e-02;stroke-miterlimit:10;}
	.st7{opacity:0.4;fill:url(#globe_x5F_blue_21_);stroke:url(#globe_x5F_blue_22_);stroke-width:7.411359e-02;stroke-miterlimit:10;}
	.st8{opacity:0.4;fill:url(#globe_x5F_blue_23_);stroke:url(#globe_x5F_blue_24_);stroke-width:7.411359e-02;stroke-miterlimit:10;}
	.st9{opacity:0.4;fill:url(#globe_x5F_blue_25_);stroke:url(#globe_x5F_blue_26_);stroke-width:7.411359e-02;stroke-miterlimit:10;}
	
		.st10{opacity:0.4;fill:url(#globe_x5F_blue_27_);stroke:url(#globe_x5F_blue_28_);stroke-width:7.411359e-02;stroke-miterlimit:10;}
	
		.st11{opacity:0.4;fill:url(#globe_x5F_blue_29_);stroke:url(#globe_x5F_blue_30_);stroke-width:7.411359e-02;stroke-miterlimit:10;}
	.st12{opacity:0.4;fill:url(#globe_x5F_red_7_);}
	.st13{opacity:0.4;fill:url(#globe_x5F_red_10_);}
	.st14{opacity:0.4;fill:url(#globe_x5F_red_11_);}
	.st15{opacity:0.4;fill:url(#globe_x5F_red_12_);}
	.st16{opacity:0.4;fill:url(#globe_x5F_red_13_);}
	.st17{opacity:0.4;fill:url(#globe_x5F_red_14_);}
	.st18{opacity:0.4;fill:url(#globe_x5F_red_15_);}
	.st19{opacity:0.4;fill:url(#globe_x5F_red_16_);}
</style>
<linearGradient id="SVGID_1_" gradientUnits="userSpaceOnUse" x1="-3786.0359" y1="-2088.6348" x2="-3786.0359" y2="-2088.3347" gradientTransform="matrix(1920.1023 0 0 3469.9954 7269763.5 7247484)">
	<stop  offset="0" style="stop-color:#AFE2EC"/>
	<stop  offset="1" style="stop-color:#EEF9FC"/>
</linearGradient>
<path class="st0" d="M0,48c0-64,375-64,375,0v1032H0V48z"/>
<linearGradient id="SVGID_2_" gradientUnits="userSpaceOnUse" x1="-3785.8386" y1="-2089.0991" x2="-3786.1387" y2="-2088.8992" gradientTransform="matrix(1925.0815 0 0 2465.5713 7288624 5151336.5)">
	<stop  offset="0" style="stop-color:#DA4A22"/>
	<stop  offset="0.5" style="stop-color:#FF7650"/>
	<stop  offset="1" style="stop-color:#FFBDAA"/>
</linearGradient>
<path class="st1" d="M0,1054c0-185,135-194,205-332c64-122,39-444,170-384v742H0V1054z"/>
<g id="globes_x5F_blue">
	<linearGradient id="globe_x5F_blue_11_" gradientUnits="userSpaceOnUse" x1="81.9433" y1="646.9361" x2="275.9315" y2="766.3417">
		<stop  offset="0" style="stop-color:#22B2DA"/>
		<stop  offset="5.078889e-02" style="stop-color:#34B8DC"/>
		<stop  offset="0.3988" style="stop-color:#AFE2EC"/>
		<stop  offset="1" style="stop-color:#EEF9FC"/>
	</linearGradient>
	<linearGradient id="globe_x5F_blue_12_" gradientUnits="userSpaceOnUse" x1="101.7452" y1="681.7054" x2="175.1149" y2="681.7054">
		<stop  offset="0" style="stop-color:#22B2DA"/>
		<stop  offset="5.078889e-02" style="stop-color:#34B8DC"/>
		<stop  offset="0.3988" style="stop-color:#AFE2EC"/>
		<stop  offset="1" style="stop-color:#EEF9FC"/>
	</linearGradient>
	<path id="globe_x5F_blue_3_" class="st2" d="M138.4,645.1c20.2,0,36.6,16.4,36.6,36.6c0,4.1-0.7,8.1-2,11.9
		c-4.9,14.4-18.6,24.7-34.6,24.7c-20.2,0-36.6-16.4-36.6-36.6C101.8,661.5,118.2,645.1,138.4,645.1z"/>
	<linearGradient id="globe_x5F_blue_13_" gradientUnits="userSpaceOnUse" x1="153.6491" y1="424.6937" x2="347.6373" y2="544.0993">
		<stop  offset="0" style="stop-color:#22B2DA"/>
		<stop  offset="5.078889e-02" style="stop-color:#34B8DC"/>
		<stop  offset="0.3988" style="stop-color:#AFE2EC"/>
		<stop  offset="1" style="stop-color:#EEF9FC"/>
	</linearGradient>
	<linearGradient id="globe_x5F_blue_14_" gradientUnits="userSpaceOnUse" x1="173.451" y1="459.463" x2="246.8208" y2="459.463">
		<stop  offset="0" style="stop-color:#22B2DA"/>
		<stop  offset="5.078889e-02" style="stop-color:#34B8DC"/>
		<stop  offset="0.3988" style="stop-color:#AFE2EC"/>
		<stop  offset="1" style="stop-color:#EEF9FC"/>
	</linearGradient>
	<path id="globe_x5F_blue_4_" class="st3" d="M210.1,422.8c20.2,0,36.6,16.4,36.6,36.6c0,4.1-0.7,8.1-2,11.9
		c-4.9,14.4-18.6,24.7-34.6,24.7c-20.2,0-36.6-16.4-36.6-36.6C173.5,439.2,189.9,422.8,210.1,422.8z"/>
	<linearGradient id="globe_x5F_blue_15_" gradientUnits="userSpaceOnUse" x1="8.6935" y1="174.9916" x2="202.6817" y2="294.3972">
		<stop  offset="0" style="stop-color:#22B2DA"/>
		<stop  offset="5.078889e-02" style="stop-color:#34B8DC"/>
		<stop  offset="0.3988" style="stop-color:#AFE2EC"/>
		<stop  offset="1" style="stop-color:#EEF9FC"/>
	</linearGradient>
	<linearGradient id="globe_x5F_blue_16_" gradientUnits="userSpaceOnUse" x1="28.4954" y1="209.7609" x2="101.8651" y2="209.7609">
		<stop  offset="0" style="stop-color:#22B2DA"/>
		<stop  offset="5.078889e-02" style="stop-color:#34B8DC"/>
		<stop  offset="0.3988" style="stop-color:#AFE2EC"/>
		<stop  offset="1" style="stop-color:#EEF9FC"/>
	</linearGradient>
	<path id="globe_x5F_blue_6_" class="st4" d="M65.2,173.1c20.2,0,36.6,16.4,36.6,36.6c0,4.1-0.7,8.1-2,11.9
		c-4.9,14.4-18.6,24.7-34.6,24.7c-20.2,0-36.6-16.4-36.6-36.6S45,173.1,65.2,173.1z"/>
	<linearGradient id="globe_x5F_blue_17_" gradientUnits="userSpaceOnUse" x1="268.1011" y1="204.2816" x2="462.0893" y2="323.6872">
		<stop  offset="0" style="stop-color:#22B2DA"/>
		<stop  offset="5.078889e-02" style="stop-color:#34B8DC"/>
		<stop  offset="0.3988" style="stop-color:#AFE2EC"/>
		<stop  offset="1" style="stop-color:#EEF9FC"/>
	</linearGradient>
	<linearGradient id="globe_x5F_blue_18_" gradientUnits="userSpaceOnUse" x1="287.903" y1="239.0509" x2="361.2727" y2="239.0509">
		<stop  offset="0" style="stop-color:#22B2DA"/>
		<stop  offset="5.078889e-02" style="stop-color:#34B8DC"/>
		<stop  offset="0.3988" style="stop-color:#AFE2EC"/>
		<stop  offset="1" style="stop-color:#EEF9FC"/>
	</linearGradient>
	<path id="globe_x5F_blue_2_" class="st5" d="M324.6,202.4c20.2,0,36.6,16.4,36.6,36.6c0,4.1-0.7,8.1-2,11.9
		c-4.9,14.4-18.6,24.7-34.6,24.7c-20.2,0-36.6-16.4-36.6-36.6S304.4,202.4,324.6,202.4z"/>
	<linearGradient id="globe_x5F_blue_19_" gradientUnits="userSpaceOnUse" x1="108.0739" y1="302.8172" x2="227.9677" y2="376.6155">
		<stop  offset="0" style="stop-color:#22B2DA"/>
		<stop  offset="5.078889e-02" style="stop-color:#34B8DC"/>
		<stop  offset="0.3988" style="stop-color:#AFE2EC"/>
		<stop  offset="1" style="stop-color:#EEF9FC"/>
	</linearGradient>
	<linearGradient id="globe_x5F_blue_20_" gradientUnits="userSpaceOnUse" x1="120.3124" y1="324.3063" x2="165.6584" y2="324.3063">
		<stop  offset="0" style="stop-color:#22B2DA"/>
		<stop  offset="5.078889e-02" style="stop-color:#34B8DC"/>
		<stop  offset="0.3988" style="stop-color:#AFE2EC"/>
		<stop  offset="1" style="stop-color:#EEF9FC"/>
	</linearGradient>
	<path id="globe_x5F_blue_5_" class="st6" d="M143,301.7c12.5,0,22.6,10.1,22.6,22.6c0,2.5-0.4,5-1.2,7.4
		c-3,8.9-11.5,15.3-21.4,15.3c-12.5,0-22.6-10.1-22.6-22.6S130.5,301.7,143,301.7z"/>
	<linearGradient id="globe_x5F_blue_21_" gradientUnits="userSpaceOnUse" x1="75.5406" y1="23.6336" x2="195.4344" y2="97.4319">
		<stop  offset="0" style="stop-color:#22B2DA"/>
		<stop  offset="5.078889e-02" style="stop-color:#34B8DC"/>
		<stop  offset="0.3988" style="stop-color:#AFE2EC"/>
		<stop  offset="1" style="stop-color:#EEF9FC"/>
	</linearGradient>
	<linearGradient id="globe_x5F_blue_22_" gradientUnits="userSpaceOnUse" x1="87.7791" y1="45.1227" x2="133.125" y2="45.1227">
		<stop  offset="0" style="stop-color:#22B2DA"/>
		<stop  offset="5.078889e-02" style="stop-color:#34B8DC"/>
		<stop  offset="0.3988" style="stop-color:#AFE2EC"/>
		<stop  offset="1" style="stop-color:#EEF9FC"/>
	</linearGradient>
	<path id="globe_x5F_blue_10_" class="st7" d="M110.5,22.5c12.5,0,22.6,10.1,22.6,22.6c0,2.5-0.4,5-1.2,7.4
		c-3,8.9-11.5,15.3-21.4,15.3c-12.5,0-22.6-10.1-22.6-22.6S98,22.5,110.5,22.5z"/>
	<linearGradient id="globe_x5F_blue_23_" gradientUnits="userSpaceOnUse" x1="303.6654" y1="61.5887" x2="423.5592" y2="135.3869">
		<stop  offset="0" style="stop-color:#22B2DA"/>
		<stop  offset="5.078889e-02" style="stop-color:#34B8DC"/>
		<stop  offset="0.3988" style="stop-color:#AFE2EC"/>
		<stop  offset="1" style="stop-color:#EEF9FC"/>
	</linearGradient>
	<linearGradient id="globe_x5F_blue_24_" gradientUnits="userSpaceOnUse" x1="315.9039" y1="83.0777" x2="361.2498" y2="83.0777">
		<stop  offset="0" style="stop-color:#22B2DA"/>
		<stop  offset="5.078889e-02" style="stop-color:#34B8DC"/>
		<stop  offset="0.3988" style="stop-color:#AFE2EC"/>
		<stop  offset="1" style="stop-color:#EEF9FC"/>
	</linearGradient>
	<path id="globe_x5F_blue_9_" class="st8" d="M338.6,60.4c12.5,0,22.6,10.1,22.6,22.6c0,2.5-0.4,5-1.2,7.4
		c-3,8.9-11.5,15.3-21.4,15.3c-12.5,0-22.6-10.1-22.6-22.6S326.1,60.4,338.6,60.4z"/>
	<linearGradient id="globe_x5F_blue_25_" gradientUnits="userSpaceOnUse" x1="16.2798" y1="811.6002" x2="136.1736" y2="885.3985">
		<stop  offset="0" style="stop-color:#22B2DA"/>
		<stop  offset="5.078889e-02" style="stop-color:#34B8DC"/>
		<stop  offset="0.3988" style="stop-color:#AFE2EC"/>
		<stop  offset="1" style="stop-color:#EEF9FC"/>
	</linearGradient>
	<linearGradient id="globe_x5F_blue_26_" gradientUnits="userSpaceOnUse" x1="28.5183" y1="833.0893" x2="73.8642" y2="833.0893">
		<stop  offset="0" style="stop-color:#22B2DA"/>
		<stop  offset="5.078889e-02" style="stop-color:#34B8DC"/>
		<stop  offset="0.3988" style="stop-color:#AFE2EC"/>
		<stop  offset="1" style="stop-color:#EEF9FC"/>
	</linearGradient>
	<path id="globe_x5F_blue_7_" class="st9" d="M51.2,810.5c12.5,0,22.6,10.1,22.6,22.6c0,2.5-0.4,5-1.2,7.4
		c-3,8.9-11.5,15.3-21.4,15.3c-12.5,0-22.6-10.1-22.6-22.6S38.7,810.5,51.2,810.5z"/>
	<linearGradient id="globe_x5F_blue_27_" gradientUnits="userSpaceOnUse" x1="38.9157" y1="474.5988" x2="158.8095" y2="548.3971">
		<stop  offset="0" style="stop-color:#22B2DA"/>
		<stop  offset="5.078889e-02" style="stop-color:#34B8DC"/>
		<stop  offset="0.3988" style="stop-color:#AFE2EC"/>
		<stop  offset="1" style="stop-color:#EEF9FC"/>
	</linearGradient>
	<linearGradient id="globe_x5F_blue_28_" gradientUnits="userSpaceOnUse" x1="51.1542" y1="496.0879" x2="96.5001" y2="496.0879">
		<stop  offset="0" style="stop-color:#22B2DA"/>
		<stop  offset="5.078889e-02" style="stop-color:#34B8DC"/>
		<stop  offset="0.3988" style="stop-color:#AFE2EC"/>
		<stop  offset="1" style="stop-color:#EEF9FC"/>
	</linearGradient>
	<path id="globe_x5F_blue_8_" class="st10" d="M73.8,473.5c12.5,0,22.6,10.1,22.6,22.6c0,2.5-0.4,5-1.2,7.4
		c-3,8.9-11.5,15.3-21.4,15.3c-12.5,0-22.6-10.1-22.6-22.6S61.3,473.5,73.8,473.5z"/>
	<linearGradient id="globe_x5F_blue_29_" gradientUnits="userSpaceOnUse" x1="161.2354" y1="151.6469" x2="281.1292" y2="225.4452">
		<stop  offset="0" style="stop-color:#22B2DA"/>
		<stop  offset="5.078889e-02" style="stop-color:#34B8DC"/>
		<stop  offset="0.3988" style="stop-color:#AFE2EC"/>
		<stop  offset="1" style="stop-color:#EEF9FC"/>
	</linearGradient>
	<linearGradient id="globe_x5F_blue_30_" gradientUnits="userSpaceOnUse" x1="173.474" y1="173.136" x2="218.8199" y2="173.136">
		<stop  offset="0" style="stop-color:#22B2DA"/>
		<stop  offset="5.078889e-02" style="stop-color:#34B8DC"/>
		<stop  offset="0.3988" style="stop-color:#AFE2EC"/>
		<stop  offset="1" style="stop-color:#EEF9FC"/>
	</linearGradient>
	<path id="globe_x5F_blue_1_" class="st11" d="M196.1,150.5c12.5,0,22.6,10.1,22.6,22.6c0,2.5-0.4,5-1.2,7.4
		c-3,8.9-11.5,15.3-21.4,15.3c-12.5,0-22.6-10.1-22.6-22.6C173.5,160.6,183.6,150.5,196.1,150.5z"/>
</g>
<g id="globes_x5F_red">
	<linearGradient id="globe_x5F_red_7_" gradientUnits="userSpaceOnUse" x1="261.4804" y1="532.3283" x2="376.1098" y2="612.7893">
		<stop  offset="0" style="stop-color:#DA4A22"/>
		<stop  offset="0.3272" style="stop-color:#EC5B33"/>
		<stop  offset="1" style="stop-color:#FFBDAA"/>
	</linearGradient>
	<path id="globe_x5F_red_8_" class="st12" d="M324.6,540c20.2,0,36.6,16.4,36.6,36.6c0,4.1-0.7,8.1-2,11.9
		c-4.9,14.4-18.6,24.7-34.6,24.7c-20.2,0-36.6-16.4-36.6-36.6S304.4,540,324.6,540z"/>
	<linearGradient id="globe_x5F_red_10_" gradientUnits="userSpaceOnUse" x1="247.0594" y1="843.5062" x2="361.6888" y2="923.9672">
		<stop  offset="0" style="stop-color:#DA4A22"/>
		<stop  offset="0.3272" style="stop-color:#EC5B33"/>
		<stop  offset="1" style="stop-color:#FFBDAA"/>
	</linearGradient>
	<path id="globe_x5F_red_3_" class="st13" d="M310.2,851.2c20.2,0,36.6,16.4,36.6,36.6c0,4.1-0.7,8.1-2,11.9
		c-4.9,14.4-18.6,24.7-34.6,24.7c-20.2,0-36.6-16.4-36.6-36.6S289.9,851.2,310.2,851.2z"/>
	<linearGradient id="globe_x5F_red_11_" gradientUnits="userSpaceOnUse" x1="10.7197" y1="960.5281" x2="125.3491" y2="1040.9891">
		<stop  offset="0" style="stop-color:#DA4A22"/>
		<stop  offset="0.3272" style="stop-color:#EC5B33"/>
		<stop  offset="1" style="stop-color:#FFBDAA"/>
	</linearGradient>
	<path id="globe_x5F_red_1_" class="st14" d="M73.8,968.2c20.2,0,36.6,16.4,36.6,36.6c0,4.1-0.7,8.1-2,11.9
		c-4.9,14.4-18.6,24.7-34.6,24.7c-20.2,0-36.6-16.4-36.6-36.6C37.2,984.6,53.6,968.2,73.8,968.2z"/>
	<linearGradient id="globe_x5F_red_12_" gradientUnits="userSpaceOnUse" x1="303.5245" y1="381.6641" x2="374.3708" y2="431.3928">
		<stop  offset="0" style="stop-color:#DA4A22"/>
		<stop  offset="0.3272" style="stop-color:#EC5B33"/>
		<stop  offset="1" style="stop-color:#FFBDAA"/>
	</linearGradient>
	<path id="globe_x5F_red_9_" class="st15" d="M342.5,386.4c12.5,0,22.6,10.1,22.6,22.6c0,2.5-0.4,5-1.2,7.4
		c-3,8.9-11.5,15.3-21.4,15.3c-12.5,0-22.6-10.1-22.6-22.6S330,386.4,342.5,386.4z"/>
	
		<linearGradient id="globe_x5F_red_13_" gradientUnits="userSpaceOnUse" x1="276.9376" y1="1022.7192" x2="347.7839" y2="1072.4479">
		<stop  offset="0" style="stop-color:#DA4A22"/>
		<stop  offset="0.3272" style="stop-color:#EC5B33"/>
		<stop  offset="1" style="stop-color:#FFBDAA"/>
	</linearGradient>
	<path id="globe_x5F_red_5_" class="st16" d="M315.9,1027.5c12.5,0,22.6,10.1,22.6,22.6c0,2.5-0.4,5-1.2,7.4
		c-3,8.9-11.5,15.3-21.4,15.3c-12.5,0-22.6-10.1-22.6-22.6S303.4,1027.5,315.9,1027.5z"/>
	<linearGradient id="globe_x5F_red_14_" gradientUnits="userSpaceOnUse" x1="193.7684" y1="963.4584" x2="264.6148" y2="1013.1871">
		<stop  offset="0" style="stop-color:#DA4A22"/>
		<stop  offset="0.3272" style="stop-color:#EC5B33"/>
		<stop  offset="1" style="stop-color:#FFBDAA"/>
	</linearGradient>
	<path id="globe_x5F_red_6_" class="st17" d="M232.8,968.2c12.5,0,22.6,10.1,22.6,22.6c0,2.5-0.4,5-1.2,7.4
		c-3,8.9-11.5,15.3-21.4,15.3c-12.5,0-22.6-10.1-22.6-22.6S220.3,968.2,232.8,968.2z"/>
	<linearGradient id="globe_x5F_red_15_" gradientUnits="userSpaceOnUse" x1="271.1635" y1="690.9529" x2="342.0099" y2="740.6816">
		<stop  offset="0" style="stop-color:#DA4A22"/>
		<stop  offset="0.3272" style="stop-color:#EC5B33"/>
		<stop  offset="1" style="stop-color:#FFBDAA"/>
	</linearGradient>
	<path id="globe_x5F_red_4_" class="st18" d="M310.2,695.7c12.5,0,22.6,10.1,22.6,22.6c0,2.5-0.4,5-1.2,7.4
		c-3,8.9-11.5,15.3-21.4,15.3c-12.5,0-22.6-10.1-22.6-22.6C287.5,705.8,297.7,695.7,310.2,695.7z"/>
	<linearGradient id="globe_x5F_red_16_" gradientUnits="userSpaceOnUse" x1="148.4966" y1="846.4364" x2="219.343" y2="896.165">
		<stop  offset="0" style="stop-color:#DA4A22"/>
		<stop  offset="0.3272" style="stop-color:#EC5B33"/>
		<stop  offset="1" style="stop-color:#FFBDAA"/>
	</linearGradient>
	<path id="globe_x5F_red_2_" class="st19" d="M187.5,851.2c12.5,0,22.6,10.1,22.6,22.6c0,2.5-0.4,5-1.2,7.4
		c-3,8.9-11.5,15.3-21.4,15.3c-12.5,0-22.6-10.1-22.6-22.6S175,851.2,187.5,851.2z"/>
</g>
</svg>
