<?xml version="1.0" encoding="utf-8"?>
<!-- Generator: Adobe Illustrator 24.1.3, SVG Export Plug-In . SVG Version: 6.00 Build 0)  -->
<svg version="1.1" id="Layer_1" xmlns="http://www.w3.org/2000/svg" xmlns:xlink="http://www.w3.org/1999/xlink" x="0px" y="0px"
	 viewBox="0 0 1371 1962" style="enable-background:new 0 0 1371 1962;" xml:space="preserve">
<style type="text/css">
	.st0{fill:url(#SVGID_1_);}
	.st1{fill:url(#SVGID_2_);}
	.st2{opacity:0.4;fill:url(#globe_x5F_blue_9_);stroke:url(#globe_x5F_blue_10_);stroke-width:0.3143;stroke-miterlimit:10;}
	.st3{opacity:0.4;fill:url(#globe_x5F_blue_11_);stroke:url(#globe_x5F_blue_12_);stroke-width:0.3143;stroke-miterlimit:10;}
	.st4{opacity:0.4;fill:url(#globe_x5F_blue_13_);stroke:url(#globe_x5F_blue_14_);stroke-width:0.3143;stroke-miterlimit:10;}
	.st5{opacity:0.4;fill:url(#globe_x5F_blue_15_);stroke:url(#globe_x5F_blue_16_);stroke-width:0.3143;stroke-miterlimit:10;}
	.st6{opacity:0.4;fill:url(#globe_x5F_blue_17_);stroke:url(#globe_x5F_blue_18_);stroke-width:0.194;stroke-miterlimit:10;}
	.st7{opacity:0.4;fill:url(#globe_x5F_blue_19_);stroke:url(#globe_x5F_blue_20_);stroke-width:0.194;stroke-miterlimit:10;}
	.st8{opacity:0.4;fill:url(#globe_x5F_blue_21_);stroke:url(#globe_x5F_blue_22_);stroke-width:0.194;stroke-miterlimit:10;}
	.st9{opacity:0.4;fill:url(#globe_x5F_blue_23_);stroke:url(#globe_x5F_blue_24_);stroke-width:0.194;stroke-miterlimit:10;}
	.st10{opacity:0.4;fill:url(#globe_x5F_blue_25_);stroke:url(#globe_x5F_blue_26_);stroke-width:0.194;stroke-miterlimit:10;}
	.st11{opacity:0.4;fill:url(#globe_x5F_red_2_);}
	.st12{opacity:0.4;fill:url(#globe_x5F_red_4_);}
	.st13{opacity:0.4;fill:url(#globe_x5F_red_10_);}
	.st14{opacity:0.4;fill:url(#globe_x5F_red_11_);}
	.st15{opacity:0.4;fill:url(#globe_x5F_red_12_);}
	.st16{opacity:0.4;fill:url(#globe_x5F_red_13_);}
	.st17{opacity:0.4;fill:url(#globe_x5F_red_14_);}
	.st18{opacity:0.4;fill:url(#globe_x5F_red_15_);}
</style>
<linearGradient id="SVGID_1_" gradientUnits="userSpaceOnUse" x1="-1455.7329" y1="1405.338" x2="-1455.7329" y2="1405.9381" gradientTransform="matrix(1920.1023 0 0 3469.9954 2795841.75 -4876694)">
	<stop  offset="0" style="stop-color:#AFE2EC"/>
	<stop  offset="1" style="stop-color:#EEF9FC"/>
</linearGradient>
<path class="st0" d="M0,87C0-29,1370-28,1370,87l1,1875H1L0,87z"/>
<linearGradient id="SVGID_2_" gradientUnits="userSpaceOnUse" x1="-1455.2905" y1="1405.3317" x2="-1455.9905" y2="1406.0317" gradientTransform="matrix(1925.0815 0 0 2465.5713 2803094.25 -3464136.5)">
	<stop  offset="0" style="stop-color:#DA4A22"/>
	<stop  offset="0.5" style="stop-color:#FF7650"/>
	<stop  offset="1" style="stop-color:#FFBDAA"/>
</linearGradient>
<path class="st1" d="M0,1895c0-244,556-136,905-550c240-258,251-1003,466-897l-1,1514H0V1895z"/>
<g id="globes_x5F_blue">
	<linearGradient id="globe_x5F_blue_9_" gradientUnits="userSpaceOnUse" x1="66.2468" y1="185.4451" x2="574.7224" y2="498.4272">
		<stop  offset="0" style="stop-color:#22B2DA"/>
		<stop  offset="5.078889e-02" style="stop-color:#34B8DC"/>
		<stop  offset="0.3988" style="stop-color:#AFE2EC"/>
		<stop  offset="1" style="stop-color:#EEF9FC"/>
	</linearGradient>
	<linearGradient id="globe_x5F_blue_10_" gradientUnits="userSpaceOnUse" x1="118.151" y1="276.5813" x2="310.4654" y2="276.5813">
		<stop  offset="0" style="stop-color:#22B2DA"/>
		<stop  offset="5.078889e-02" style="stop-color:#34B8DC"/>
		<stop  offset="0.3988" style="stop-color:#AFE2EC"/>
		<stop  offset="1" style="stop-color:#EEF9FC"/>
	</linearGradient>
	<path id="globe_x5F_blue_6_" class="st2" d="M214.3,180.6c53,0,96,43,96,96c0,10.6-1.7,21.2-5.2,31.2
		c-12.9,37.7-48.7,64.8-90.8,64.8c-53,0-96-43-96-96S161.3,180.6,214.3,180.6z"/>
	
		<linearGradient id="globe_x5F_blue_11_" gradientUnits="userSpaceOnUse" x1="565.8963" y1="537.6857" x2="1074.3719" y2="850.6678">
		<stop  offset="0" style="stop-color:#22B2DA"/>
		<stop  offset="5.078889e-02" style="stop-color:#34B8DC"/>
		<stop  offset="0.3988" style="stop-color:#AFE2EC"/>
		<stop  offset="1" style="stop-color:#EEF9FC"/>
	</linearGradient>
	<linearGradient id="globe_x5F_blue_12_" gradientUnits="userSpaceOnUse" x1="617.8005" y1="628.8219" x2="810.1149" y2="628.8219">
		<stop  offset="0" style="stop-color:#22B2DA"/>
		<stop  offset="5.078889e-02" style="stop-color:#34B8DC"/>
		<stop  offset="0.3988" style="stop-color:#AFE2EC"/>
		<stop  offset="1" style="stop-color:#EEF9FC"/>
	</linearGradient>
	<path id="globe_x5F_blue_5_" class="st3" d="M714,532.8c53,0,96,43,96,96c0,10.6-1.7,21.2-5.2,31.2c-12.9,37.7-48.7,64.8-90.8,64.8
		c-53,0-96-43-96-96C618,575.8,660.9,532.8,714,532.8z"/>
	<linearGradient id="globe_x5F_blue_13_" gradientUnits="userSpaceOnUse" x1="1034.442" y1="225.2748" x2="1542.9176" y2="538.257">
		<stop  offset="0" style="stop-color:#22B2DA"/>
		<stop  offset="5.078889e-02" style="stop-color:#34B8DC"/>
		<stop  offset="0.3988" style="stop-color:#AFE2EC"/>
		<stop  offset="1" style="stop-color:#EEF9FC"/>
	</linearGradient>
	
		<linearGradient id="globe_x5F_blue_14_" gradientUnits="userSpaceOnUse" x1="1086.3462" y1="316.4111" x2="1278.6605" y2="316.4111">
		<stop  offset="0" style="stop-color:#22B2DA"/>
		<stop  offset="5.078889e-02" style="stop-color:#34B8DC"/>
		<stop  offset="0.3988" style="stop-color:#AFE2EC"/>
		<stop  offset="1" style="stop-color:#EEF9FC"/>
	</linearGradient>
	<path id="globe_x5F_blue_4_" class="st4" d="M1182.5,220.4c53,0,96,43,96,96c0,10.6-1.7,21.2-5.2,31.2
		c-12.9,37.7-48.7,64.8-90.8,64.8c-53,0-96-43-96-96S1129.5,220.4,1182.5,220.4z"/>
	
		<linearGradient id="globe_x5F_blue_15_" gradientUnits="userSpaceOnUse" x1="66.2468" y1="1383.3525" x2="574.7224" y2="1696.3347">
		<stop  offset="0" style="stop-color:#22B2DA"/>
		<stop  offset="5.078889e-02" style="stop-color:#34B8DC"/>
		<stop  offset="0.3988" style="stop-color:#AFE2EC"/>
		<stop  offset="1" style="stop-color:#EEF9FC"/>
	</linearGradient>
	
		<linearGradient id="globe_x5F_blue_16_" gradientUnits="userSpaceOnUse" x1="118.151" y1="1474.4889" x2="310.4654" y2="1474.4889">
		<stop  offset="0" style="stop-color:#22B2DA"/>
		<stop  offset="5.078889e-02" style="stop-color:#34B8DC"/>
		<stop  offset="0.3988" style="stop-color:#AFE2EC"/>
		<stop  offset="1" style="stop-color:#EEF9FC"/>
	</linearGradient>
	<path id="globe_x5F_blue_7_" class="st5" d="M214.3,1378.5c53,0,96,43,96,96c0,10.6-1.7,21.2-5.2,31.2
		c-12.9,37.7-48.7,64.8-90.8,64.8c-53,0-96-43-96-96S161.3,1378.5,214.3,1378.5z"/>
	<linearGradient id="globe_x5F_blue_17_" gradientUnits="userSpaceOnUse" x1="122.9127" y1="685.902" x2="436.7851" y2="879.1">
		<stop  offset="0" style="stop-color:#22B2DA"/>
		<stop  offset="5.078889e-02" style="stop-color:#34B8DC"/>
		<stop  offset="0.3988" style="stop-color:#AFE2EC"/>
		<stop  offset="1" style="stop-color:#EEF9FC"/>
	</linearGradient>
	<linearGradient id="globe_x5F_blue_18_" gradientUnits="userSpaceOnUse" x1="154.9522" y1="742.1587" x2="273.6642" y2="742.1587">
		<stop  offset="0" style="stop-color:#22B2DA"/>
		<stop  offset="5.078889e-02" style="stop-color:#34B8DC"/>
		<stop  offset="0.3988" style="stop-color:#AFE2EC"/>
		<stop  offset="1" style="stop-color:#EEF9FC"/>
	</linearGradient>
	<path id="globe_x5F_blue_3_" class="st6" d="M214.3,682.9c32.7,0,59.3,26.5,59.3,59.3c0,6.6-1.1,13.1-3.2,19.3
		c-8,23.2-30.1,40-56,40c-32.7,0-59.3-26.5-59.3-59.3S181.6,682.9,214.3,682.9z"/>
	
		<linearGradient id="globe_x5F_blue_19_" gradientUnits="userSpaceOnUse" x1="837.0802" y1="941.6948" x2="1150.9526" y2="1134.8928">
		<stop  offset="0" style="stop-color:#22B2DA"/>
		<stop  offset="5.078889e-02" style="stop-color:#34B8DC"/>
		<stop  offset="0.3988" style="stop-color:#AFE2EC"/>
		<stop  offset="1" style="stop-color:#EEF9FC"/>
	</linearGradient>
	<linearGradient id="globe_x5F_blue_20_" gradientUnits="userSpaceOnUse" x1="869.1197" y1="997.9515" x2="987.8317" y2="997.9515">
		<stop  offset="0" style="stop-color:#22B2DA"/>
		<stop  offset="5.078889e-02" style="stop-color:#34B8DC"/>
		<stop  offset="0.3988" style="stop-color:#AFE2EC"/>
		<stop  offset="1" style="stop-color:#EEF9FC"/>
	</linearGradient>
	<path id="globe_x5F_blue_2_" class="st7" d="M928.5,938.7c32.7,0,59.3,26.5,59.3,59.3c0,6.6-1.1,13.1-3.2,19.3
		c-8,23.2-30.1,40-56,40c-32.7,0-59.3-26.5-59.3-59.3C869.2,965.2,895.7,938.7,928.5,938.7z"/>
	<linearGradient id="globe_x5F_blue_21_" gradientUnits="userSpaceOnUse" x1="652.0371" y1="121.6453" x2="965.9095" y2="314.8434">
		<stop  offset="0" style="stop-color:#22B2DA"/>
		<stop  offset="5.078889e-02" style="stop-color:#34B8DC"/>
		<stop  offset="0.3988" style="stop-color:#AFE2EC"/>
		<stop  offset="1" style="stop-color:#EEF9FC"/>
	</linearGradient>
	<linearGradient id="globe_x5F_blue_22_" gradientUnits="userSpaceOnUse" x1="684.0766" y1="177.9021" x2="802.7886" y2="177.9021">
		<stop  offset="0" style="stop-color:#22B2DA"/>
		<stop  offset="5.078889e-02" style="stop-color:#34B8DC"/>
		<stop  offset="0.3988" style="stop-color:#AFE2EC"/>
		<stop  offset="1" style="stop-color:#EEF9FC"/>
	</linearGradient>
	<path id="globe_x5F_blue_1_" class="st8" d="M743.4,118.6c32.7,0,59.3,26.5,59.3,59.3c0,6.6-1.1,13.1-3.2,19.3
		c-8,23.2-30.1,40-56,40c-32.7,0-59.3-26.5-59.3-59.3S710.7,118.6,743.4,118.6z"/>
	
		<linearGradient id="globe_x5F_blue_23_" gradientUnits="userSpaceOnUse" x1="291.8914" y1="1000.9538" x2="605.7638" y2="1194.1519">
		<stop  offset="0" style="stop-color:#22B2DA"/>
		<stop  offset="5.078889e-02" style="stop-color:#34B8DC"/>
		<stop  offset="0.3988" style="stop-color:#AFE2EC"/>
		<stop  offset="1" style="stop-color:#EEF9FC"/>
	</linearGradient>
	
		<linearGradient id="globe_x5F_blue_24_" gradientUnits="userSpaceOnUse" x1="323.9308" y1="1057.2106" x2="442.6429" y2="1057.2106">
		<stop  offset="0" style="stop-color:#22B2DA"/>
		<stop  offset="5.078889e-02" style="stop-color:#34B8DC"/>
		<stop  offset="0.3988" style="stop-color:#AFE2EC"/>
		<stop  offset="1" style="stop-color:#EEF9FC"/>
	</linearGradient>
	<path id="globe_x5F_blue" class="st9" d="M383.3,998c32.7,0,59.3,26.5,59.3,59.3c0,6.6-1.1,13.1-3.2,19.3c-8,23.2-30.1,40-56,40
		c-32.7,0-59.3-26.5-59.3-59.3C324,1024.5,350.6,998,383.3,998z"/>
	
		<linearGradient id="globe_x5F_blue_25_" gradientUnits="userSpaceOnUse" x1="563.3032" y1="1299.7391" x2="877.1756" y2="1492.9371">
		<stop  offset="0" style="stop-color:#22B2DA"/>
		<stop  offset="5.078889e-02" style="stop-color:#34B8DC"/>
		<stop  offset="0.3988" style="stop-color:#AFE2EC"/>
		<stop  offset="1" style="stop-color:#EEF9FC"/>
	</linearGradient>
	
		<linearGradient id="globe_x5F_blue_26_" gradientUnits="userSpaceOnUse" x1="595.3427" y1="1355.9958" x2="714.0547" y2="1355.9958">
		<stop  offset="0" style="stop-color:#22B2DA"/>
		<stop  offset="5.078889e-02" style="stop-color:#34B8DC"/>
		<stop  offset="0.3988" style="stop-color:#AFE2EC"/>
		<stop  offset="1" style="stop-color:#EEF9FC"/>
	</linearGradient>
	<path id="globe_x5F_blue_8_" class="st10" d="M654.7,1296.7c32.7,0,59.3,26.5,59.3,59.3c0,6.6-1.1,13.1-3.2,19.3
		c-8,23.2-30.1,40-56,40c-32.7,0-59.3-26.5-59.3-59.3C595.4,1323.3,622,1296.7,654.7,1296.7z"/>
</g>
<g id="globes_x5F_red">
	<linearGradient id="globe_x5F_red_2_" gradientUnits="userSpaceOnUse" x1="1183.5154" y1="611.2279" x2="1368.9855" y2="741.4136">
		<stop  offset="0" style="stop-color:#DA4A22"/>
		<stop  offset="0.3272" style="stop-color:#EC5B33"/>
		<stop  offset="1" style="stop-color:#FFBDAA"/>
	</linearGradient>
	<path id="globe_x5F_red_8_" class="st11" d="M1285.6,623.6c32.7,0,59.3,26.5,59.3,59.3c0,6.6-1.1,13.1-3.2,19.3
		c-8,23.2-30.1,40-56,40c-32.7,0-59.3-26.5-59.3-59.3C1226.4,650.2,1252.9,623.6,1285.6,623.6z"/>
	<linearGradient id="globe_x5F_red_4_" gradientUnits="userSpaceOnUse" x1="720.6498" y1="1789.3951" x2="906.1199" y2="1919.5808">
		<stop  offset="0" style="stop-color:#DA4A22"/>
		<stop  offset="0.3272" style="stop-color:#EC5B33"/>
		<stop  offset="1" style="stop-color:#FFBDAA"/>
	</linearGradient>
	<path id="globe_x5F_red_7_" class="st12" d="M822.8,1801.8c32.7,0,59.3,26.5,59.3,59.3c0,6.6-1.1,13.1-3.2,19.3
		c-8,23.2-30.1,40-56,40c-32.7,0-59.3-26.5-59.3-59.3S790,1801.8,822.8,1801.8z"/>
	
		<linearGradient id="globe_x5F_red_10_" gradientUnits="userSpaceOnUse" x1="478.0128" y1="1670.8771" x2="663.4828" y2="1801.0629">
		<stop  offset="0" style="stop-color:#DA4A22"/>
		<stop  offset="0.3272" style="stop-color:#EC5B33"/>
		<stop  offset="1" style="stop-color:#FFBDAA"/>
	</linearGradient>
	<path id="globe_x5F_red_9_" class="st13" d="M580.1,1683.3c32.7,0,59.3,26.5,59.3,59.3c0,6.6-1.1,13.1-3.2,19.3
		c-8,23.2-30.1,40-56,40c-32.7,0-59.3-26.5-59.3-59.3S547.4,1683.3,580.1,1683.3z"/>
	
		<linearGradient id="globe_x5F_red_11_" gradientUnits="userSpaceOnUse" x1="1124.2565" y1="1366.076" x2="1309.7264" y2="1496.2618">
		<stop  offset="0" style="stop-color:#DA4A22"/>
		<stop  offset="0.3272" style="stop-color:#EC5B33"/>
		<stop  offset="1" style="stop-color:#FFBDAA"/>
	</linearGradient>
	<path id="globe_x5F_red_6_" class="st14" d="M1226.4,1378.5c32.7,0,59.3,26.5,59.3,59.3c0,6.6-1.1,13.1-3.2,19.3
		c-8,23.2-30.1,40-56,40c-32.7,0-59.3-26.5-59.3-59.3S1193.6,1378.5,1226.4,1378.5z"/>
	<linearGradient id="globe_x5F_red_12_" gradientUnits="userSpaceOnUse" x1="75.4594" y1="1789.3951" x2="260.9295" y2="1919.5808">
		<stop  offset="0" style="stop-color:#DA4A22"/>
		<stop  offset="0.3272" style="stop-color:#EC5B33"/>
		<stop  offset="1" style="stop-color:#FFBDAA"/>
	</linearGradient>
	<path id="globe_x5F_red_5_" class="st15" d="M177.6,1801.8c32.7,0,59.3,26.5,59.3,59.3c0,6.6-1.1,13.1-3.2,19.3
		c-8,23.2-30.1,40-56,40c-32.7,0-59.3-26.5-59.3-59.3S144.8,1801.8,177.6,1801.8z"/>
	
		<linearGradient id="globe_x5F_red_13_" gradientUnits="userSpaceOnUse" x1="787.0444" y1="1430.835" x2="1087.5072" y2="1641.7367">
		<stop  offset="0" style="stop-color:#DA4A22"/>
		<stop  offset="0.3272" style="stop-color:#EC5B33"/>
		<stop  offset="1" style="stop-color:#FFBDAA"/>
	</linearGradient>
	<path id="globe_x5F_red_3_" class="st16" d="M952.5,1450.9c53,0,96,43,96,96c0,10.6-1.7,21.2-5.2,31.2
		c-12.9,37.7-48.7,64.8-90.8,64.8c-53,0-96-43-96-96S899.4,1450.9,952.5,1450.9z"/>
	
		<linearGradient id="globe_x5F_red_14_" gradientUnits="userSpaceOnUse" x1="1060.9489" y1="941.1017" x2="1361.4117" y2="1152.0035">
		<stop  offset="0" style="stop-color:#DA4A22"/>
		<stop  offset="0.3272" style="stop-color:#EC5B33"/>
		<stop  offset="1" style="stop-color:#FFBDAA"/>
	</linearGradient>
	<path id="globe_x5F_red_1_" class="st17" d="M1226.4,961.2c53,0,96,43,96,96c0,10.6-1.7,21.2-5.2,31.2
		c-12.9,37.7-48.7,64.8-90.8,64.8c-53,0-96-43-96-96C1130.4,1004.2,1173.3,961.2,1226.4,961.2z"/>
	
		<linearGradient id="globe_x5F_red_15_" gradientUnits="userSpaceOnUse" x1="1048.7185" y1="1703.1356" x2="1349.1814" y2="1914.0375">
		<stop  offset="0" style="stop-color:#DA4A22"/>
		<stop  offset="0.3272" style="stop-color:#EC5B33"/>
		<stop  offset="1" style="stop-color:#FFBDAA"/>
	</linearGradient>
	<path id="globe_x5F_red" class="st18" d="M1214.1,1723.2c53,0,96,43,96,96c0,10.6-1.7,21.2-5.2,31.2
		c-12.9,37.7-48.7,64.8-90.8,64.8c-53,0-96-43-96-96S1161.1,1723.2,1214.1,1723.2z"/>
</g>
</svg>
