<?xml version="1.0" encoding="utf-8"?>
<!-- Generator: Adobe Illustrator 24.1.3, SVG Export Plug-In . SVG Version: 6.00 Build 0)  -->
<svg version="1.1" id="Layer_1" xmlns="http://www.w3.org/2000/svg" xmlns:xlink="http://www.w3.org/1999/xlink" x="0px" y="0px"
	 viewBox="0 0 1921 2242" style="enable-background:new 0 0 1921 2242;" xml:space="preserve">
<style type="text/css">
	.st0{fill:url(#SVGID_1_);}
	.st1{fill:url(#SVGID_2_);}
	.st2{opacity:0.4;fill:url(#globe_x5F_red_10_);}
	.st3{opacity:0.4;fill:url(#globe_x5F_red_12_);}
	.st4{opacity:0.4;fill:url(#globe_x5F_red_13_);}
	.st5{opacity:0.4;fill:url(#globe_x5F_red_14_);}
	.st6{opacity:0.4;fill:url(#globe_x5F_red_15_);}
	.st7{opacity:0.4;fill:url(#globe_x5F_red_16_);}
	.st8{opacity:0.4;fill:url(#globe_x5F_red_17_);}
	.st9{opacity:0.4;fill:url(#globe_x5F_red_18_);}
	.st10{opacity:0.4;fill:url(#globe_x5F_red_19_);}
	.st11{opacity:0.4;fill:url(#globe_x5F_red_20_);}
	.st12{opacity:0.4;fill:url(#globe_x5F_red_21_);}
	.st13{opacity:0.4;fill:url(#globe_x5F_blue_14_);stroke:url(#globe_x5F_blue_15_);stroke-width:0.3143;stroke-miterlimit:10;}
	.st14{opacity:0.4;fill:url(#globe_x5F_blue_16_);stroke:url(#globe_x5F_blue_17_);stroke-width:0.3143;stroke-miterlimit:10;}
	.st15{opacity:0.4;fill:url(#globe_x5F_blue_18_);stroke:url(#globe_x5F_blue_19_);stroke-width:0.3143;stroke-miterlimit:10;}
	.st16{opacity:0.4;fill:url(#globe_x5F_blue_20_);stroke:url(#globe_x5F_blue_21_);stroke-width:0.3143;stroke-miterlimit:10;}
	.st17{opacity:0.4;fill:url(#globe_x5F_blue_22_);stroke:url(#globe_x5F_blue_23_);stroke-width:0.3143;stroke-miterlimit:10;}
	.st18{opacity:0.4;fill:url(#globe_x5F_blue_24_);stroke:url(#globe_x5F_blue_25_);stroke-width:0.3143;stroke-miterlimit:10;}
	.st19{opacity:0.4;fill:url(#globe_x5F_blue_26_);stroke:url(#globe_x5F_blue_27_);stroke-width:0.194;stroke-miterlimit:10;}
	.st20{opacity:0.4;fill:url(#globe_x5F_blue_28_);stroke:url(#globe_x5F_blue_29_);stroke-width:0.194;stroke-miterlimit:10;}
	.st21{opacity:0.4;fill:url(#globe_x5F_blue_30_);stroke:url(#globe_x5F_blue_31_);stroke-width:0.194;stroke-miterlimit:10;}
	.st22{opacity:0.4;fill:url(#globe_x5F_blue_32_);stroke:url(#globe_x5F_blue_33_);stroke-width:0.194;stroke-miterlimit:10;}
	.st23{opacity:0.4;fill:url(#globe_x5F_blue_34_);stroke:url(#globe_x5F_blue_35_);stroke-width:0.194;stroke-miterlimit:10;}
	.st24{opacity:0.4;fill:url(#globe_x5F_blue_36_);stroke:url(#globe_x5F_blue_37_);stroke-width:0.194;stroke-miterlimit:10;}
	.st25{opacity:0.4;fill:url(#globe_x5F_blue_38_);stroke:url(#globe_x5F_blue_39_);stroke-width:0.194;stroke-miterlimit:10;}
	.st26{opacity:0.4;fill:url(#globe_x5F_blue_40_);stroke:url(#globe_x5F_blue_41_);stroke-width:0.194;stroke-miterlimit:10;}
</style>
<linearGradient id="SVGID_1_" gradientUnits="userSpaceOnUse" x1="978.3984" y1="1689.6978" x2="978.3984" y2="1690.4977" gradientTransform="matrix(1920.1023 0 0 3469.9954 -1877664.375 -5863608.5)">
	<stop  offset="0" style="stop-color:#AFE2EC"/>
	<stop  offset="1" style="stop-color:#EEF9FC"/>
</linearGradient>
<path class="st0" d="M0,96C0-33,1920-31,1920,96l1,2146H1L0,96z"/>
<linearGradient id="SVGID_2_" gradientUnits="userSpaceOnUse" x1="979.0831" y1="1689.6932" x2="978.0831" y2="1690.5933" gradientTransform="matrix(1925.0815 0 0 2465.5713 -1882537.125 -4165379.5)">
	<stop  offset="0" style="stop-color:#DA4A22"/>
	<stop  offset="0.5" style="stop-color:#FF7650"/>
	<stop  offset="1" style="stop-color:#FFBDAA"/>
</linearGradient>
<path class="st1" d="M1,2214c-1-290,780-360,1208-760c306-306,390-1234,712-1147v1935H1V2214z"/>
<g id="globes_x5F_red">
	
		<linearGradient id="globe_x5F_red_10_" gradientUnits="userSpaceOnUse" x1="1609.6812" y1="1157.8588" x2="1795.1512" y2="1288.0444">
		<stop  offset="0" style="stop-color:#DA4A22"/>
		<stop  offset="0.3272" style="stop-color:#EC5B33"/>
		<stop  offset="1" style="stop-color:#FFBDAA"/>
	</linearGradient>
	<path id="globe_x5F_red_8_" class="st2" d="M1711.8,1170.3c32.7,0,59.3,26.5,59.3,59.3c0,6.6-1.1,13.1-3.2,19.3
		c-8,23.2-30.1,40-56,40c-32.7,0-59.3-26.5-59.3-59.3S1679.1,1170.3,1711.8,1170.3z"/>
	
		<linearGradient id="globe_x5F_red_12_" gradientUnits="userSpaceOnUse" x1="1314.5873" y1="1509.0729" x2="1500.0573" y2="1639.2585">
		<stop  offset="0" style="stop-color:#DA4A22"/>
		<stop  offset="0.3272" style="stop-color:#EC5B33"/>
		<stop  offset="1" style="stop-color:#FFBDAA"/>
	</linearGradient>
	<path id="globe_x5F_red_11_" class="st3" d="M1416.7,1521.5c32.7,0,59.3,26.5,59.3,59.3c0,6.6-1.1,13.1-3.2,19.3
		c-8,23.2-30.1,40-56,40c-32.7,0-59.3-26.5-59.3-59.3S1384,1521.5,1416.7,1521.5z"/>
	
		<linearGradient id="globe_x5F_red_13_" gradientUnits="userSpaceOnUse" x1="1279.8389" y1="1906.9532" x2="1465.309" y2="2037.139">
		<stop  offset="0" style="stop-color:#DA4A22"/>
		<stop  offset="0.3272" style="stop-color:#EC5B33"/>
		<stop  offset="1" style="stop-color:#FFBDAA"/>
	</linearGradient>
	<path id="globe_x5F_red_7_" class="st4" d="M1381.9,1919.4c32.7,0,59.3,26.5,59.3,59.3c0,6.6-1.1,13.1-3.2,19.3
		c-8,23.2-30.1,40-56,40c-32.7,0-59.3-26.5-59.3-59.3C1322.7,1945.9,1349.2,1919.4,1381.9,1919.4z"/>
	
		<linearGradient id="globe_x5F_red_14_" gradientUnits="userSpaceOnUse" x1="1728.1991" y1="483.7881" x2="1913.6692" y2="613.9738">
		<stop  offset="0" style="stop-color:#DA4A22"/>
		<stop  offset="0.3272" style="stop-color:#EC5B33"/>
		<stop  offset="1" style="stop-color:#FFBDAA"/>
	</linearGradient>
	<path id="globe_x5F_red_6_" class="st5" d="M1830.3,496.2c32.7,0,59.3,26.5,59.3,59.3c0,6.6-1.1,13.1-3.2,19.3
		c-8,23.2-30.1,40-56,40c-32.7,0-59.3-26.5-59.3-59.3C1771,522.7,1797.6,496.2,1830.3,496.2z"/>
	
		<linearGradient id="globe_x5F_red_15_" gradientUnits="userSpaceOnUse" x1="117.4964" y1="2062.2124" x2="302.9665" y2="2192.3979">
		<stop  offset="0" style="stop-color:#DA4A22"/>
		<stop  offset="0.3272" style="stop-color:#EC5B33"/>
		<stop  offset="1" style="stop-color:#FFBDAA"/>
	</linearGradient>
	<path id="globe_x5F_red_5_" class="st6" d="M219.6,2074.6c32.7,0,59.3,26.5,59.3,59.3c0,6.6-1.1,13.1-3.2,19.3
		c-8,23.2-30.1,40-56,40c-32.7,0-59.3-26.5-59.3-59.3S186.9,2074.6,219.6,2074.6z"/>
	
		<linearGradient id="globe_x5F_red_16_" gradientUnits="userSpaceOnUse" x1="895.7018" y1="2039.6943" x2="1081.1719" y2="2169.8801">
		<stop  offset="0" style="stop-color:#DA4A22"/>
		<stop  offset="0.3272" style="stop-color:#EC5B33"/>
		<stop  offset="1" style="stop-color:#FFBDAA"/>
	</linearGradient>
	<path id="globe_x5F_red_3_" class="st7" d="M997.8,2052.1c32.7,0,59.3,26.5,59.3,59.3c0,6.6-1.1,13.1-3.2,19.3
		c-8,23.2-30.1,40-56,40c-32.7,0-59.3-26.5-59.3-59.3S965.1,2052.1,997.8,2052.1z"/>
	<linearGradient id="globe_x5F_red_17_" gradientUnits="userSpaceOnUse" x1="468.2325" y1="1900.3601" x2="768.6953" y2="2111.262">
		<stop  offset="0" style="stop-color:#DA4A22"/>
		<stop  offset="0.3272" style="stop-color:#EC5B33"/>
		<stop  offset="1" style="stop-color:#FFBDAA"/>
	</linearGradient>
	<path id="globe_x5F_red_4_" class="st8" d="M633.6,1920.5c53,0,96,43,96,96c0,10.6-1.7,21.2-5.2,31.2
		c-12.9,37.7-48.7,64.8-90.8,64.8c-53,0-96-43-96-96C537.6,1963.5,580.6,1920.5,633.6,1920.5z"/>
	
		<linearGradient id="globe_x5F_red_18_" gradientUnits="userSpaceOnUse" x1="987.6533" y1="1675.0563" x2="1288.1161" y2="1885.958">
		<stop  offset="0" style="stop-color:#DA4A22"/>
		<stop  offset="0.3272" style="stop-color:#EC5B33"/>
		<stop  offset="1" style="stop-color:#FFBDAA"/>
	</linearGradient>
	<path id="globe_x5F_red_9_" class="st9" d="M1153.1,1695.2c53,0,96,43,96,96c0,10.6-1.7,21.2-5.2,31.2
		c-12.9,37.7-48.7,64.8-90.8,64.8c-53,0-96-43-96-96S1100,1695.2,1153.1,1695.2z"/>
	
		<linearGradient id="globe_x5F_red_19_" gradientUnits="userSpaceOnUse" x1="1582.2665" y1="1511.903" x2="1882.7294" y2="1722.8047" gradientTransform="matrix(0.9897 -0.1432 0.1432 0.9897 -191.7038 219.7086)">
		<stop  offset="0" style="stop-color:#DA4A22"/>
		<stop  offset="0.3272" style="stop-color:#EC5B33"/>
		<stop  offset="1" style="stop-color:#FFBDAA"/>
	</linearGradient>
	<path id="globe_x5F_red_2_" class="st10" d="M1757.3,1485.7c52.5-7.6,101.2,28.8,108.8,81.3c1.5,10.5,1.3,21.2-0.7,31.7
		c-7.4,39.1-38.9,71.1-80.6,77.1c-52.5,7.6-101.2-28.8-108.8-81.3C1668.4,1542,1704.8,1493.3,1757.3,1485.7z"/>
	
		<linearGradient id="globe_x5F_red_20_" gradientUnits="userSpaceOnUse" x1="1509.6204" y1="800.2023" x2="1810.0831" y2="1011.1041">
		<stop  offset="0" style="stop-color:#DA4A22"/>
		<stop  offset="0.3272" style="stop-color:#EC5B33"/>
		<stop  offset="1" style="stop-color:#FFBDAA"/>
	</linearGradient>
	<path id="globe_x5F_red_1_" class="st11" d="M1675,820.3c53,0,96,43,96,96c0,10.6-1.7,21.2-5.2,31.2
		c-12.9,37.7-48.7,64.8-90.8,64.8c-53,0-96-43-96-96C1579,863.3,1622,820.3,1675,820.3z"/>
	
		<linearGradient id="globe_x5F_red_21_" gradientUnits="userSpaceOnUse" x1="1568.8916" y1="1958.5162" x2="1869.3545" y2="2169.418">
		<stop  offset="0" style="stop-color:#DA4A22"/>
		<stop  offset="0.3272" style="stop-color:#EC5B33"/>
		<stop  offset="1" style="stop-color:#FFBDAA"/>
	</linearGradient>
	<path id="globe_x5F_red" class="st12" d="M1734.3,1978.6c53,0,96,43,96,96c0,10.6-1.7,21.2-5.2,31.2
		c-12.9,37.7-48.7,64.8-90.8,64.8c-53,0-96-43-96-96S1681.3,1978.6,1734.3,1978.6z"/>
</g>
<g id="globes_x5F_blue">
	<linearGradient id="globe_x5F_blue_14_" gradientUnits="userSpaceOnUse" x1="66.3667" y1="129.335" x2="574.8423" y2="442.3171">
		<stop  offset="0" style="stop-color:#22B2DA"/>
		<stop  offset="5.078889e-02" style="stop-color:#34B8DC"/>
		<stop  offset="0.3988" style="stop-color:#AFE2EC"/>
		<stop  offset="1" style="stop-color:#EEF9FC"/>
	</linearGradient>
	<linearGradient id="globe_x5F_blue_15_" gradientUnits="userSpaceOnUse" x1="118.2709" y1="220.4713" x2="310.5852" y2="220.4713">
		<stop  offset="0" style="stop-color:#22B2DA"/>
		<stop  offset="5.078889e-02" style="stop-color:#34B8DC"/>
		<stop  offset="0.3988" style="stop-color:#AFE2EC"/>
		<stop  offset="1" style="stop-color:#EEF9FC"/>
	</linearGradient>
	<path id="globe_x5F_blue_6_" class="st13" d="M214.4,124.5c53,0,96,43,96,96c0,10.6-1.7,21.2-5.2,31.2
		c-12.9,37.7-48.7,64.8-90.8,64.8c-53,0-96-43-96-96S161.4,124.5,214.4,124.5z"/>
	<linearGradient id="globe_x5F_blue_16_" gradientUnits="userSpaceOnUse" x1="789.8271" y1="598.429" x2="1298.3027" y2="911.4111">
		<stop  offset="0" style="stop-color:#22B2DA"/>
		<stop  offset="5.078889e-02" style="stop-color:#34B8DC"/>
		<stop  offset="0.3988" style="stop-color:#AFE2EC"/>
		<stop  offset="1" style="stop-color:#EEF9FC"/>
	</linearGradient>
	
		<linearGradient id="globe_x5F_blue_17_" gradientUnits="userSpaceOnUse" x1="841.7313" y1="689.5653" x2="1034.0457" y2="689.5653">
		<stop  offset="0" style="stop-color:#22B2DA"/>
		<stop  offset="5.078889e-02" style="stop-color:#34B8DC"/>
		<stop  offset="0.3988" style="stop-color:#AFE2EC"/>
		<stop  offset="1" style="stop-color:#EEF9FC"/>
	</linearGradient>
	<path id="globe_x5F_blue_11_" class="st14" d="M937.9,593.6c53,0,96,43,96,96c0,10.6-1.7,21.2-5.2,31.2
		c-12.9,37.7-48.7,64.8-90.8,64.8c-53,0-96-43-96-96C841.9,636.5,884.9,593.6,937.9,593.6z"/>
	<linearGradient id="globe_x5F_blue_18_" gradientUnits="userSpaceOnUse" x1="66.3667" y1="660.274" x2="574.8423" y2="973.2562">
		<stop  offset="0" style="stop-color:#22B2DA"/>
		<stop  offset="5.078889e-02" style="stop-color:#34B8DC"/>
		<stop  offset="0.3988" style="stop-color:#AFE2EC"/>
		<stop  offset="1" style="stop-color:#EEF9FC"/>
	</linearGradient>
	<linearGradient id="globe_x5F_blue_19_" gradientUnits="userSpaceOnUse" x1="118.2709" y1="751.4103" x2="310.5852" y2="751.4103">
		<stop  offset="0" style="stop-color:#22B2DA"/>
		<stop  offset="5.078889e-02" style="stop-color:#34B8DC"/>
		<stop  offset="0.3988" style="stop-color:#AFE2EC"/>
		<stop  offset="1" style="stop-color:#EEF9FC"/>
	</linearGradient>
	<path id="globe_x5F_blue_5_" class="st15" d="M214.4,655.4c53,0,96,43,96,96c0,10.6-1.7,21.2-5.2,31.2
		c-12.9,37.7-48.7,64.8-90.8,64.8c-53,0-96-43-96-96S161.4,655.4,214.4,655.4z"/>
	
		<linearGradient id="globe_x5F_blue_20_" gradientUnits="userSpaceOnUse" x1="162.3667" y1="1246.5321" x2="670.8423" y2="1559.5143">
		<stop  offset="0" style="stop-color:#22B2DA"/>
		<stop  offset="5.078889e-02" style="stop-color:#34B8DC"/>
		<stop  offset="0.3988" style="stop-color:#AFE2EC"/>
		<stop  offset="1" style="stop-color:#EEF9FC"/>
	</linearGradient>
	
		<linearGradient id="globe_x5F_blue_21_" gradientUnits="userSpaceOnUse" x1="214.2709" y1="1337.6685" x2="406.5852" y2="1337.6685">
		<stop  offset="0" style="stop-color:#22B2DA"/>
		<stop  offset="5.078889e-02" style="stop-color:#34B8DC"/>
		<stop  offset="0.3988" style="stop-color:#AFE2EC"/>
		<stop  offset="1" style="stop-color:#EEF9FC"/>
	</linearGradient>
	<path id="globe_x5F_blue_9_" class="st16" d="M310.4,1241.7c53,0,96,43,96,96c0,10.6-1.7,21.2-5.2,31.2
		c-12.9,37.7-48.7,64.8-90.8,64.8c-53,0-96-43-96-96S257.4,1241.7,310.4,1241.7z"/>
	
		<linearGradient id="globe_x5F_blue_22_" gradientUnits="userSpaceOnUse" x1="1103.9838" y1="202.817" x2="1612.4594" y2="515.7991">
		<stop  offset="0" style="stop-color:#22B2DA"/>
		<stop  offset="5.078889e-02" style="stop-color:#34B8DC"/>
		<stop  offset="0.3988" style="stop-color:#AFE2EC"/>
		<stop  offset="1" style="stop-color:#EEF9FC"/>
	</linearGradient>
	
		<linearGradient id="globe_x5F_blue_23_" gradientUnits="userSpaceOnUse" x1="1155.8879" y1="293.9532" x2="1348.2023" y2="293.9532">
		<stop  offset="0" style="stop-color:#22B2DA"/>
		<stop  offset="5.078889e-02" style="stop-color:#34B8DC"/>
		<stop  offset="0.3988" style="stop-color:#AFE2EC"/>
		<stop  offset="1" style="stop-color:#EEF9FC"/>
	</linearGradient>
	<path id="globe_x5F_blue_4_" class="st17" d="M1252,198c53,0,96,43,96,96c0,10.6-1.7,21.2-5.2,31.2c-12.9,37.7-48.7,64.8-90.8,64.8
		c-53,0-96-43-96-96S1199,198,1252,198z"/>
	
		<linearGradient id="globe_x5F_blue_24_" gradientUnits="userSpaceOnUse" x1="1038.6221" y1="1029.863" x2="1547.0977" y2="1342.8451">
		<stop  offset="0" style="stop-color:#22B2DA"/>
		<stop  offset="5.078889e-02" style="stop-color:#34B8DC"/>
		<stop  offset="0.3988" style="stop-color:#AFE2EC"/>
		<stop  offset="1" style="stop-color:#EEF9FC"/>
	</linearGradient>
	
		<linearGradient id="globe_x5F_blue_25_" gradientUnits="userSpaceOnUse" x1="1090.5262" y1="1120.9993" x2="1282.8406" y2="1120.9993">
		<stop  offset="0" style="stop-color:#22B2DA"/>
		<stop  offset="5.078889e-02" style="stop-color:#34B8DC"/>
		<stop  offset="0.3988" style="stop-color:#AFE2EC"/>
		<stop  offset="1" style="stop-color:#EEF9FC"/>
	</linearGradient>
	<path id="globe_x5F_blue_7_" class="st18" d="M1186.7,1025c53,0,96,43,96,96c0,10.6-1.7,21.2-5.2,31.2
		c-12.9,37.7-48.7,64.8-90.8,64.8c-53,0-96-43-96-96S1133.7,1025,1186.7,1025z"/>
	
		<linearGradient id="globe_x5F_blue_26_" gradientUnits="userSpaceOnUse" x1="542.2523" y1="939.7389" x2="856.1247" y2="1132.9369">
		<stop  offset="0" style="stop-color:#22B2DA"/>
		<stop  offset="5.078889e-02" style="stop-color:#34B8DC"/>
		<stop  offset="0.3988" style="stop-color:#AFE2EC"/>
		<stop  offset="1" style="stop-color:#EEF9FC"/>
	</linearGradient>
	<linearGradient id="globe_x5F_blue_27_" gradientUnits="userSpaceOnUse" x1="574.2917" y1="995.9956" x2="693.0037" y2="995.9956">
		<stop  offset="0" style="stop-color:#22B2DA"/>
		<stop  offset="5.078889e-02" style="stop-color:#34B8DC"/>
		<stop  offset="0.3988" style="stop-color:#AFE2EC"/>
		<stop  offset="1" style="stop-color:#EEF9FC"/>
	</linearGradient>
	<path id="globe_x5F_blue_3_" class="st19" d="M633.6,936.7c32.7,0,59.3,26.5,59.3,59.3c0,6.6-1.1,13.1-3.2,19.3
		c-8,23.2-30.1,40-56,40c-32.7,0-59.3-26.5-59.3-59.3S600.9,936.7,633.6,936.7z"/>
	
		<linearGradient id="globe_x5F_blue_28_" gradientUnits="userSpaceOnUse" x1="564.7702" y1="1561.2413" x2="878.6426" y2="1754.4393">
		<stop  offset="0" style="stop-color:#22B2DA"/>
		<stop  offset="5.078889e-02" style="stop-color:#34B8DC"/>
		<stop  offset="0.3988" style="stop-color:#AFE2EC"/>
		<stop  offset="1" style="stop-color:#EEF9FC"/>
	</linearGradient>
	<linearGradient id="globe_x5F_blue_29_" gradientUnits="userSpaceOnUse" x1="596.8098" y1="1617.498" x2="715.5217" y2="1617.498">
		<stop  offset="0" style="stop-color:#22B2DA"/>
		<stop  offset="5.078889e-02" style="stop-color:#34B8DC"/>
		<stop  offset="0.3988" style="stop-color:#AFE2EC"/>
		<stop  offset="1" style="stop-color:#EEF9FC"/>
	</linearGradient>
	<path id="globe_x5F_blue_10_" class="st20" d="M656.2,1558.2c32.7,0,59.3,26.5,59.3,59.3c0,6.6-1.1,13.1-3.2,19.3
		c-8,23.2-30.1,40-56,40c-32.7,0-59.3-26.5-59.3-59.3S623.4,1558.2,656.2,1558.2z"/>
	<linearGradient id="globe_x5F_blue_30_" gradientUnits="userSpaceOnUse" x1="86.2916" y1="1804.9532" x2="400.164" y2="1998.1512">
		<stop  offset="0" style="stop-color:#22B2DA"/>
		<stop  offset="5.078889e-02" style="stop-color:#34B8DC"/>
		<stop  offset="0.3988" style="stop-color:#AFE2EC"/>
		<stop  offset="1" style="stop-color:#EEF9FC"/>
	</linearGradient>
	<linearGradient id="globe_x5F_blue_31_" gradientUnits="userSpaceOnUse" x1="118.3311" y1="1861.21" x2="237.0431" y2="1861.21">
		<stop  offset="0" style="stop-color:#22B2DA"/>
		<stop  offset="5.078889e-02" style="stop-color:#34B8DC"/>
		<stop  offset="0.3988" style="stop-color:#AFE2EC"/>
		<stop  offset="1" style="stop-color:#EEF9FC"/>
	</linearGradient>
	<path id="globe_x5F_blue_8_" class="st21" d="M177.7,1802c32.7,0,59.3,26.5,59.3,59.3c0,6.6-1.1,13.1-3.2,19.3
		c-8,23.2-30.1,40-56,40c-32.7,0-59.3-26.5-59.3-59.3C118.4,1828.5,145,1802,177.7,1802z"/>
	<linearGradient id="globe_x5F_blue_32_" gradientUnits="userSpaceOnUse" x1="799.313" y1="82.4376" x2="1113.1854" y2="275.6356">
		<stop  offset="0" style="stop-color:#22B2DA"/>
		<stop  offset="5.078889e-02" style="stop-color:#34B8DC"/>
		<stop  offset="0.3988" style="stop-color:#AFE2EC"/>
		<stop  offset="1" style="stop-color:#EEF9FC"/>
	</linearGradient>
	<linearGradient id="globe_x5F_blue_33_" gradientUnits="userSpaceOnUse" x1="831.3525" y1="138.6943" x2="950.0645" y2="138.6943">
		<stop  offset="0" style="stop-color:#22B2DA"/>
		<stop  offset="5.078889e-02" style="stop-color:#34B8DC"/>
		<stop  offset="0.3988" style="stop-color:#AFE2EC"/>
		<stop  offset="1" style="stop-color:#EEF9FC"/>
	</linearGradient>
	<path id="globe_x5F_blue_13_" class="st22" d="M890.7,79.4c32.7,0,59.3,26.5,59.3,59.3c0,6.6-1.1,13.1-3.2,19.3
		c-8,23.2-30.1,40-56,40c-32.7,0-59.3-26.5-59.3-59.3S858,79.4,890.7,79.4z"/>
	
		<linearGradient id="globe_x5F_blue_34_" gradientUnits="userSpaceOnUse" x1="1608.0186" y1="141.6965" x2="1921.891" y2="334.8946">
		<stop  offset="0" style="stop-color:#22B2DA"/>
		<stop  offset="5.078889e-02" style="stop-color:#34B8DC"/>
		<stop  offset="0.3988" style="stop-color:#AFE2EC"/>
		<stop  offset="1" style="stop-color:#EEF9FC"/>
	</linearGradient>
	<linearGradient id="globe_x5F_blue_35_" gradientUnits="userSpaceOnUse" x1="1640.058" y1="197.9533" x2="1758.77" y2="197.9533">
		<stop  offset="0" style="stop-color:#22B2DA"/>
		<stop  offset="5.078889e-02" style="stop-color:#34B8DC"/>
		<stop  offset="0.3988" style="stop-color:#AFE2EC"/>
		<stop  offset="1" style="stop-color:#EEF9FC"/>
	</linearGradient>
	<path id="globe_x5F_blue_2_" class="st23" d="M1699.4,138.7c32.7,0,59.3,26.5,59.3,59.3c0,6.6-1.1,13.1-3.2,19.3
		c-8,23.2-30.1,40-56,40c-32.7,0-59.3-26.5-59.3-59.3S1666.7,138.7,1699.4,138.7z"/>
	<linearGradient id="globe_x5F_blue_36_" gradientUnits="userSpaceOnUse" x1="446.2522" y1="439.9442" x2="760.1247" y2="633.1422">
		<stop  offset="0" style="stop-color:#22B2DA"/>
		<stop  offset="5.078889e-02" style="stop-color:#34B8DC"/>
		<stop  offset="0.3988" style="stop-color:#AFE2EC"/>
		<stop  offset="1" style="stop-color:#EEF9FC"/>
	</linearGradient>
	<linearGradient id="globe_x5F_blue_37_" gradientUnits="userSpaceOnUse" x1="478.2917" y1="496.2009" x2="597.0037" y2="496.2009">
		<stop  offset="0" style="stop-color:#22B2DA"/>
		<stop  offset="5.078889e-02" style="stop-color:#34B8DC"/>
		<stop  offset="0.3988" style="stop-color:#AFE2EC"/>
		<stop  offset="1" style="stop-color:#EEF9FC"/>
	</linearGradient>
	<path id="globe_x5F_blue_1_" class="st24" d="M537.6,436.9c32.7,0,59.3,26.5,59.3,59.3c0,6.6-1.1,13.1-3.2,19.3
		c-8,23.2-30.1,40-56,40c-32.7,0-59.3-26.5-59.3-59.3S504.9,436.9,537.6,436.9z"/>
	
		<linearGradient id="globe_x5F_blue_38_" gradientUnits="userSpaceOnUse" x1="740.054" y1="1185.4117" x2="1053.9264" y2="1378.6097">
		<stop  offset="0" style="stop-color:#22B2DA"/>
		<stop  offset="5.078889e-02" style="stop-color:#34B8DC"/>
		<stop  offset="0.3988" style="stop-color:#AFE2EC"/>
		<stop  offset="1" style="stop-color:#EEF9FC"/>
	</linearGradient>
	
		<linearGradient id="globe_x5F_blue_39_" gradientUnits="userSpaceOnUse" x1="772.0935" y1="1241.6685" x2="890.8055" y2="1241.6685">
		<stop  offset="0" style="stop-color:#22B2DA"/>
		<stop  offset="5.078889e-02" style="stop-color:#34B8DC"/>
		<stop  offset="0.3988" style="stop-color:#AFE2EC"/>
		<stop  offset="1" style="stop-color:#EEF9FC"/>
	</linearGradient>
	<path id="globe_x5F_blue" class="st25" d="M831.4,1182.4c32.7,0,59.3,26.5,59.3,59.3c0,6.6-1.1,13.1-3.2,19.3
		c-8,23.2-30.1,40-56,40c-32.7,0-59.3-26.5-59.3-59.3S798.7,1182.4,831.4,1182.4z"/>
	
		<linearGradient id="globe_x5F_blue_40_" gradientUnits="userSpaceOnUse" x1="1325.2994" y1="620.6254" x2="1639.1719" y2="813.8234">
		<stop  offset="0" style="stop-color:#22B2DA"/>
		<stop  offset="5.078889e-02" style="stop-color:#34B8DC"/>
		<stop  offset="0.3988" style="stop-color:#AFE2EC"/>
		<stop  offset="1" style="stop-color:#EEF9FC"/>
	</linearGradient>
	<linearGradient id="globe_x5F_blue_41_" gradientUnits="userSpaceOnUse" x1="1357.339" y1="676.8821" x2="1476.051" y2="676.8821">
		<stop  offset="0" style="stop-color:#22B2DA"/>
		<stop  offset="5.078889e-02" style="stop-color:#34B8DC"/>
		<stop  offset="0.3988" style="stop-color:#AFE2EC"/>
		<stop  offset="1" style="stop-color:#EEF9FC"/>
	</linearGradient>
	<path id="globe_x5F_blue_12_" class="st26" d="M1416.7,617.6c32.7,0,59.3,26.5,59.3,59.3c0,6.6-1.1,13.1-3.2,19.3
		c-8,23.2-30.1,40-56,40c-32.7,0-59.3-26.5-59.3-59.3C1357.4,644.2,1384,617.6,1416.7,617.6z"/>
</g>
</svg>
