<?xml version="1.0" encoding="utf-8"?>
<!-- Generator: Adobe Illustrator 24.1.3, SVG Export Plug-In . SVG Version: 6.00 Build 0)  -->
<svg version="1.1" id="Layer_1" xmlns="http://www.w3.org/2000/svg" xmlns:xlink="http://www.w3.org/1999/xlink" x="0px" y="0px"
	 viewBox="0 0 768 1083.8" style="enable-background:new 0 0 768 1083.8;" xml:space="preserve">
<style type="text/css">
	.st0{fill:url(#SVGID_1_);}
	.st1{opacity:0.4;fill:url(#globe_x5F_blue_7_);stroke:url(#globe_x5F_blue_8_);stroke-width:0.3143;stroke-miterlimit:10;}
	.st2{opacity:0.4;fill:url(#globe_x5F_blue_9_);stroke:url(#globe_x5F_blue_10_);stroke-width:0.3143;stroke-miterlimit:10;}
	.st3{opacity:0.4;fill:url(#globe_x5F_blue_11_);stroke:url(#globe_x5F_blue_12_);stroke-width:0.194;stroke-miterlimit:10;}
	.st4{opacity:0.4;fill:url(#globe_x5F_blue_13_);stroke:url(#globe_x5F_blue_14_);stroke-width:0.194;stroke-miterlimit:10;}
	.st5{opacity:0.4;fill:url(#globe_x5F_blue_15_);stroke:url(#globe_x5F_blue_16_);stroke-width:0.194;stroke-miterlimit:10;}
	.st6{opacity:0.4;fill:url(#globe_x5F_blue_17_);stroke:url(#globe_x5F_blue_18_);stroke-width:0.194;stroke-miterlimit:10;}
	.st7{opacity:0.4;fill:url(#globe_x5F_blue_19_);stroke:url(#globe_x5F_blue_20_);stroke-width:0.194;stroke-miterlimit:10;}
</style>
<linearGradient id="SVGID_1_" gradientUnits="userSpaceOnUse" x1="376.5865" y1="1529.9377" x2="393.6347" y2="-760.1927" gradientTransform="matrix(1 0 0 -1 0 1084)">
	<stop  offset="0" style="stop-color:#22B2DA"/>
	<stop  offset="9.800000e-03" style="stop-color:#32B7DC"/>
	<stop  offset="3.440000e-02" style="stop-color:#53C3E0"/>
	<stop  offset="6.180000e-02" style="stop-color:#70CCE4"/>
	<stop  offset="9.220000e-02" style="stop-color:#87D4E7"/>
	<stop  offset="0.1268" style="stop-color:#99DBE9"/>
	<stop  offset="0.1684" style="stop-color:#A6DFEB"/>
	<stop  offset="0.2237" style="stop-color:#ADE1EC"/>
	<stop  offset="0.3491" style="stop-color:#AFE2EC"/>
	<stop  offset="0.9646" style="stop-color:#EEF9FC"/>
</linearGradient>
<path class="st0" d="M768,189.1v884.2c-264.9,27.7-532.3,9.3-768-162.5V0C253.4,191.8,514.5,216.5,768,189.1z"/>
<g id="globes_x5F_blue">
	<linearGradient id="globe_x5F_blue_7_" gradientUnits="userSpaceOnUse" x1="-6.8355" y1="157.6709" x2="501.6401" y2="470.653">
		<stop  offset="0" style="stop-color:#22B2DA"/>
		<stop  offset="5.078889e-02" style="stop-color:#34B8DC"/>
		<stop  offset="0.3988" style="stop-color:#AFE2EC"/>
		<stop  offset="1" style="stop-color:#EEF9FC"/>
	</linearGradient>
	<linearGradient id="globe_x5F_blue_8_" gradientUnits="userSpaceOnUse" x1="45.0687" y1="248.8071" x2="237.383" y2="248.8071">
		<stop  offset="0" style="stop-color:#22B2DA"/>
		<stop  offset="5.078889e-02" style="stop-color:#34B8DC"/>
		<stop  offset="0.3988" style="stop-color:#AFE2EC"/>
		<stop  offset="1" style="stop-color:#EEF9FC"/>
	</linearGradient>
	<path id="globe_x5F_blue_6_" class="st1" d="M141.2,152.8c53,0,96,43,96,96c0,10.6-1.7,21.2-5.2,31.2
		c-12.9,37.7-48.7,64.8-90.8,64.8c-53,0-96-43-96-96S88.2,152.8,141.2,152.8z"/>
	<linearGradient id="globe_x5F_blue_9_" gradientUnits="userSpaceOnUse" x1="209.9491" y1="789.2307" x2="718.4247" y2="1102.2128">
		<stop  offset="0" style="stop-color:#22B2DA"/>
		<stop  offset="5.078889e-02" style="stop-color:#34B8DC"/>
		<stop  offset="0.3988" style="stop-color:#AFE2EC"/>
		<stop  offset="1" style="stop-color:#EEF9FC"/>
	</linearGradient>
	<linearGradient id="globe_x5F_blue_10_" gradientUnits="userSpaceOnUse" x1="261.8533" y1="880.3669" x2="454.1676" y2="880.3669">
		<stop  offset="0" style="stop-color:#22B2DA"/>
		<stop  offset="5.078889e-02" style="stop-color:#34B8DC"/>
		<stop  offset="0.3988" style="stop-color:#AFE2EC"/>
		<stop  offset="1" style="stop-color:#EEF9FC"/>
	</linearGradient>
	<path id="globe_x5F_blue_4_" class="st2" d="M358,784.4c53,0,96,43,96,96c0,10.6-1.7,21.2-5.2,31.2c-12.9,37.7-48.7,64.8-90.8,64.8
		c-53,0-96-43-96-96C262,827.3,305,784.4,358,784.4z"/>
	<linearGradient id="globe_x5F_blue_11_" gradientUnits="userSpaceOnUse" x1="487.6434" y1="619.0941" x2="801.5158" y2="812.2921">
		<stop  offset="0" style="stop-color:#22B2DA"/>
		<stop  offset="5.078889e-02" style="stop-color:#34B8DC"/>
		<stop  offset="0.3988" style="stop-color:#AFE2EC"/>
		<stop  offset="1" style="stop-color:#EEF9FC"/>
	</linearGradient>
	<linearGradient id="globe_x5F_blue_12_" gradientUnits="userSpaceOnUse" x1="519.6829" y1="675.3508" x2="638.3949" y2="675.3508">
		<stop  offset="0" style="stop-color:#22B2DA"/>
		<stop  offset="5.078889e-02" style="stop-color:#34B8DC"/>
		<stop  offset="0.3988" style="stop-color:#AFE2EC"/>
		<stop  offset="1" style="stop-color:#EEF9FC"/>
	</linearGradient>
	<path id="globe_x5F_blue_3_" class="st3" d="M579,616.1c32.7,0,59.3,26.5,59.3,59.3c0,6.6-1.1,13.1-3.2,19.3c-8,23.2-30.1,40-56,40
		c-32.7,0-59.3-26.5-59.3-59.3S546.3,616.1,579,616.1z"/>
	<linearGradient id="globe_x5F_blue_13_" gradientUnits="userSpaceOnUse" x1="245.1682" y1="417.3797" x2="559.0406" y2="610.5777">
		<stop  offset="0" style="stop-color:#22B2DA"/>
		<stop  offset="5.078889e-02" style="stop-color:#34B8DC"/>
		<stop  offset="0.3988" style="stop-color:#AFE2EC"/>
		<stop  offset="1" style="stop-color:#EEF9FC"/>
	</linearGradient>
	<linearGradient id="globe_x5F_blue_14_" gradientUnits="userSpaceOnUse" x1="277.2076" y1="473.6364" x2="395.9197" y2="473.6364">
		<stop  offset="0" style="stop-color:#22B2DA"/>
		<stop  offset="5.078889e-02" style="stop-color:#34B8DC"/>
		<stop  offset="0.3988" style="stop-color:#AFE2EC"/>
		<stop  offset="1" style="stop-color:#EEF9FC"/>
	</linearGradient>
	<path id="globe_x5F_blue_2_" class="st4" d="M336.6,414.4c32.7,0,59.3,26.5,59.3,59.3c0,6.6-1.1,13.1-3.2,19.3
		c-8,23.2-30.1,40-56,40c-32.7,0-59.3-26.5-59.3-59.3S303.8,414.4,336.6,414.4z"/>
	<linearGradient id="globe_x5F_blue_15_" gradientUnits="userSpaceOnUse" x1="537.7109" y1="251.8094" x2="851.5833" y2="445.0074">
		<stop  offset="0" style="stop-color:#22B2DA"/>
		<stop  offset="5.078889e-02" style="stop-color:#34B8DC"/>
		<stop  offset="0.3988" style="stop-color:#AFE2EC"/>
		<stop  offset="1" style="stop-color:#EEF9FC"/>
	</linearGradient>
	<linearGradient id="globe_x5F_blue_16_" gradientUnits="userSpaceOnUse" x1="569.7504" y1="308.0661" x2="688.4624" y2="308.0661">
		<stop  offset="0" style="stop-color:#22B2DA"/>
		<stop  offset="5.078889e-02" style="stop-color:#34B8DC"/>
		<stop  offset="0.3988" style="stop-color:#AFE2EC"/>
		<stop  offset="1" style="stop-color:#EEF9FC"/>
	</linearGradient>
	<path id="globe_x5F_blue_1_" class="st5" d="M629.1,248.8c32.7,0,59.3,26.5,59.3,59.3c0,6.6-1.1,13.1-3.2,19.3
		c-8,23.2-30.1,40-56,40c-32.7,0-59.3-26.5-59.3-59.3S596.4,248.8,629.1,248.8z"/>
	<linearGradient id="globe_x5F_blue_17_" gradientUnits="userSpaceOnUse" x1="24.8952" y1="678.3531" x2="338.7676" y2="871.5511">
		<stop  offset="0" style="stop-color:#22B2DA"/>
		<stop  offset="5.078889e-02" style="stop-color:#34B8DC"/>
		<stop  offset="0.3988" style="stop-color:#AFE2EC"/>
		<stop  offset="1" style="stop-color:#EEF9FC"/>
	</linearGradient>
	<linearGradient id="globe_x5F_blue_18_" gradientUnits="userSpaceOnUse" x1="56.9347" y1="734.6098" x2="175.6467" y2="734.6098">
		<stop  offset="0" style="stop-color:#22B2DA"/>
		<stop  offset="5.078889e-02" style="stop-color:#34B8DC"/>
		<stop  offset="0.3988" style="stop-color:#AFE2EC"/>
		<stop  offset="1" style="stop-color:#EEF9FC"/>
	</linearGradient>
	<path id="globe_x5F_blue_5_" class="st6" d="M116.3,675.4c32.7,0,59.3,26.5,59.3,59.3c0,6.6-1.1,13.1-3.2,19.3
		c-8,23.2-30.1,40-56,40c-32.7,0-59.3-26.5-59.3-59.3C57,701.9,83.6,675.4,116.3,675.4z"/>
	
		<linearGradient id="globe_x5F_blue_19_" gradientUnits="userSpaceOnUse" x1="572.9449" y1="929.3146" x2="886.8174" y2="1122.5127">
		<stop  offset="0" style="stop-color:#22B2DA"/>
		<stop  offset="5.078889e-02" style="stop-color:#34B8DC"/>
		<stop  offset="0.3988" style="stop-color:#AFE2EC"/>
		<stop  offset="1" style="stop-color:#EEF9FC"/>
	</linearGradient>
	<linearGradient id="globe_x5F_blue_20_" gradientUnits="userSpaceOnUse" x1="604.9844" y1="985.5714" x2="723.6964" y2="985.5714">
		<stop  offset="0" style="stop-color:#22B2DA"/>
		<stop  offset="5.078889e-02" style="stop-color:#34B8DC"/>
		<stop  offset="0.3988" style="stop-color:#AFE2EC"/>
		<stop  offset="1" style="stop-color:#EEF9FC"/>
	</linearGradient>
	<path id="globe_x5F_blue" class="st7" d="M664.3,926.3c32.7,0,59.3,26.5,59.3,59.3c0,6.6-1.1,13.1-3.2,19.3c-8,23.2-30.1,40-56,40
		c-32.7,0-59.3-26.5-59.3-59.3C605.1,952.8,631.6,926.3,664.3,926.3z"/>
</g>
</svg>
