<?xml version="1.0" encoding="utf-8"?>
<!-- Generator: Adobe Illustrator 24.1.3, SVG Export Plug-In . SVG Version: 6.00 Build 0)  -->
<svg version="1.1" id="Layer_1" xmlns="http://www.w3.org/2000/svg" xmlns:xlink="http://www.w3.org/1999/xlink" x="0px" y="0px"
	 viewBox="0 0 1922.8 961.9" style="enable-background:new 0 0 1922.8 961.9;" xml:space="preserve">
<style type="text/css">
	.st0{fill:url(#SVGID_1_);}
	.st1{opacity:0.4;fill:url(#globe_x5F_blue_11_);stroke:url(#globe_x5F_blue_12_);stroke-width:0.3143;stroke-miterlimit:10;}
	.st2{opacity:0.4;fill:url(#globe_x5F_blue_13_);stroke:url(#globe_x5F_blue_14_);stroke-width:0.3143;stroke-miterlimit:10;}
	.st3{opacity:0.4;fill:url(#globe_x5F_blue_15_);stroke:url(#globe_x5F_blue_16_);stroke-width:0.3143;stroke-miterlimit:10;}
	.st4{opacity:0.4;fill:url(#globe_x5F_blue_17_);stroke:url(#globe_x5F_blue_18_);stroke-width:0.3143;stroke-miterlimit:10;}
	.st5{opacity:0.4;fill:url(#globe_x5F_blue_19_);stroke:url(#globe_x5F_blue_20_);stroke-width:0.194;stroke-miterlimit:10;}
	.st6{opacity:0.4;fill:url(#globe_x5F_blue_21_);stroke:url(#globe_x5F_blue_22_);stroke-width:0.194;stroke-miterlimit:10;}
	.st7{opacity:0.4;fill:url(#globe_x5F_blue_23_);stroke:url(#globe_x5F_blue_24_);stroke-width:0.194;stroke-miterlimit:10;}
	.st8{opacity:0.4;fill:url(#globe_x5F_blue_25_);stroke:url(#globe_x5F_blue_26_);stroke-width:0.194;stroke-miterlimit:10;}
	.st9{opacity:0.4;fill:url(#globe_x5F_blue_27_);stroke:url(#globe_x5F_blue_28_);stroke-width:0.194;stroke-miterlimit:10;}
	.st10{opacity:0.4;fill:url(#globe_x5F_blue_29_);stroke:url(#globe_x5F_blue_30_);stroke-width:0.194;stroke-miterlimit:10;}
	.st11{opacity:0.4;fill:url(#globe_x5F_blue_31_);stroke:url(#globe_x5F_blue_32_);stroke-width:0.194;stroke-miterlimit:10;}
</style>
<linearGradient id="SVGID_1_" gradientUnits="userSpaceOnUse" x1="954.8777" y1="1362.6237" x2="970.017" y2="-671.075" gradientTransform="matrix(1 0 0 -1 0 962)">
	<stop  offset="0" style="stop-color:#22B2DA"/>
	<stop  offset="9.800000e-03" style="stop-color:#32B7DC"/>
	<stop  offset="3.440000e-02" style="stop-color:#53C3E0"/>
	<stop  offset="6.180000e-02" style="stop-color:#70CCE4"/>
	<stop  offset="9.220000e-02" style="stop-color:#87D4E7"/>
	<stop  offset="0.1268" style="stop-color:#99DBE9"/>
	<stop  offset="0.1684" style="stop-color:#A6DFEB"/>
	<stop  offset="0.2237" style="stop-color:#ADE1EC"/>
	<stop  offset="0.3491" style="stop-color:#AFE2EC"/>
	<stop  offset="0.9646" style="stop-color:#EEF9FC"/>
</linearGradient>
<path class="st0" d="M0,0c685.3,518.7,1427-184.5,1922.8,162.8v767.1C1492.3,607.2,632.4,1249.7,0,789V0z"/>
<g id="globes_x5F_blue">
	<linearGradient id="globe_x5F_blue_11_" gradientUnits="userSpaceOnUse" x1="5.1183" y1="158.3532" x2="513.5939" y2="471.3354">
		<stop  offset="0" style="stop-color:#22B2DA"/>
		<stop  offset="5.078889e-02" style="stop-color:#34B8DC"/>
		<stop  offset="0.3988" style="stop-color:#AFE2EC"/>
		<stop  offset="1" style="stop-color:#EEF9FC"/>
	</linearGradient>
	<linearGradient id="globe_x5F_blue_12_" gradientUnits="userSpaceOnUse" x1="57.0225" y1="249.4895" x2="249.3368" y2="249.4895">
		<stop  offset="0" style="stop-color:#22B2DA"/>
		<stop  offset="5.078889e-02" style="stop-color:#34B8DC"/>
		<stop  offset="0.3988" style="stop-color:#AFE2EC"/>
		<stop  offset="1" style="stop-color:#EEF9FC"/>
	</linearGradient>
	<path id="globe_x5F_blue_6_" class="st1" d="M153.2,153.5c53,0,96,43,96,96c0,10.6-1.7,21.2-5.2,31.2
		c-12.9,37.7-48.7,64.8-90.8,64.8c-53,0-96-43-96-96S100.2,153.5,153.2,153.5z"/>
	<linearGradient id="globe_x5F_blue_13_" gradientUnits="userSpaceOnUse" x1="1621.5643" y1="602.642" x2="2130.04" y2="915.6241">
		<stop  offset="0" style="stop-color:#22B2DA"/>
		<stop  offset="5.078889e-02" style="stop-color:#34B8DC"/>
		<stop  offset="0.3988" style="stop-color:#AFE2EC"/>
		<stop  offset="1" style="stop-color:#EEF9FC"/>
	</linearGradient>
	
		<linearGradient id="globe_x5F_blue_14_" gradientUnits="userSpaceOnUse" x1="1673.4686" y1="693.7783" x2="1865.7828" y2="693.7783">
		<stop  offset="0" style="stop-color:#22B2DA"/>
		<stop  offset="5.078889e-02" style="stop-color:#34B8DC"/>
		<stop  offset="0.3988" style="stop-color:#AFE2EC"/>
		<stop  offset="1" style="stop-color:#EEF9FC"/>
	</linearGradient>
	<path id="globe_x5F_blue_5_" class="st2" d="M1769.6,597.8c53,0,96,43,96,96c0,10.6-1.7,21.2-5.2,31.2
		c-12.9,37.7-48.7,64.8-90.8,64.8c-53,0-96-43-96-96C1673.6,640.8,1716.6,597.8,1769.6,597.8z"/>
	
		<linearGradient id="globe_x5F_blue_15_" gradientUnits="userSpaceOnUse" x1="1204.8535" y1="201.1627" x2="1713.3291" y2="514.1448">
		<stop  offset="0" style="stop-color:#22B2DA"/>
		<stop  offset="5.078889e-02" style="stop-color:#34B8DC"/>
		<stop  offset="0.3988" style="stop-color:#AFE2EC"/>
		<stop  offset="1" style="stop-color:#EEF9FC"/>
	</linearGradient>
	<linearGradient id="globe_x5F_blue_16_" gradientUnits="userSpaceOnUse" x1="1256.7578" y1="292.299" x2="1449.0721" y2="292.299">
		<stop  offset="0" style="stop-color:#22B2DA"/>
		<stop  offset="5.078889e-02" style="stop-color:#34B8DC"/>
		<stop  offset="0.3988" style="stop-color:#AFE2EC"/>
		<stop  offset="1" style="stop-color:#EEF9FC"/>
	</linearGradient>
	<path id="globe_x5F_blue_4_" class="st3" d="M1352.9,196.3c53,0,96,43,96,96c0,10.6-1.7,21.2-5.2,31.2
		c-12.9,37.7-48.7,64.8-90.8,64.8c-53,0-96-43-96-96S1299.9,196.3,1352.9,196.3z"/>
	<linearGradient id="globe_x5F_blue_17_" gradientUnits="userSpaceOnUse" x1="393.9749" y1="698.642" x2="902.4505" y2="1011.6241">
		<stop  offset="0" style="stop-color:#22B2DA"/>
		<stop  offset="5.078889e-02" style="stop-color:#34B8DC"/>
		<stop  offset="0.3988" style="stop-color:#AFE2EC"/>
		<stop  offset="1" style="stop-color:#EEF9FC"/>
	</linearGradient>
	<linearGradient id="globe_x5F_blue_18_" gradientUnits="userSpaceOnUse" x1="445.8791" y1="789.7783" x2="638.1935" y2="789.7783">
		<stop  offset="0" style="stop-color:#22B2DA"/>
		<stop  offset="5.078889e-02" style="stop-color:#34B8DC"/>
		<stop  offset="0.3988" style="stop-color:#AFE2EC"/>
		<stop  offset="1" style="stop-color:#EEF9FC"/>
	</linearGradient>
	<path id="globe_x5F_blue_8_" class="st4" d="M542,693.8c53,0,96,43,96,96c0,10.6-1.7,21.2-5.2,31.2c-12.9,37.7-48.7,64.8-90.8,64.8
		c-53,0-96-43-96-96C446,736.8,489,693.8,542,693.8z"/>
	
		<linearGradient id="globe_x5F_blue_19_" gradientUnits="userSpaceOnUse" x1="993.3002" y1="676.4618" x2="1307.1726" y2="869.6598">
		<stop  offset="0" style="stop-color:#22B2DA"/>
		<stop  offset="5.078889e-02" style="stop-color:#34B8DC"/>
		<stop  offset="0.3988" style="stop-color:#AFE2EC"/>
		<stop  offset="1" style="stop-color:#EEF9FC"/>
	</linearGradient>
	
		<linearGradient id="globe_x5F_blue_20_" gradientUnits="userSpaceOnUse" x1="1025.3396" y1="732.7185" x2="1144.0516" y2="732.7185">
		<stop  offset="0" style="stop-color:#22B2DA"/>
		<stop  offset="5.078889e-02" style="stop-color:#34B8DC"/>
		<stop  offset="0.3988" style="stop-color:#AFE2EC"/>
		<stop  offset="1" style="stop-color:#EEF9FC"/>
	</linearGradient>
	<path id="globe_x5F_blue_3_" class="st5" d="M1084.7,673.5c32.7,0,59.3,26.5,59.3,59.3c0,6.6-1.1,13.1-3.2,19.3
		c-8,23.2-30.1,40-56,40c-32.7,0-59.3-26.5-59.3-59.3S1052,673.5,1084.7,673.5z"/>
	<linearGradient id="globe_x5F_blue_21_" gradientUnits="userSpaceOnUse" x1="47.4638" y1="613.8604" x2="361.3363" y2="807.0583">
		<stop  offset="0" style="stop-color:#22B2DA"/>
		<stop  offset="5.078889e-02" style="stop-color:#34B8DC"/>
		<stop  offset="0.3988" style="stop-color:#AFE2EC"/>
		<stop  offset="1" style="stop-color:#EEF9FC"/>
	</linearGradient>
	<linearGradient id="globe_x5F_blue_22_" gradientUnits="userSpaceOnUse" x1="79.5033" y1="670.1171" x2="198.2154" y2="670.1171">
		<stop  offset="0" style="stop-color:#22B2DA"/>
		<stop  offset="5.078889e-02" style="stop-color:#34B8DC"/>
		<stop  offset="0.3988" style="stop-color:#AFE2EC"/>
		<stop  offset="1" style="stop-color:#EEF9FC"/>
	</linearGradient>
	<path id="globe_x5F_blue_7_" class="st6" d="M138.9,610.9c32.7,0,59.3,26.5,59.3,59.3c0,6.6-1.1,13.1-3.2,19.3
		c-8,23.2-30.1,40-56,40c-32.7,0-59.3-26.5-59.3-59.3S106.1,610.9,138.9,610.9z"/>
	
		<linearGradient id="globe_x5F_blue_23_" gradientUnits="userSpaceOnUse" x1="1357.5194" y1="505.8374" x2="1671.3918" y2="699.0353">
		<stop  offset="0" style="stop-color:#22B2DA"/>
		<stop  offset="5.078889e-02" style="stop-color:#34B8DC"/>
		<stop  offset="0.3988" style="stop-color:#AFE2EC"/>
		<stop  offset="1" style="stop-color:#EEF9FC"/>
	</linearGradient>
	<linearGradient id="globe_x5F_blue_24_" gradientUnits="userSpaceOnUse" x1="1389.559" y1="562.0941" x2="1508.271" y2="562.0941">
		<stop  offset="0" style="stop-color:#22B2DA"/>
		<stop  offset="5.078889e-02" style="stop-color:#34B8DC"/>
		<stop  offset="0.3988" style="stop-color:#AFE2EC"/>
		<stop  offset="1" style="stop-color:#EEF9FC"/>
	</linearGradient>
	<path id="globe_x5F_blue_2_" class="st7" d="M1448.9,502.8c32.7,0,59.3,26.5,59.3,59.3c0,6.6-1.1,13.1-3.2,19.3
		c-8,23.2-30.1,40-56,40c-32.7,0-59.3-26.5-59.3-59.3C1389.7,529.4,1416.2,502.8,1448.9,502.8z"/>
	<linearGradient id="globe_x5F_blue_25_" gradientUnits="userSpaceOnUse" x1="250.9228" y1="446.5784" x2="564.7952" y2="639.7764">
		<stop  offset="0" style="stop-color:#22B2DA"/>
		<stop  offset="5.078889e-02" style="stop-color:#34B8DC"/>
		<stop  offset="0.3988" style="stop-color:#AFE2EC"/>
		<stop  offset="1" style="stop-color:#EEF9FC"/>
	</linearGradient>
	<linearGradient id="globe_x5F_blue_26_" gradientUnits="userSpaceOnUse" x1="282.9623" y1="502.8351" x2="401.6743" y2="502.8351">
		<stop  offset="0" style="stop-color:#22B2DA"/>
		<stop  offset="5.078889e-02" style="stop-color:#34B8DC"/>
		<stop  offset="0.3988" style="stop-color:#AFE2EC"/>
		<stop  offset="1" style="stop-color:#EEF9FC"/>
	</linearGradient>
	<path id="globe_x5F_blue_1_" class="st8" d="M342.3,443.6c32.7,0,59.3,26.5,59.3,59.3c0,6.6-1.1,13.1-3.2,19.3
		c-8,23.2-30.1,40-56,40c-32.7,0-59.3-26.5-59.3-59.3S309.6,443.6,342.3,443.6z"/>
	<linearGradient id="globe_x5F_blue_27_" gradientUnits="userSpaceOnUse" x1="753.1276" y1="313.6711" x2="1067" y2="506.8691">
		<stop  offset="0" style="stop-color:#22B2DA"/>
		<stop  offset="5.078889e-02" style="stop-color:#34B8DC"/>
		<stop  offset="0.3988" style="stop-color:#AFE2EC"/>
		<stop  offset="1" style="stop-color:#EEF9FC"/>
	</linearGradient>
	<linearGradient id="globe_x5F_blue_28_" gradientUnits="userSpaceOnUse" x1="785.1671" y1="369.9278" x2="903.8791" y2="369.9278">
		<stop  offset="0" style="stop-color:#22B2DA"/>
		<stop  offset="5.078889e-02" style="stop-color:#34B8DC"/>
		<stop  offset="0.3988" style="stop-color:#AFE2EC"/>
		<stop  offset="1" style="stop-color:#EEF9FC"/>
	</linearGradient>
	<path id="globe_x5F_blue" class="st9" d="M844.5,310.7c32.7,0,59.3,26.5,59.3,59.3c0,6.6-1.1,13.1-3.2,19.3c-8,23.2-30.1,40-56,40
		c-32.7,0-59.3-26.5-59.3-59.3S811.8,310.7,844.5,310.7z"/>
	<linearGradient id="globe_x5F_blue_29_" gradientUnits="userSpaceOnUse" x1="710.0266" y1="541.5215" x2="1023.899" y2="734.7195">
		<stop  offset="0" style="stop-color:#22B2DA"/>
		<stop  offset="5.078889e-02" style="stop-color:#34B8DC"/>
		<stop  offset="0.3988" style="stop-color:#AFE2EC"/>
		<stop  offset="1" style="stop-color:#EEF9FC"/>
	</linearGradient>
	<linearGradient id="globe_x5F_blue_30_" gradientUnits="userSpaceOnUse" x1="742.066" y1="597.7783" x2="860.7781" y2="597.7783">
		<stop  offset="0" style="stop-color:#22B2DA"/>
		<stop  offset="5.078889e-02" style="stop-color:#34B8DC"/>
		<stop  offset="0.3988" style="stop-color:#AFE2EC"/>
		<stop  offset="1" style="stop-color:#EEF9FC"/>
	</linearGradient>
	<path id="globe_x5F_blue_10_" class="st10" d="M801.4,538.5c32.7,0,59.3,26.5,59.3,59.3c0,6.6-1.1,13.1-3.2,19.3
		c-8,23.2-30.1,40-56,40c-32.7,0-59.3-26.5-59.3-59.3C742.2,565.1,768.7,538.5,801.4,538.5z"/>
	
		<linearGradient id="globe_x5F_blue_31_" gradientUnits="userSpaceOnUse" x1="1618.9712" y1="176.7832" x2="1932.8436" y2="369.9812">
		<stop  offset="0" style="stop-color:#22B2DA"/>
		<stop  offset="5.078889e-02" style="stop-color:#34B8DC"/>
		<stop  offset="0.3988" style="stop-color:#AFE2EC"/>
		<stop  offset="1" style="stop-color:#EEF9FC"/>
	</linearGradient>
	
		<linearGradient id="globe_x5F_blue_32_" gradientUnits="userSpaceOnUse" x1="1651.0107" y1="233.0399" x2="1769.7228" y2="233.0399">
		<stop  offset="0" style="stop-color:#22B2DA"/>
		<stop  offset="5.078889e-02" style="stop-color:#34B8DC"/>
		<stop  offset="0.3988" style="stop-color:#AFE2EC"/>
		<stop  offset="1" style="stop-color:#EEF9FC"/>
	</linearGradient>
	<path id="globe_x5F_blue_9_" class="st11" d="M1710.4,173.8c32.7,0,59.3,26.5,59.3,59.3c0,6.6-1.1,13.1-3.2,19.3
		c-8,23.2-30.1,40-56,40c-32.7,0-59.3-26.5-59.3-59.3S1677.6,173.8,1710.4,173.8z"/>
</g>
</svg>
