<?xml version="1.0" encoding="utf-8"?>
<!-- Generator: Adobe Illustrator 24.1.3, SVG Export Plug-In . SVG Version: 6.00 Build 0)  -->
<svg version="1.1" id="Layer_1" xmlns="http://www.w3.org/2000/svg" xmlns:xlink="http://www.w3.org/1999/xlink" x="0px" y="0px"
	 viewBox="0 0 1920 1584.7" style="enable-background:new 0 0 1920 1584.7;" xml:space="preserve">
<style type="text/css">
	.st0{fill:url(#SVGID_1_);}
	.st1{opacity:0.4;fill:url(#globe_x5F_blue_15_);stroke:url(#globe_x5F_blue_16_);stroke-width:0.3143;stroke-miterlimit:10;}
	.st2{opacity:0.4;fill:url(#globe_x5F_blue_17_);stroke:url(#globe_x5F_blue_18_);stroke-width:0.3143;stroke-miterlimit:10;}
	.st3{opacity:0.4;fill:url(#globe_x5F_blue_19_);stroke:url(#globe_x5F_blue_20_);stroke-width:0.3143;stroke-miterlimit:10;}
	.st4{opacity:0.4;fill:url(#globe_x5F_blue_21_);stroke:url(#globe_x5F_blue_22_);stroke-width:0.194;stroke-miterlimit:10;}
	.st5{opacity:0.4;fill:url(#globe_x5F_blue_23_);stroke:url(#globe_x5F_blue_24_);stroke-width:0.194;stroke-miterlimit:10;}
	.st6{opacity:0.4;fill:url(#globe_x5F_blue_25_);stroke:url(#globe_x5F_blue_26_);stroke-width:0.194;stroke-miterlimit:10;}
	.st7{opacity:0.4;fill:url(#globe_x5F_blue_27_);stroke:url(#globe_x5F_blue_28_);stroke-width:0.194;stroke-miterlimit:10;}
	.st8{opacity:0.4;fill:url(#globe_x5F_blue_29_);stroke:url(#globe_x5F_blue_30_);stroke-width:0.194;stroke-miterlimit:10;}
	.st9{opacity:0.4;fill:url(#globe_x5F_blue_31_);stroke:url(#globe_x5F_blue_32_);stroke-width:0.3143;stroke-miterlimit:10;}
	.st10{opacity:0.4;fill:url(#globe_x5F_blue_33_);stroke:url(#globe_x5F_blue_34_);stroke-width:0.3143;stroke-miterlimit:10;}
	.st11{opacity:0.4;fill:url(#globe_x5F_blue_35_);stroke:url(#globe_x5F_blue_36_);stroke-width:0.3143;stroke-miterlimit:10;}
	.st12{opacity:0.4;fill:url(#globe_x5F_blue_37_);stroke:url(#globe_x5F_blue_38_);stroke-width:0.194;stroke-miterlimit:10;}
	.st13{opacity:0.4;fill:url(#globe_x5F_blue_39_);stroke:url(#globe_x5F_blue_40_);stroke-width:0.194;stroke-miterlimit:10;}
	.st14{opacity:0.4;fill:url(#globe_x5F_blue_41_);stroke:url(#globe_x5F_blue_42_);stroke-width:0.194;stroke-miterlimit:10;}
	.st15{opacity:0.4;fill:url(#globe_x5F_blue_43_);stroke:url(#globe_x5F_blue_44_);stroke-width:0.194;stroke-miterlimit:10;}
</style>
<g>
	<g>
		
			<linearGradient id="SVGID_1_" gradientUnits="userSpaceOnUse" x1="1027.5103" y1="1983.3923" x2="751.7704" y2="-2796.178" gradientTransform="matrix(1 0 0 -1 0 1584)">
			<stop  offset="0" style="stop-color:#22B2DA"/>
			<stop  offset="6.000000e-02" style="stop-color:#42BDDE"/>
			<stop  offset="0.14" style="stop-color:#69CAE3"/>
			<stop  offset="0.22" style="stop-color:#88D5E7"/>
			<stop  offset="0.29" style="stop-color:#9DDCEA"/>
			<stop  offset="0.37" style="stop-color:#ABE0EB"/>
			<stop  offset="0.44" style="stop-color:#AFE2EC"/>
			<stop  offset="1" style="stop-color:#EEF9FC"/>
		</linearGradient>
		<path class="st0" d="M1920,0v1440.7c-218.8,137.4-508.8,78.9-818.4,20.3c-262.4-49.7-538-99.1-796.3-29.2
			C200,1460.3,97.6,1508.6,0,1584.8v-451.6V100.9c171.3-98.5,359.9,25.6,445.2,60.4C1082.4,420.6,1519.3,0,1920,0z"/>
	</g>
</g>
<g id="globes_x5F_blue">
	
		<linearGradient id="globe_x5F_blue_15_" gradientUnits="userSpaceOnUse" x1="46.2006" y1="1218.0945" x2="554.6762" y2="1531.0765">
		<stop  offset="0" style="stop-color:#22B2DA"/>
		<stop  offset="5.078889e-02" style="stop-color:#34B8DC"/>
		<stop  offset="0.3988" style="stop-color:#AFE2EC"/>
		<stop  offset="1" style="stop-color:#EEF9FC"/>
	</linearGradient>
	
		<linearGradient id="globe_x5F_blue_16_" gradientUnits="userSpaceOnUse" x1="98.1049" y1="1309.2307" x2="290.4192" y2="1309.2307">
		<stop  offset="0" style="stop-color:#22B2DA"/>
		<stop  offset="5.078889e-02" style="stop-color:#34B8DC"/>
		<stop  offset="0.3988" style="stop-color:#AFE2EC"/>
		<stop  offset="1" style="stop-color:#EEF9FC"/>
	</linearGradient>
	<path id="globe_x5F_blue_13_" class="st1" d="M194.3,1213.2c53,0,96,43,96,96c0,10.6-1.7,21.2-5.2,31.2
		c-12.9,37.7-48.7,64.8-90.8,64.8c-53,0-96-43-96-96C98.3,1256.2,141.2,1213.2,194.3,1213.2z"/>
	
		<linearGradient id="globe_x5F_blue_17_" gradientUnits="userSpaceOnUse" x1="942.7885" y1="996.5913" x2="1451.264" y2="1309.5735">
		<stop  offset="0" style="stop-color:#22B2DA"/>
		<stop  offset="5.078889e-02" style="stop-color:#34B8DC"/>
		<stop  offset="0.3988" style="stop-color:#AFE2EC"/>
		<stop  offset="1" style="stop-color:#EEF9FC"/>
	</linearGradient>
	
		<linearGradient id="globe_x5F_blue_18_" gradientUnits="userSpaceOnUse" x1="994.6927" y1="1087.7275" x2="1187.0071" y2="1087.7275">
		<stop  offset="0" style="stop-color:#22B2DA"/>
		<stop  offset="5.078889e-02" style="stop-color:#34B8DC"/>
		<stop  offset="0.3988" style="stop-color:#AFE2EC"/>
		<stop  offset="1" style="stop-color:#EEF9FC"/>
	</linearGradient>
	<path id="globe_x5F_blue_12_" class="st2" d="M1090.8,991.7c53,0,96,43,96,96c0,10.6-1.7,21.2-5.2,31.2
		c-12.9,37.7-48.7,64.8-90.8,64.8c-53,0-96-43-96-96C994.8,1034.7,1037.8,991.7,1090.8,991.7z"/>
	
		<linearGradient id="globe_x5F_blue_19_" gradientUnits="userSpaceOnUse" x1="1614.4827" y1="184.413" x2="2122.9583" y2="497.3952">
		<stop  offset="0" style="stop-color:#22B2DA"/>
		<stop  offset="5.078889e-02" style="stop-color:#34B8DC"/>
		<stop  offset="0.3988" style="stop-color:#AFE2EC"/>
		<stop  offset="1" style="stop-color:#EEF9FC"/>
	</linearGradient>
	
		<linearGradient id="globe_x5F_blue_20_" gradientUnits="userSpaceOnUse" x1="1666.3868" y1="275.5493" x2="1858.7012" y2="275.5493">
		<stop  offset="0" style="stop-color:#22B2DA"/>
		<stop  offset="5.078889e-02" style="stop-color:#34B8DC"/>
		<stop  offset="0.3988" style="stop-color:#AFE2EC"/>
		<stop  offset="1" style="stop-color:#EEF9FC"/>
	</linearGradient>
	<path id="globe_x5F_blue_11_" class="st3" d="M1762.5,179.5c53,0,96,43,96,96c0,10.6-1.7,21.2-5.2,31.2
		c-12.9,37.7-48.7,64.8-90.8,64.8c-53,0-96-43-96-96S1709.5,179.5,1762.5,179.5z"/>
	
		<linearGradient id="globe_x5F_blue_21_" gradientUnits="userSpaceOnUse" x1="560.4982" y1="1142.0463" x2="874.3707" y2="1335.2443">
		<stop  offset="0" style="stop-color:#22B2DA"/>
		<stop  offset="5.078889e-02" style="stop-color:#34B8DC"/>
		<stop  offset="0.3988" style="stop-color:#AFE2EC"/>
		<stop  offset="1" style="stop-color:#EEF9FC"/>
	</linearGradient>
	<linearGradient id="globe_x5F_blue_22_" gradientUnits="userSpaceOnUse" x1="592.5377" y1="1198.303" x2="711.2498" y2="1198.303">
		<stop  offset="0" style="stop-color:#22B2DA"/>
		<stop  offset="5.078889e-02" style="stop-color:#34B8DC"/>
		<stop  offset="0.3988" style="stop-color:#AFE2EC"/>
		<stop  offset="1" style="stop-color:#EEF9FC"/>
	</linearGradient>
	<path id="globe_x5F_blue_10_" class="st4" d="M651.9,1139c32.7,0,59.3,26.5,59.3,59.3c0,6.6-1.1,13.1-3.2,19.3
		c-8,23.2-30.1,40-56,40c-32.7,0-59.3-26.5-59.3-59.3C592.6,1165.6,619.2,1139,651.9,1139z"/>
	
		<linearGradient id="globe_x5F_blue_23_" gradientUnits="userSpaceOnUse" x1="903.4543" y1="772.8743" x2="1217.3268" y2="966.0723">
		<stop  offset="0" style="stop-color:#22B2DA"/>
		<stop  offset="5.078889e-02" style="stop-color:#34B8DC"/>
		<stop  offset="0.3988" style="stop-color:#AFE2EC"/>
		<stop  offset="1" style="stop-color:#EEF9FC"/>
	</linearGradient>
	<linearGradient id="globe_x5F_blue_24_" gradientUnits="userSpaceOnUse" x1="935.4938" y1="829.131" x2="1054.2058" y2="829.131">
		<stop  offset="0" style="stop-color:#22B2DA"/>
		<stop  offset="5.078889e-02" style="stop-color:#34B8DC"/>
		<stop  offset="0.3988" style="stop-color:#AFE2EC"/>
		<stop  offset="1" style="stop-color:#EEF9FC"/>
	</linearGradient>
	<path id="globe_x5F_blue_9_" class="st5" d="M994.8,769.9c32.7,0,59.3,26.5,59.3,59.3c0,6.6-1.1,13.1-3.2,19.3
		c-8,23.2-30.1,40-56,40c-32.7,0-59.3-26.5-59.3-59.3S962.1,769.9,994.8,769.9z"/>
	<linearGradient id="globe_x5F_blue_25_" gradientUnits="userSpaceOnUse" x1="66.1255" y1="920.5431" x2="379.998" y2="1113.7411">
		<stop  offset="0" style="stop-color:#22B2DA"/>
		<stop  offset="5.078889e-02" style="stop-color:#34B8DC"/>
		<stop  offset="0.3988" style="stop-color:#AFE2EC"/>
		<stop  offset="1" style="stop-color:#EEF9FC"/>
	</linearGradient>
	<linearGradient id="globe_x5F_blue_26_" gradientUnits="userSpaceOnUse" x1="98.165" y1="976.7998" x2="216.877" y2="976.7998">
		<stop  offset="0" style="stop-color:#22B2DA"/>
		<stop  offset="5.078889e-02" style="stop-color:#34B8DC"/>
		<stop  offset="0.3988" style="stop-color:#AFE2EC"/>
		<stop  offset="1" style="stop-color:#EEF9FC"/>
	</linearGradient>
	<path id="globe_x5F_blue_14_" class="st6" d="M157.5,917.5c32.7,0,59.3,26.5,59.3,59.3c0,6.6-1.1,13.1-3.2,19.3
		c-8,23.2-30.1,40-56,40c-32.7,0-59.3-26.5-59.3-59.3C98.3,944.1,124.8,917.5,157.5,917.5z"/>
	
		<linearGradient id="globe_x5F_blue_27_" gradientUnits="userSpaceOnUse" x1="1463.3068" y1="994.3775" x2="1777.1792" y2="1187.5754">
		<stop  offset="0" style="stop-color:#22B2DA"/>
		<stop  offset="5.078889e-02" style="stop-color:#34B8DC"/>
		<stop  offset="0.3988" style="stop-color:#AFE2EC"/>
		<stop  offset="1" style="stop-color:#EEF9FC"/>
	</linearGradient>
	
		<linearGradient id="globe_x5F_blue_28_" gradientUnits="userSpaceOnUse" x1="1495.3462" y1="1050.6342" x2="1614.0582" y2="1050.6342">
		<stop  offset="0" style="stop-color:#22B2DA"/>
		<stop  offset="5.078889e-02" style="stop-color:#34B8DC"/>
		<stop  offset="0.3988" style="stop-color:#AFE2EC"/>
		<stop  offset="1" style="stop-color:#EEF9FC"/>
	</linearGradient>
	<path id="globe_x5F_blue_8_" class="st7" d="M1554.7,991.4c32.7,0,59.3,26.5,59.3,59.3c0,6.6-1.1,13.1-3.2,19.3
		c-8,23.2-30.1,40-56,40c-32.7,0-59.3-26.5-59.3-59.3S1522,991.4,1554.7,991.4z"/>
	
		<linearGradient id="globe_x5F_blue_29_" gradientUnits="userSpaceOnUse" x1="1611.8895" y1="1215.8806" x2="1925.762" y2="1409.0786">
		<stop  offset="0" style="stop-color:#22B2DA"/>
		<stop  offset="5.078889e-02" style="stop-color:#34B8DC"/>
		<stop  offset="0.3988" style="stop-color:#AFE2EC"/>
		<stop  offset="1" style="stop-color:#EEF9FC"/>
	</linearGradient>
	
		<linearGradient id="globe_x5F_blue_30_" gradientUnits="userSpaceOnUse" x1="1643.929" y1="1272.1373" x2="1762.641" y2="1272.1373">
		<stop  offset="0" style="stop-color:#22B2DA"/>
		<stop  offset="5.078889e-02" style="stop-color:#34B8DC"/>
		<stop  offset="0.3988" style="stop-color:#AFE2EC"/>
		<stop  offset="1" style="stop-color:#EEF9FC"/>
	</linearGradient>
	<path id="globe_x5F_blue_7_" class="st8" d="M1703.3,1212.9c32.7,0,59.3,26.5,59.3,59.3c0,6.6-1.1,13.1-3.2,19.3
		c-8,23.2-30.1,40-56,40c-32.7,0-59.3-26.5-59.3-59.3S1670.6,1212.9,1703.3,1212.9z"/>
	<linearGradient id="globe_x5F_blue_31_" gradientUnits="userSpaceOnUse" x1="48.2931" y1="258.2474" x2="556.7687" y2="571.2296">
		<stop  offset="0" style="stop-color:#22B2DA"/>
		<stop  offset="5.078889e-02" style="stop-color:#34B8DC"/>
		<stop  offset="0.3988" style="stop-color:#AFE2EC"/>
		<stop  offset="1" style="stop-color:#EEF9FC"/>
	</linearGradient>
	<linearGradient id="globe_x5F_blue_32_" gradientUnits="userSpaceOnUse" x1="100.1973" y1="349.3837" x2="292.5116" y2="349.3837">
		<stop  offset="0" style="stop-color:#22B2DA"/>
		<stop  offset="5.078889e-02" style="stop-color:#34B8DC"/>
		<stop  offset="0.3988" style="stop-color:#AFE2EC"/>
		<stop  offset="1" style="stop-color:#EEF9FC"/>
	</linearGradient>
	<path id="globe_x5F_blue_6_" class="st9" d="M196.4,253.4c53,0,96,43,96,96c0,10.6-1.7,21.2-5.2,31.2
		c-12.9,37.7-48.7,64.8-90.8,64.8c-53,0-96-43-96-96S143.3,253.4,196.4,253.4z"/>
	<linearGradient id="globe_x5F_blue_33_" gradientUnits="userSpaceOnUse" x1="444.5734" y1="775.0881" x2="953.049" y2="1088.0703">
		<stop  offset="0" style="stop-color:#22B2DA"/>
		<stop  offset="5.078889e-02" style="stop-color:#34B8DC"/>
		<stop  offset="0.3988" style="stop-color:#AFE2EC"/>
		<stop  offset="1" style="stop-color:#EEF9FC"/>
	</linearGradient>
	<linearGradient id="globe_x5F_blue_34_" gradientUnits="userSpaceOnUse" x1="496.4776" y1="866.2244" x2="688.7919" y2="866.2244">
		<stop  offset="0" style="stop-color:#22B2DA"/>
		<stop  offset="5.078889e-02" style="stop-color:#34B8DC"/>
		<stop  offset="0.3988" style="stop-color:#AFE2EC"/>
		<stop  offset="1" style="stop-color:#EEF9FC"/>
	</linearGradient>
	<path id="globe_x5F_blue_5_" class="st10" d="M592.6,770.2c53,0,96,43,96,96c0,10.6-1.7,21.2-5.2,31.2
		c-12.9,37.7-48.7,64.8-90.8,64.8c-53,0-96-43-96-96C496.6,813.2,539.6,770.2,592.6,770.2z"/>
	<linearGradient id="globe_x5F_blue_35_" gradientUnits="userSpaceOnUse" x1="599.8324" y1="405.9162" x2="1108.308" y2="718.8983">
		<stop  offset="0" style="stop-color:#22B2DA"/>
		<stop  offset="5.078889e-02" style="stop-color:#34B8DC"/>
		<stop  offset="0.3988" style="stop-color:#AFE2EC"/>
		<stop  offset="1" style="stop-color:#EEF9FC"/>
	</linearGradient>
	<linearGradient id="globe_x5F_blue_36_" gradientUnits="userSpaceOnUse" x1="651.7366" y1="497.0525" x2="844.0509" y2="497.0525">
		<stop  offset="0" style="stop-color:#22B2DA"/>
		<stop  offset="5.078889e-02" style="stop-color:#34B8DC"/>
		<stop  offset="0.3988" style="stop-color:#AFE2EC"/>
		<stop  offset="1" style="stop-color:#EEF9FC"/>
	</linearGradient>
	<path id="globe_x5F_blue_4_" class="st11" d="M747.9,401.1c53,0,96,43,96,96c0,10.6-1.7,21.2-5.2,31.2
		c-12.9,37.7-48.7,64.8-90.8,64.8c-53,0-96-43-96-96S694.9,401.1,747.9,401.1z"/>
	<linearGradient id="globe_x5F_blue_37_" gradientUnits="userSpaceOnUse" x1="297.0089" y1="551.3712" x2="610.8813" y2="744.5692">
		<stop  offset="0" style="stop-color:#22B2DA"/>
		<stop  offset="5.078889e-02" style="stop-color:#34B8DC"/>
		<stop  offset="0.3988" style="stop-color:#AFE2EC"/>
		<stop  offset="1" style="stop-color:#EEF9FC"/>
	</linearGradient>
	<linearGradient id="globe_x5F_blue_38_" gradientUnits="userSpaceOnUse" x1="329.0484" y1="607.6279" x2="447.7604" y2="607.6279">
		<stop  offset="0" style="stop-color:#22B2DA"/>
		<stop  offset="5.078889e-02" style="stop-color:#34B8DC"/>
		<stop  offset="0.3988" style="stop-color:#AFE2EC"/>
		<stop  offset="1" style="stop-color:#EEF9FC"/>
	</linearGradient>
	<path id="globe_x5F_blue_3_" class="st12" d="M388.4,548.4c32.7,0,59.3,26.5,59.3,59.3c0,6.6-1.1,13.1-3.2,19.3
		c-8,23.2-30.1,40-56,40c-32.7,0-59.3-26.5-59.3-59.3C329.1,574.9,355.7,548.4,388.4,548.4z"/>
	
		<linearGradient id="globe_x5F_blue_39_" gradientUnits="userSpaceOnUse" x1="1651.2964" y1="625.2056" x2="1965.1688" y2="818.4036">
		<stop  offset="0" style="stop-color:#22B2DA"/>
		<stop  offset="5.078889e-02" style="stop-color:#34B8DC"/>
		<stop  offset="0.3988" style="stop-color:#AFE2EC"/>
		<stop  offset="1" style="stop-color:#EEF9FC"/>
	</linearGradient>
	
		<linearGradient id="globe_x5F_blue_40_" gradientUnits="userSpaceOnUse" x1="1683.3358" y1="681.4622" x2="1802.0479" y2="681.4622">
		<stop  offset="0" style="stop-color:#22B2DA"/>
		<stop  offset="5.078889e-02" style="stop-color:#34B8DC"/>
		<stop  offset="0.3988" style="stop-color:#AFE2EC"/>
		<stop  offset="1" style="stop-color:#EEF9FC"/>
	</linearGradient>
	<path id="globe_x5F_blue_2_" class="st13" d="M1742.7,622.2c32.7,0,59.3,26.5,59.3,59.3c0,6.6-1.1,13.1-3.2,19.3
		c-8,23.2-30.1,40-56,40c-32.7,0-59.3-26.5-59.3-59.3S1710,622.2,1742.7,622.2z"/>
	
		<linearGradient id="globe_x5F_blue_41_" gradientUnits="userSpaceOnUse" x1="1194.1624" y1="403.7024" x2="1508.0348" y2="596.9004">
		<stop  offset="0" style="stop-color:#22B2DA"/>
		<stop  offset="5.078889e-02" style="stop-color:#34B8DC"/>
		<stop  offset="0.3988" style="stop-color:#AFE2EC"/>
		<stop  offset="1" style="stop-color:#EEF9FC"/>
	</linearGradient>
	
		<linearGradient id="globe_x5F_blue_42_" gradientUnits="userSpaceOnUse" x1="1226.2019" y1="459.9591" x2="1344.9139" y2="459.9591">
		<stop  offset="0" style="stop-color:#22B2DA"/>
		<stop  offset="5.078889e-02" style="stop-color:#34B8DC"/>
		<stop  offset="0.3988" style="stop-color:#AFE2EC"/>
		<stop  offset="1" style="stop-color:#EEF9FC"/>
	</linearGradient>
	<path id="globe_x5F_blue_1_" class="st14" d="M1285.6,400.7c32.7,0,59.3,26.5,59.3,59.3c0,6.6-1.1,13.1-3.2,19.3
		c-8,23.2-30.1,40-56,40c-32.7,0-59.3-26.5-59.3-59.3S1252.8,400.7,1285.6,400.7z"/>
	
		<linearGradient id="globe_x5F_blue_43_" gradientUnits="userSpaceOnUse" x1="1253.4214" y1="699.0399" x2="1567.2938" y2="892.2379">
		<stop  offset="0" style="stop-color:#22B2DA"/>
		<stop  offset="5.078889e-02" style="stop-color:#34B8DC"/>
		<stop  offset="0.3988" style="stop-color:#AFE2EC"/>
		<stop  offset="1" style="stop-color:#EEF9FC"/>
	</linearGradient>
	
		<linearGradient id="globe_x5F_blue_44_" gradientUnits="userSpaceOnUse" x1="1285.4609" y1="755.2966" x2="1404.173" y2="755.2966">
		<stop  offset="0" style="stop-color:#22B2DA"/>
		<stop  offset="5.078889e-02" style="stop-color:#34B8DC"/>
		<stop  offset="0.3988" style="stop-color:#AFE2EC"/>
		<stop  offset="1" style="stop-color:#EEF9FC"/>
	</linearGradient>
	<path id="globe_x5F_blue" class="st15" d="M1344.8,696c32.7,0,59.3,26.5,59.3,59.3c0,6.6-1.1,13.1-3.2,19.3c-8,23.2-30.1,40-56,40
		c-32.7,0-59.3-26.5-59.3-59.3C1285.6,722.6,1312.1,696,1344.8,696z"/>
</g>
</svg>
