<svg xmlns="http://www.w3.org/2000/svg" viewBox="0 0 576 2160"><linearGradient id="a" gradientUnits="userSpaceOnUse" x1="369.72" y1="2496.5" x2="224.94" y2="-12.98" gradientTransform="matrix(1 0 0 -1 0 2160)"><stop offset="0" stop-color="#22b2da"/><stop offset=".06" stop-color="#42bdde"/><stop offset=".14" stop-color="#69cae3"/><stop offset=".22" stop-color="#88d5e7"/><stop offset=".29" stop-color="#9ddcea"/><stop offset=".37" stop-color="#abe0eb"/><stop offset=".44" stop-color="#afe2ec"/><stop offset="1" stop-color="#eef9fc"/></linearGradient><path d="M0 0h576v2160H0V0z" fill="url(#a)"/><linearGradient id="b" gradientUnits="userSpaceOnUse" x1="411.68" y1="-255.27" x2="111.5" y2="1447.12" gradientTransform="matrix(1 0 0 -1 0 2160)"><stop offset="0" stop-color="#da4a22"/><stop offset=".52" stop-color="#ff7650"/><stop offset="1" stop-color="#ffbdaa"/></linearGradient><path d="M576 1267.7V2160H0V732.5c243.2 467.5 424.8 592.7 576 535.2z" fill="url(#b)"/><linearGradient id="c" gradientUnits="userSpaceOnUse" x1="-4.07" y1="84.91" x2="504.4" y2="397.9"><stop offset="0" stop-color="#22b2da"/><stop offset=".05" stop-color="#34b8dc"/><stop offset=".4" stop-color="#afe2ec"/><stop offset="1" stop-color="#eef9fc"/></linearGradient><linearGradient id="d" gradientUnits="userSpaceOnUse" x1="47.83" y1="176.05" x2="240.14" y2="176.05"><stop offset="0" stop-color="#22b2da"/><stop offset=".05" stop-color="#34b8dc"/><stop offset=".4" stop-color="#afe2ec"/><stop offset="1" stop-color="#eef9fc"/></linearGradient><path d="M144 80.1c53 0 96 43 96 96a95.97 95.97 0 01-96 96c-53 0-96-43-96-96s43-96 96-96z" opacity=".4" fill="url(#c)" stroke="url(#d)" stroke-width=".31" stroke-miterlimit="10"/><linearGradient id="e" gradientUnits="userSpaceOnUse" x1="282.88" y1="599.2" x2="791.36" y2="912.18"><stop offset="0" stop-color="#22b2da"/><stop offset=".05" stop-color="#34b8dc"/><stop offset=".4" stop-color="#afe2ec"/><stop offset="1" stop-color="#eef9fc"/></linearGradient><linearGradient id="f" gradientUnits="userSpaceOnUse" x1="334.78" y1="690.34" x2="527.1" y2="690.34"><stop offset="0" stop-color="#22b2da"/><stop offset=".05" stop-color="#34b8dc"/><stop offset=".4" stop-color="#afe2ec"/><stop offset="1" stop-color="#eef9fc"/></linearGradient><path d="M430.9 594.3c53 0 96 43 96 96a95.97 95.97 0 01-96 96c-53 0-96-43-96-96s43-96 96-96z" opacity=".4" fill="url(#e)" stroke="url(#f)" stroke-width=".31" stroke-miterlimit="10"/><linearGradient id="g" gradientUnits="userSpaceOnUse" x1="377.36" y1="119.79" x2="691.23" y2="312.99"><stop offset="0" stop-color="#22b2da"/><stop offset=".05" stop-color="#34b8dc"/><stop offset=".4" stop-color="#afe2ec"/><stop offset="1" stop-color="#eef9fc"/></linearGradient><linearGradient id="h" gradientUnits="userSpaceOnUse" x1="409.4" y1="176.05" x2="528.11" y2="176.05"><stop offset="0" stop-color="#22b2da"/><stop offset=".05" stop-color="#34b8dc"/><stop offset=".4" stop-color="#afe2ec"/><stop offset="1" stop-color="#eef9fc"/></linearGradient><path d="M468.8 116.8a59.3 59.3 0 0159.3 59.3c0 6.6-1.1 13.1-3.2 19.3-8 23.2-30.1 40-56 40-32.7 0-59.3-26.5-59.3-59.3s26.4-59.3 59.2-59.3z" opacity=".4" fill="url(#g)" stroke="url(#h)" stroke-width=".19" stroke-miterlimit="10"/><linearGradient id="i" gradientUnits="userSpaceOnUse" x1="52.59" y1="651.42" x2="366.46" y2="844.61"><stop offset="0" stop-color="#22b2da"/><stop offset=".05" stop-color="#34b8dc"/><stop offset=".4" stop-color="#afe2ec"/><stop offset="1" stop-color="#eef9fc"/></linearGradient><linearGradient id="j" gradientUnits="userSpaceOnUse" x1="84.63" y1="707.67" x2="203.34" y2="707.67"><stop offset="0" stop-color="#22b2da"/><stop offset=".05" stop-color="#34b8dc"/><stop offset=".4" stop-color="#afe2ec"/><stop offset="1" stop-color="#eef9fc"/></linearGradient><path d="M144 648.4a59.3 59.3 0 0159.3 59.3c0 6.6-1.1 13.1-3.2 19.3-8 23.2-30.1 40-56 40-32.7 0-59.3-26.5-59.3-59.3s26.5-59.3 59.2-59.3z" opacity=".4" fill="url(#i)" stroke="url(#j)" stroke-width=".19" stroke-miterlimit="10"/><linearGradient id="k" gradientUnits="userSpaceOnUse" x1="339.55" y1="1032.58" x2="653.42" y2="1225.78"><stop offset="0" stop-color="#22b2da"/><stop offset=".05" stop-color="#34b8dc"/><stop offset=".4" stop-color="#afe2ec"/><stop offset="1" stop-color="#eef9fc"/></linearGradient><linearGradient id="l" gradientUnits="userSpaceOnUse" x1="371.59" y1="1088.83" x2="490.3" y2="1088.83"><stop offset="0" stop-color="#22b2da"/><stop offset=".05" stop-color="#34b8dc"/><stop offset=".4" stop-color="#afe2ec"/><stop offset="1" stop-color="#eef9fc"/></linearGradient><path d="M430.9 1029.6a59.3 59.3 0 0159.3 59.3c0 6.6-1.1 13.1-3.2 19.3-8 23.2-30.1 40-56 40-32.7 0-59.3-26.5-59.3-59.3s26.5-59.3 59.2-59.3z" opacity=".4" fill="url(#k)" stroke="url(#l)" stroke-width=".19" stroke-miterlimit="10"/><linearGradient id="m" gradientUnits="userSpaceOnUse" x1="171.11" y1="370.17" x2="484.98" y2="563.37"><stop offset="0" stop-color="#22b2da"/><stop offset=".05" stop-color="#34b8dc"/><stop offset=".4" stop-color="#afe2ec"/><stop offset="1" stop-color="#eef9fc"/></linearGradient><linearGradient id="n" gradientUnits="userSpaceOnUse" x1="203.15" y1="426.43" x2="321.86" y2="426.43"><stop offset="0" stop-color="#22b2da"/><stop offset=".05" stop-color="#34b8dc"/><stop offset=".4" stop-color="#afe2ec"/><stop offset="1" stop-color="#eef9fc"/></linearGradient><path d="M262.5 367.2a59.3 59.3 0 0159.3 59.3c0 6.6-1.1 13.1-3.2 19.3-8 23.2-30.1 40-56 40-32.7 0-59.3-26.5-59.3-59.3s26.5-59.3 59.2-59.3z" opacity=".4" fill="url(#m)" stroke="url(#n)" stroke-width=".19" stroke-miterlimit="10"/><g><linearGradient id="o" gradientUnits="userSpaceOnUse" x1="366.65" y1="1962.88" x2="552.12" y2="2093.07"><stop offset="0" stop-color="#da4a22"/><stop offset=".33" stop-color="#ec5b33"/><stop offset="1" stop-color="#ffbdaa"/></linearGradient><path d="M468.8 1975.3a59.3 59.3 0 0159.3 59.3c0 6.6-1.1 13.1-3.2 19.3-8 23.2-30.1 40-56 40-32.7 0-59.3-26.5-59.3-59.3s26.4-59.3 59.2-59.3z" opacity=".4" fill="url(#o)"/><linearGradient id="p" gradientUnits="userSpaceOnUse" x1="366.65" y1="1406.34" x2="552.12" y2="1536.52"><stop offset="0" stop-color="#da4a22"/><stop offset=".33" stop-color="#ec5b33"/><stop offset="1" stop-color="#ffbdaa"/></linearGradient><path d="M468.8 1418.8a59.3 59.3 0 0159.3 59.3c0 6.6-1.1 13.1-3.2 19.3-8 23.2-30.1 40-56 40-32.7 0-59.3-26.5-59.3-59.3s26.4-59.3 59.2-59.3z" opacity=".4" fill="url(#p)"/><linearGradient id="q" gradientUnits="userSpaceOnUse" x1="27.66" y1="1962.88" x2="213.13" y2="2093.07"><stop offset="0" stop-color="#da4a22"/><stop offset=".33" stop-color="#ec5b33"/><stop offset="1" stop-color="#ffbdaa"/></linearGradient><path d="M129.8 1975.3a59.3 59.3 0 0159.3 59.3c0 6.6-1.1 13.1-3.2 19.3-8 23.2-30.1 40-56 40-32.7 0-59.3-26.5-59.3-59.3s26.4-59.3 59.2-59.3z" opacity=".4" fill="url(#q)"/><linearGradient id="r" gradientUnits="userSpaceOnUse" x1="41.88" y1="1502.34" x2="227.35" y2="1632.52"><stop offset="0" stop-color="#da4a22"/><stop offset=".33" stop-color="#ec5b33"/><stop offset="1" stop-color="#ffbdaa"/></linearGradient><path d="M144 1514.8a59.3 59.3 0 0159.3 59.3c0 6.6-1.1 13.1-3.2 19.3-8 23.2-30.1 40-56 40-32.7 0-59.3-26.5-59.3-59.3s26.5-59.3 59.2-59.3z" opacity=".4" fill="url(#r)"/><linearGradient id="s" gradientUnits="userSpaceOnUse" x1="-35.65" y1="1110.64" x2="264.82" y2="1321.54"><stop offset="0" stop-color="#da4a22"/><stop offset=".33" stop-color="#ec5b33"/><stop offset="1" stop-color="#ffbdaa"/></linearGradient><path d="M129.8 1130.8c53 0 96 43 96 96a95.97 95.97 0 01-96 96c-53 0-96-43-96-96s42.9-96 96-96z" opacity=".4" fill="url(#s)"/><linearGradient id="t" gradientUnits="userSpaceOnUse" x1="169.45" y1="1662.98" x2="469.91" y2="1873.89" gradientTransform="rotate(-3.74 299.2 1776.83) scale(1.00003)"><stop offset="0" stop-color="#da4a22"/><stop offset=".33" stop-color="#ec5b33"/><stop offset="1" stop-color="#ffbdaa"/></linearGradient><path d="M328.7 1681c52.9-3.5 98.6 36.6 102.1 89.5.7 10.6-.4 21.3-3.2 31.5-10.5 38.4-44.4 67.8-86.4 70.5-52.9 3.5-98.6-36.6-102.1-89.5-3.4-52.9 36.7-98.6 89.6-102z" opacity=".4" fill="url(#t)"/></g></svg>