<svg data-name="Layer 1" xmlns="http://www.w3.org/2000/svg" xmlns:xlink="http://www.w3.org/1999/xlink" viewBox="0 0 1920 2160"><defs><linearGradient id="c" x1="1044.61" y1="2546.58" x2="894.71" y2="-51.62" gradientTransform="matrix(1 0 0 -1 0 2160)" gradientUnits="userSpaceOnUse"><stop offset="0" stop-color="#22b2da"/><stop offset=".06" stop-color="#42bdde"/><stop offset=".14" stop-color="#69cae3"/><stop offset=".22" stop-color="#88d5e7"/><stop offset=".29" stop-color="#9ddcea"/><stop offset=".37" stop-color="#abe0eb"/><stop offset=".43" stop-color="#afe2ec"/><stop offset="1" stop-color="#eef9fc"/></linearGradient><linearGradient id="d" x1="2558.73" y1="-2185.46" x2="2217.6" y2="-250.8" gradientTransform="matrix(-1 0 0 1 3340 2551.44)" gradientUnits="userSpaceOnUse"><stop offset="0" stop-color="#da4a22"/><stop offset=".52" stop-color="#ff7650"/><stop offset="1" stop-color="#ffbdaa"/></linearGradient><linearGradient id="a" x1="126.32" y1="131.72" x2="634.8" y2="444.7" gradientUnits="userSpaceOnUse"><stop offset="0" stop-color="#22b2da"/><stop offset=".05" stop-color="#34b8dc"/><stop offset=".4" stop-color="#afe2ec"/><stop offset="1" stop-color="#eef9fc"/></linearGradient><linearGradient id="e" x1="178.23" y1="222.86" x2="370.54" y2="222.86" xlink:href="#a"/><linearGradient id="f" x1="126.32" y1="662.66" x2="634.8" y2="975.64" xlink:href="#a"/><linearGradient id="g" x1="178.23" y1="753.8" x2="370.54" y2="753.8" xlink:href="#a"/><linearGradient id="h" x1="1163.94" y1="205.2" x2="1672.41" y2="518.19" xlink:href="#a"/><linearGradient id="i" x1="1215.84" y1="296.34" x2="1408.16" y2="296.34" xlink:href="#a"/><linearGradient id="j" x1="681.49" y1="565.82" x2="995.36" y2="759.02" xlink:href="#a"/><linearGradient id="k" x1="713.53" y1="622.08" x2="832.24" y2="622.08" xlink:href="#a"/><linearGradient id="l" x1="1667.97" y1="144.08" x2="1981.85" y2="337.28" xlink:href="#a"/><linearGradient id="m" x1="1700.01" y1="200.34" x2="1818.72" y2="200.34" xlink:href="#a"/><linearGradient id="n" x1="717.29" y1="166.6" x2="1031.16" y2="359.8" xlink:href="#a"/><linearGradient id="o" x1="749.33" y1="222.86" x2="868.04" y2="222.86" xlink:href="#a"/><linearGradient id="p" x1="436.26" y1="1006.49" x2="750.14" y2="1199.69" xlink:href="#a"/><linearGradient id="q" x1="468.3" y1="1062.75" x2="587.02" y2="1062.75" xlink:href="#a"/><linearGradient id="b" x1="1598" y1="1141.3" x2="1783.47" y2="1271.48" gradientUnits="userSpaceOnUse"><stop offset="0" stop-color="#da4a22"/><stop offset=".33" stop-color="#ec5b33"/><stop offset="1" stop-color="#ffbdaa"/></linearGradient><linearGradient id="r" x1="844.34" y1="1884.78" x2="1029.81" y2="2014.97" xlink:href="#b"/><linearGradient id="s" x1="1067.22" y1="1200.55" x2="1252.69" y2="1330.74" xlink:href="#b"/><linearGradient id="t" x1="76.28" y1="1869.61" x2="261.75" y2="1999.79" xlink:href="#b"/><linearGradient id="u" x1="35.49" y1="1385.9" x2="335.95" y2="1596.81" xlink:href="#b"/><linearGradient id="v" x1="1268.12" y1="1528.88" x2="1568.58" y2="1739.78" xlink:href="#b"/><linearGradient id="w" x1="517.5" y1="1528.88" x2="817.97" y2="1739.78" xlink:href="#b"/><linearGradient id="x" x1="1386.61" y1="637.69" x2="1687.07" y2="848.59" xlink:href="#b"/><linearGradient id="y" x1="1505.15" y1="1824.6" x2="1805.62" y2="2035.5" xlink:href="#b"/></defs><path d="M0 0h1920v2160H0z" fill="url(#c)"/><path d="M0 1006.75C960 2160 960-19.63 1920 599.26V2160H0z" fill="url(#d)"/><g stroke-miterlimit="10"><path d="M274.38 126.86a96 96 0 11-96 96 96 96 0 0196-96z" stroke-width=".31" opacity=".4" fill="url(#a)" stroke="url(#e)"/><path data-name="globe_blue" d="M274.38 657.8a96 96 0 11-96 96 96 96 0 0196-96z" stroke-width=".31" opacity=".4" fill="url(#f)" stroke="url(#g)"/><path data-name="globe_blue" d="M1312 200.34a96 96 0 11-96 96 96 96 0 0196-96z" stroke-width=".31" opacity=".4" fill="url(#h)" stroke="url(#i)"/><path data-name="globe_blue" d="M772.89 562.82a59.26 59.26 0 11-59.26 59.26 59.26 59.26 0 0159.26-59.26z" stroke-width=".19" opacity=".4" fill="url(#j)" stroke="url(#k)"/><path data-name="globe_blue" d="M1759.37 141.08a59.26 59.26 0 11-59.26 59.26 59.26 59.26 0 0159.26-59.26z" stroke-width=".19" opacity=".4" fill="url(#l)" stroke="url(#m)"/><path data-name="globe_blue" d="M808.68 163.6a59.26 59.26 0 11-59.26 59.26 59.26 59.26 0 0159.26-59.26z" stroke-width=".19" opacity=".4" fill="url(#n)" stroke="url(#o)"/><path data-name="globe_blue" d="M527.66 1003.49a59.26 59.26 0 11-59.26 59.26 59.26 59.26 0 0159.26-59.26z" stroke-width=".19" opacity=".4" fill="url(#p)" stroke="url(#q)"/></g><path d="M1700.11 1153.7a59.26 59.26 0 11-59.26 59.27 59.26 59.26 0 0159.26-59.26z" opacity=".4" fill="url(#b)"/><path data-name="globe_red" d="M946.45 1897.2a59.26 59.26 0 11-59.26 59.26 59.26 59.26 0 0159.26-59.26z" opacity=".4" fill="url(#r)"/><path data-name="globe_red" d="M1169.33 1212.97a59.26 59.26 0 11-59.26 59.26 59.26 59.26 0 0159.26-59.26z" opacity=".4" fill="url(#s)"/><path data-name="globe_red" d="M178.38 1882.02a59.26 59.26 0 11-59.26 59.26 59.26 59.26 0 0159.26-59.26z" opacity=".4" fill="url(#t)"/><path data-name="globe_red" d="M200.9 1406.01a96 96 0 11-96 96 96 96 0 0196-96z" opacity=".4" fill="url(#u)"/><path data-name="globe_red" d="M1433.53 1549a96 96 0 11-96 96 96 96 0 0196-96z" opacity=".4" fill="url(#v)"/><path data-name="globe_red" d="M682.92 1549a96 96 0 11-96 96 96 96 0 0196-96z" opacity=".4" fill="url(#w)"/><path data-name="globe_red" d="M1552.03 657.8a96 96 0 11-96 96 96 96 0 0196-96z" opacity=".4" fill="url(#x)"/><path data-name="globe_red" d="M1670.57 1844.7a96 96 0 11-96 96 96 96 0 0196-96z" opacity=".4" fill="url(#y)"/></svg>