<svg xmlns="http://www.w3.org/2000/svg" viewBox="0 0 520.2 951"><linearGradient id="a" gradientUnits="userSpaceOnUse" x1="294.56" y1="1142.41" x2="137.98" y2="-1571.69" gradientTransform="matrix(1 0 0 -1 0 950)"><stop offset="0" stop-color="#22b2da"/><stop offset=".06" stop-color="#42bdde"/><stop offset=".14" stop-color="#69cae3"/><stop offset=".22" stop-color="#88d5e7"/><stop offset=".29" stop-color="#9ddcea"/><stop offset=".37" stop-color="#abe0eb"/><stop offset=".44" stop-color="#afe2ec"/><stop offset="1" stop-color="#eef9fc"/></linearGradient><path d="M520.2 65v707.2c-31-.8-118 9.7-141.1 15.9h-.1C273.8 816.6 97.6 874.8 0 951V37.3C133.5-39.6 422.7 19 520.2 65z" fill="url(#a)"/><linearGradient id="b" gradientUnits="userSpaceOnUse" x1="-4.88" y1="154.29" x2="503.59" y2="467.27"><stop offset="0" stop-color="#22b2da"/><stop offset=".05" stop-color="#34b8dc"/><stop offset=".4" stop-color="#afe2ec"/><stop offset="1" stop-color="#eef9fc"/></linearGradient><linearGradient id="c" gradientUnits="userSpaceOnUse" x1="47.02" y1="245.42" x2="239.33" y2="245.42"><stop offset="0" stop-color="#22b2da"/><stop offset=".05" stop-color="#34b8dc"/><stop offset=".4" stop-color="#afe2ec"/><stop offset="1" stop-color="#eef9fc"/></linearGradient><path d="M143.2 149.4c53 0 96 43 96 96a95.97 95.97 0 01-96 96c-53 0-96-43-96-96s43-96 96-96z" opacity=".4" fill="url(#b)" stroke="url(#c)" stroke-width=".31" stroke-miterlimit="10"/><linearGradient id="d" gradientUnits="userSpaceOnUse" x1="209.63" y1="522.54" x2="718.11" y2="835.52"><stop offset="0" stop-color="#22b2da"/><stop offset=".05" stop-color="#34b8dc"/><stop offset=".4" stop-color="#afe2ec"/><stop offset="1" stop-color="#eef9fc"/></linearGradient><linearGradient id="e" gradientUnits="userSpaceOnUse" x1="261.54" y1="613.67" x2="453.85" y2="613.67"><stop offset="0" stop-color="#22b2da"/><stop offset=".05" stop-color="#34b8dc"/><stop offset=".4" stop-color="#afe2ec"/><stop offset="1" stop-color="#eef9fc"/></linearGradient><path d="M357.7 517.7c53 0 96 43 96 96a95.97 95.97 0 01-96 96c-53 0-96-43-96-96s43-96 96-96z" opacity=".4" fill="url(#d)" stroke="url(#e)" stroke-width=".31" stroke-miterlimit="10"/><linearGradient id="f" gradientUnits="userSpaceOnUse" x1="51.78" y1="434.67" x2="365.65" y2="627.87"><stop offset="0" stop-color="#22b2da"/><stop offset=".05" stop-color="#34b8dc"/><stop offset=".4" stop-color="#afe2ec"/><stop offset="1" stop-color="#eef9fc"/></linearGradient><linearGradient id="g" gradientUnits="userSpaceOnUse" x1="83.82" y1="490.92" x2="202.53" y2="490.92"><stop offset="0" stop-color="#22b2da"/><stop offset=".05" stop-color="#34b8dc"/><stop offset=".4" stop-color="#afe2ec"/><stop offset="1" stop-color="#eef9fc"/></linearGradient><path d="M143.2 431.7a59.3 59.3 0 0159.3 59.3c0 6.6-1.1 13.1-3.2 19.3-8 23.2-30.1 40-56 40-32.7 0-59.3-26.5-59.3-59.3s26.4-59.3 59.2-59.3z" opacity=".4" fill="url(#f)" stroke="url(#g)" stroke-width=".19" stroke-miterlimit="10"/><linearGradient id="h" gradientUnits="userSpaceOnUse" x1="325.56" y1="311.92" x2="639.43" y2="505.12"><stop offset="0" stop-color="#22b2da"/><stop offset=".05" stop-color="#34b8dc"/><stop offset=".4" stop-color="#afe2ec"/><stop offset="1" stop-color="#eef9fc"/></linearGradient><linearGradient id="i" gradientUnits="userSpaceOnUse" x1="357.6" y1="368.17" x2="476.31" y2="368.17"><stop offset="0" stop-color="#22b2da"/><stop offset=".05" stop-color="#34b8dc"/><stop offset=".4" stop-color="#afe2ec"/><stop offset="1" stop-color="#eef9fc"/></linearGradient><path d="M417 308.9a59.3 59.3 0 0159.3 59.3c0 6.6-1.1 13.1-3.2 19.3-8 23.2-30.1 40-56 40-32.7 0-59.3-26.5-59.3-59.3s26.4-59.3 59.2-59.3z" opacity=".4" fill="url(#h)" stroke="url(#i)" stroke-width=".19" stroke-miterlimit="10"/><linearGradient id="j" gradientUnits="userSpaceOnUse" x1="266.3" y1="66.42" x2="580.17" y2="259.61"><stop offset="0" stop-color="#22b2da"/><stop offset=".05" stop-color="#34b8dc"/><stop offset=".4" stop-color="#afe2ec"/><stop offset="1" stop-color="#eef9fc"/></linearGradient><linearGradient id="k" gradientUnits="userSpaceOnUse" x1="298.34" y1="122.67" x2="417.05" y2="122.67"><stop offset="0" stop-color="#22b2da"/><stop offset=".05" stop-color="#34b8dc"/><stop offset=".4" stop-color="#afe2ec"/><stop offset="1" stop-color="#eef9fc"/></linearGradient><path d="M357.7 63.4a59.3 59.3 0 0159.3 59.3c0 6.6-1.1 13.1-3.2 19.3-8 23.2-30.1 40-56 40-32.7 0-59.3-26.5-59.3-59.3s26.5-59.3 59.2-59.3z" opacity=".4" fill="url(#j)" stroke="url(#k)" stroke-width=".19" stroke-miterlimit="10"/><linearGradient id="l" gradientUnits="userSpaceOnUse" x1="29.26" y1="680.17" x2="343.14" y2="873.37"><stop offset="0" stop-color="#22b2da"/><stop offset=".05" stop-color="#34b8dc"/><stop offset=".4" stop-color="#afe2ec"/><stop offset="1" stop-color="#eef9fc"/></linearGradient><linearGradient id="m" gradientUnits="userSpaceOnUse" x1="61.3" y1="736.43" x2="180.01" y2="736.43"><stop offset="0" stop-color="#22b2da"/><stop offset=".05" stop-color="#34b8dc"/><stop offset=".4" stop-color="#afe2ec"/><stop offset="1" stop-color="#eef9fc"/></linearGradient><path d="M120.7 677.2a59.3 59.3 0 0159.3 59.3c0 6.6-1.1 13.1-3.2 19.3-8 23.2-30.1 40-56 40a59.3 59.3 0 01-59.3-59.3 59.09 59.09 0 0159.2-59.3z" opacity=".4" fill="url(#l)" stroke="url(#m)" stroke-width=".19" stroke-miterlimit="10"/></svg>