<svg xmlns="http://www.w3.org/2000/svg" viewBox="0 0 768 1083.8"><linearGradient id="a" gradientUnits="userSpaceOnUse" x1="376.59" y1="1529.94" x2="393.63" y2="-760.19" gradientTransform="matrix(1 0 0 -1 0 1084)"><stop offset="0" stop-color="#22b2da"/><stop offset=".01" stop-color="#32b7dc"/><stop offset=".03" stop-color="#53c3e0"/><stop offset=".06" stop-color="#70cce4"/><stop offset=".09" stop-color="#87d4e7"/><stop offset=".13" stop-color="#99dbe9"/><stop offset=".17" stop-color="#a6dfeb"/><stop offset=".22" stop-color="#ade1ec"/><stop offset=".35" stop-color="#afe2ec"/><stop offset=".96" stop-color="#eef9fc"/></linearGradient><path d="M768 189.1v884.2c-264.9 27.7-532.3 9.3-768-162.5V0c253.4 191.8 514.5 216.5 768 189.1z" fill="url(#a)"/><linearGradient id="b" gradientUnits="userSpaceOnUse" x1="-6.84" y1="157.67" x2="501.64" y2="470.65"><stop offset="0" stop-color="#22b2da"/><stop offset=".05" stop-color="#34b8dc"/><stop offset=".4" stop-color="#afe2ec"/><stop offset="1" stop-color="#eef9fc"/></linearGradient><linearGradient id="c" gradientUnits="userSpaceOnUse" x1="45.07" y1="248.81" x2="237.38" y2="248.81"><stop offset="0" stop-color="#22b2da"/><stop offset=".05" stop-color="#34b8dc"/><stop offset=".4" stop-color="#afe2ec"/><stop offset="1" stop-color="#eef9fc"/></linearGradient><path d="M141.2 152.8c53 0 96 43 96 96a95.97 95.97 0 01-96 96c-53 0-96-43-96-96s43-96 96-96z" opacity=".4" fill="url(#b)" stroke="url(#c)" stroke-width=".31" stroke-miterlimit="10"/><linearGradient id="d" gradientUnits="userSpaceOnUse" x1="209.95" y1="789.23" x2="718.42" y2="1102.21"><stop offset="0" stop-color="#22b2da"/><stop offset=".05" stop-color="#34b8dc"/><stop offset=".4" stop-color="#afe2ec"/><stop offset="1" stop-color="#eef9fc"/></linearGradient><linearGradient id="e" gradientUnits="userSpaceOnUse" x1="261.85" y1="880.37" x2="454.17" y2="880.37"><stop offset="0" stop-color="#22b2da"/><stop offset=".05" stop-color="#34b8dc"/><stop offset=".4" stop-color="#afe2ec"/><stop offset="1" stop-color="#eef9fc"/></linearGradient><path d="M358 784.4c53 0 96 43 96 96a95.97 95.97 0 01-96 96c-53 0-96-43-96-96 0-53.1 43-96 96-96z" opacity=".4" fill="url(#d)" stroke="url(#e)" stroke-width=".31" stroke-miterlimit="10"/><linearGradient id="f" gradientUnits="userSpaceOnUse" x1="487.64" y1="619.09" x2="801.52" y2="812.29"><stop offset="0" stop-color="#22b2da"/><stop offset=".05" stop-color="#34b8dc"/><stop offset=".4" stop-color="#afe2ec"/><stop offset="1" stop-color="#eef9fc"/></linearGradient><linearGradient id="g" gradientUnits="userSpaceOnUse" x1="519.68" y1="675.35" x2="638.39" y2="675.35"><stop offset="0" stop-color="#22b2da"/><stop offset=".05" stop-color="#34b8dc"/><stop offset=".4" stop-color="#afe2ec"/><stop offset="1" stop-color="#eef9fc"/></linearGradient><path d="M579 616.1a59.3 59.3 0 0159.3 59.3c0 6.6-1.1 13.1-3.2 19.3-8 23.2-30.1 40-56 40-32.7 0-59.3-26.5-59.3-59.3s26.5-59.3 59.2-59.3z" opacity=".4" fill="url(#f)" stroke="url(#g)" stroke-width=".19" stroke-miterlimit="10"/><linearGradient id="h" gradientUnits="userSpaceOnUse" x1="245.17" y1="417.38" x2="559.04" y2="610.58"><stop offset="0" stop-color="#22b2da"/><stop offset=".05" stop-color="#34b8dc"/><stop offset=".4" stop-color="#afe2ec"/><stop offset="1" stop-color="#eef9fc"/></linearGradient><linearGradient id="i" gradientUnits="userSpaceOnUse" x1="277.21" y1="473.64" x2="395.92" y2="473.64"><stop offset="0" stop-color="#22b2da"/><stop offset=".05" stop-color="#34b8dc"/><stop offset=".4" stop-color="#afe2ec"/><stop offset="1" stop-color="#eef9fc"/></linearGradient><path d="M336.6 414.4a59.3 59.3 0 0159.3 59.3c0 6.6-1.1 13.1-3.2 19.3-8 23.2-30.1 40-56 40-32.7 0-59.3-26.5-59.3-59.3s26.4-59.3 59.2-59.3z" opacity=".4" fill="url(#h)" stroke="url(#i)" stroke-width=".19" stroke-miterlimit="10"/><linearGradient id="j" gradientUnits="userSpaceOnUse" x1="537.71" y1="251.81" x2="851.58" y2="445.01"><stop offset="0" stop-color="#22b2da"/><stop offset=".05" stop-color="#34b8dc"/><stop offset=".4" stop-color="#afe2ec"/><stop offset="1" stop-color="#eef9fc"/></linearGradient><linearGradient id="k" gradientUnits="userSpaceOnUse" x1="569.75" y1="308.07" x2="688.46" y2="308.07"><stop offset="0" stop-color="#22b2da"/><stop offset=".05" stop-color="#34b8dc"/><stop offset=".4" stop-color="#afe2ec"/><stop offset="1" stop-color="#eef9fc"/></linearGradient><path d="M629.1 248.8a59.3 59.3 0 0159.3 59.3c0 6.6-1.1 13.1-3.2 19.3-8 23.2-30.1 40-56 40-32.7 0-59.3-26.5-59.3-59.3s26.5-59.3 59.2-59.3z" opacity=".4" fill="url(#j)" stroke="url(#k)" stroke-width=".19" stroke-miterlimit="10"/><linearGradient id="l" gradientUnits="userSpaceOnUse" x1="24.9" y1="678.35" x2="338.77" y2="871.55"><stop offset="0" stop-color="#22b2da"/><stop offset=".05" stop-color="#34b8dc"/><stop offset=".4" stop-color="#afe2ec"/><stop offset="1" stop-color="#eef9fc"/></linearGradient><linearGradient id="m" gradientUnits="userSpaceOnUse" x1="56.93" y1="734.61" x2="175.65" y2="734.61"><stop offset="0" stop-color="#22b2da"/><stop offset=".05" stop-color="#34b8dc"/><stop offset=".4" stop-color="#afe2ec"/><stop offset="1" stop-color="#eef9fc"/></linearGradient><path d="M116.3 675.4a59.3 59.3 0 0159.3 59.3c0 6.6-1.1 13.1-3.2 19.3-8 23.2-30.1 40-56 40a59.3 59.3 0 01-59.3-59.3 59.15 59.15 0 0159.2-59.3z" opacity=".4" fill="url(#l)" stroke="url(#m)" stroke-width=".19" stroke-miterlimit="10"/><linearGradient id="n" gradientUnits="userSpaceOnUse" x1="572.94" y1="929.31" x2="886.82" y2="1122.51"><stop offset="0" stop-color="#22b2da"/><stop offset=".05" stop-color="#34b8dc"/><stop offset=".4" stop-color="#afe2ec"/><stop offset="1" stop-color="#eef9fc"/></linearGradient><linearGradient id="o" gradientUnits="userSpaceOnUse" x1="604.98" y1="985.57" x2="723.7" y2="985.57"><stop offset="0" stop-color="#22b2da"/><stop offset=".05" stop-color="#34b8dc"/><stop offset=".4" stop-color="#afe2ec"/><stop offset="1" stop-color="#eef9fc"/></linearGradient><path d="M664.3 926.3a59.3 59.3 0 0159.3 59.3c0 6.6-1.1 13.1-3.2 19.3-8 23.2-30.1 40-56 40a59.3 59.3 0 01-59.3-59.3c0-32.8 26.5-59.3 59.2-59.3z" opacity=".4" fill="url(#n)" stroke="url(#o)" stroke-width=".19" stroke-miterlimit="10"/></svg>