<svg xmlns="http://www.w3.org/2000/svg" viewBox="0 0 375 1080"><linearGradient id="a" gradientUnits="userSpaceOnUse" x1="-3786.04" y1="-2088.63" x2="-3786.04" y2="-2088.33" gradientTransform="matrix(1920.1023 0 0 3469.9954 7269763.5 7247484)"><stop offset="0" stop-color="#afe2ec"/><stop offset="1" stop-color="#eef9fc"/></linearGradient><path d="M0 48c0-64 375-64 375 0v1032H0V48z" fill="url(#a)"/><linearGradient id="b" gradientUnits="userSpaceOnUse" x1="-3785.84" y1="-2089.1" x2="-3786.14" y2="-2088.9" gradientTransform="matrix(1925.0815 0 0 2465.5713 7288624 5151336.5)"><stop offset="0" stop-color="#da4a22"/><stop offset=".5" stop-color="#ff7650"/><stop offset="1" stop-color="#ffbdaa"/></linearGradient><path d="M0 1054c0-185 135-194 205-332 64-122 39-444 170-384v742H0v-26z" fill="url(#b)"/><linearGradient id="c" gradientUnits="userSpaceOnUse" x1="81.94" y1="646.94" x2="275.93" y2="766.34"><stop offset="0" stop-color="#22b2da"/><stop offset=".05" stop-color="#34b8dc"/><stop offset=".4" stop-color="#afe2ec"/><stop offset="1" stop-color="#eef9fc"/></linearGradient><linearGradient id="d" gradientUnits="userSpaceOnUse" x1="101.75" y1="681.71" x2="175.11" y2="681.71"><stop offset="0" stop-color="#22b2da"/><stop offset=".05" stop-color="#34b8dc"/><stop offset=".4" stop-color="#afe2ec"/><stop offset="1" stop-color="#eef9fc"/></linearGradient><path d="M138.4 645.1a36.62 36.62 0 0134.6 48.5 36.56 36.56 0 01-34.6 24.7c-20.2 0-36.6-16.4-36.6-36.6 0-20.2 16.4-36.6 36.6-36.6z" opacity=".4" fill="url(#c)" stroke="url(#d)" stroke-width=".12" stroke-miterlimit="10"/><linearGradient id="e" gradientUnits="userSpaceOnUse" x1="153.65" y1="424.69" x2="347.64" y2="544.1"><stop offset="0" stop-color="#22b2da"/><stop offset=".05" stop-color="#34b8dc"/><stop offset=".4" stop-color="#afe2ec"/><stop offset="1" stop-color="#eef9fc"/></linearGradient><linearGradient id="f" gradientUnits="userSpaceOnUse" x1="173.45" y1="459.46" x2="246.82" y2="459.46"><stop offset="0" stop-color="#22b2da"/><stop offset=".05" stop-color="#34b8dc"/><stop offset=".4" stop-color="#afe2ec"/><stop offset="1" stop-color="#eef9fc"/></linearGradient><path d="M210.1 422.8a36.62 36.62 0 0134.6 48.5 36.56 36.56 0 01-34.6 24.7c-20.2 0-36.6-16.4-36.6-36.6 0-20.2 16.4-36.6 36.6-36.6z" opacity=".4" fill="url(#e)" stroke="url(#f)" stroke-width=".12" stroke-miterlimit="10"/><linearGradient id="g" gradientUnits="userSpaceOnUse" x1="8.69" y1="174.99" x2="202.68" y2="294.4"><stop offset="0" stop-color="#22b2da"/><stop offset=".05" stop-color="#34b8dc"/><stop offset=".4" stop-color="#afe2ec"/><stop offset="1" stop-color="#eef9fc"/></linearGradient><linearGradient id="h" gradientUnits="userSpaceOnUse" x1="28.5" y1="209.76" x2="101.87" y2="209.76"><stop offset="0" stop-color="#22b2da"/><stop offset=".05" stop-color="#34b8dc"/><stop offset=".4" stop-color="#afe2ec"/><stop offset="1" stop-color="#eef9fc"/></linearGradient><path d="M65.2 173.1a36.62 36.62 0 0134.6 48.5 36.56 36.56 0 01-34.6 24.7c-20.2 0-36.6-16.4-36.6-36.6s16.4-36.6 36.6-36.6z" opacity=".4" fill="url(#g)" stroke="url(#h)" stroke-width=".12" stroke-miterlimit="10"/><linearGradient id="i" gradientUnits="userSpaceOnUse" x1="268.1" y1="204.28" x2="462.09" y2="323.69"><stop offset="0" stop-color="#22b2da"/><stop offset=".05" stop-color="#34b8dc"/><stop offset=".4" stop-color="#afe2ec"/><stop offset="1" stop-color="#eef9fc"/></linearGradient><linearGradient id="j" gradientUnits="userSpaceOnUse" x1="287.9" y1="239.05" x2="361.27" y2="239.05"><stop offset="0" stop-color="#22b2da"/><stop offset=".05" stop-color="#34b8dc"/><stop offset=".4" stop-color="#afe2ec"/><stop offset="1" stop-color="#eef9fc"/></linearGradient><path d="M324.6 202.4a36.62 36.62 0 0134.6 48.5 36.56 36.56 0 01-34.6 24.7c-20.2 0-36.6-16.4-36.6-36.6s16.4-36.6 36.6-36.6z" opacity=".4" fill="url(#i)" stroke="url(#j)" stroke-width=".12" stroke-miterlimit="10"/><linearGradient id="k" gradientUnits="userSpaceOnUse" x1="108.07" y1="302.82" x2="227.97" y2="376.62"><stop offset="0" stop-color="#22b2da"/><stop offset=".05" stop-color="#34b8dc"/><stop offset=".4" stop-color="#afe2ec"/><stop offset="1" stop-color="#eef9fc"/></linearGradient><linearGradient id="l" gradientUnits="userSpaceOnUse" x1="120.31" y1="324.31" x2="165.66" y2="324.31"><stop offset="0" stop-color="#22b2da"/><stop offset=".05" stop-color="#34b8dc"/><stop offset=".4" stop-color="#afe2ec"/><stop offset="1" stop-color="#eef9fc"/></linearGradient><path d="M143 301.7c12.5 0 22.6 10.1 22.6 22.6a22.6 22.6 0 11-45.2.1c0-12.5 10.1-22.7 22.6-22.7z" opacity=".4" fill="url(#k)" stroke="url(#l)" stroke-width=".07" stroke-miterlimit="10"/><linearGradient id="m" gradientUnits="userSpaceOnUse" x1="75.54" y1="23.63" x2="195.43" y2="97.43"><stop offset="0" stop-color="#22b2da"/><stop offset=".05" stop-color="#34b8dc"/><stop offset=".4" stop-color="#afe2ec"/><stop offset="1" stop-color="#eef9fc"/></linearGradient><linearGradient id="n" gradientUnits="userSpaceOnUse" x1="87.78" y1="45.12" x2="133.13" y2="45.12"><stop offset="0" stop-color="#22b2da"/><stop offset=".05" stop-color="#34b8dc"/><stop offset=".4" stop-color="#afe2ec"/><stop offset="1" stop-color="#eef9fc"/></linearGradient><path d="M110.5 22.5c12.5 0 22.6 10.1 22.6 22.6a22.6 22.6 0 11-45.2.1c0-12.5 10.1-22.7 22.6-22.7z" opacity=".4" fill="url(#m)" stroke="url(#n)" stroke-width=".07" stroke-miterlimit="10"/><linearGradient id="o" gradientUnits="userSpaceOnUse" x1="303.67" y1="61.59" x2="423.56" y2="135.39"><stop offset="0" stop-color="#22b2da"/><stop offset=".05" stop-color="#34b8dc"/><stop offset=".4" stop-color="#afe2ec"/><stop offset="1" stop-color="#eef9fc"/></linearGradient><linearGradient id="p" gradientUnits="userSpaceOnUse" x1="315.9" y1="83.08" x2="361.25" y2="83.08"><stop offset="0" stop-color="#22b2da"/><stop offset=".05" stop-color="#34b8dc"/><stop offset=".4" stop-color="#afe2ec"/><stop offset="1" stop-color="#eef9fc"/></linearGradient><path d="M338.6 60.4c12.5 0 22.6 10.1 22.6 22.6a22.6 22.6 0 11-45.2.1c0-12.5 10.1-22.7 22.6-22.7z" opacity=".4" fill="url(#o)" stroke="url(#p)" stroke-width=".07" stroke-miterlimit="10"/><linearGradient id="q" gradientUnits="userSpaceOnUse" x1="16.28" y1="811.6" x2="136.17" y2="885.4"><stop offset="0" stop-color="#22b2da"/><stop offset=".05" stop-color="#34b8dc"/><stop offset=".4" stop-color="#afe2ec"/><stop offset="1" stop-color="#eef9fc"/></linearGradient><linearGradient id="r" gradientUnits="userSpaceOnUse" x1="28.52" y1="833.09" x2="73.86" y2="833.09"><stop offset="0" stop-color="#22b2da"/><stop offset=".05" stop-color="#34b8dc"/><stop offset=".4" stop-color="#afe2ec"/><stop offset="1" stop-color="#eef9fc"/></linearGradient><path d="M51.2 810.5c12.5 0 22.6 10.1 22.6 22.6a22.6 22.6 0 11-45.2.1c0-12.5 10.1-22.7 22.6-22.7z" opacity=".4" fill="url(#q)" stroke="url(#r)" stroke-width=".07" stroke-miterlimit="10"/><linearGradient id="s" gradientUnits="userSpaceOnUse" x1="38.92" y1="474.6" x2="158.81" y2="548.4"><stop offset="0" stop-color="#22b2da"/><stop offset=".05" stop-color="#34b8dc"/><stop offset=".4" stop-color="#afe2ec"/><stop offset="1" stop-color="#eef9fc"/></linearGradient><linearGradient id="t" gradientUnits="userSpaceOnUse" x1="51.15" y1="496.09" x2="96.5" y2="496.09"><stop offset="0" stop-color="#22b2da"/><stop offset=".05" stop-color="#34b8dc"/><stop offset=".4" stop-color="#afe2ec"/><stop offset="1" stop-color="#eef9fc"/></linearGradient><path d="M73.8 473.5c12.5 0 22.6 10.1 22.6 22.6a22.6 22.6 0 11-45.2.1c0-12.5 10.1-22.7 22.6-22.7z" opacity=".4" fill="url(#s)" stroke="url(#t)" stroke-width=".07" stroke-miterlimit="10"/><linearGradient id="u" gradientUnits="userSpaceOnUse" x1="161.24" y1="151.65" x2="281.13" y2="225.45"><stop offset="0" stop-color="#22b2da"/><stop offset=".05" stop-color="#34b8dc"/><stop offset=".4" stop-color="#afe2ec"/><stop offset="1" stop-color="#eef9fc"/></linearGradient><linearGradient id="v" gradientUnits="userSpaceOnUse" x1="173.47" y1="173.14" x2="218.82" y2="173.14"><stop offset="0" stop-color="#22b2da"/><stop offset=".05" stop-color="#34b8dc"/><stop offset=".4" stop-color="#afe2ec"/><stop offset="1" stop-color="#eef9fc"/></linearGradient><path d="M196.1 150.5c12.5 0 22.6 10.1 22.6 22.6a22.6 22.6 0 11-45.2.1 22.6 22.6 0 0122.6-22.7z" opacity=".4" fill="url(#u)" stroke="url(#v)" stroke-width=".07" stroke-miterlimit="10"/><g><linearGradient id="w" gradientUnits="userSpaceOnUse" x1="261.48" y1="532.33" x2="376.11" y2="612.79"><stop offset="0" stop-color="#da4a22"/><stop offset=".33" stop-color="#ec5b33"/><stop offset="1" stop-color="#ffbdaa"/></linearGradient><path d="M324.6 540a36.62 36.62 0 0134.6 48.5 36.56 36.56 0 01-34.6 24.7c-20.2 0-36.6-16.4-36.6-36.6s16.4-36.6 36.6-36.6z" opacity=".4" fill="url(#w)"/><linearGradient id="x" gradientUnits="userSpaceOnUse" x1="247.06" y1="843.51" x2="361.69" y2="923.97"><stop offset="0" stop-color="#da4a22"/><stop offset=".33" stop-color="#ec5b33"/><stop offset="1" stop-color="#ffbdaa"/></linearGradient><path d="M310.2 851.2a36.62 36.62 0 0134.6 48.5 36.56 36.56 0 01-34.6 24.7c-20.2 0-36.6-16.4-36.6-36.6s16.3-36.6 36.6-36.6z" opacity=".4" fill="url(#x)"/><linearGradient id="y" gradientUnits="userSpaceOnUse" x1="10.72" y1="960.53" x2="125.35" y2="1040.99"><stop offset="0" stop-color="#da4a22"/><stop offset=".33" stop-color="#ec5b33"/><stop offset="1" stop-color="#ffbdaa"/></linearGradient><path d="M73.8 968.2a36.62 36.62 0 0134.6 48.5 36.56 36.56 0 01-34.6 24.7c-20.2 0-36.6-16.4-36.6-36.6 0-20.2 16.4-36.6 36.6-36.6z" opacity=".4" fill="url(#y)"/><linearGradient id="z" gradientUnits="userSpaceOnUse" x1="303.52" y1="381.66" x2="374.37" y2="431.39"><stop offset="0" stop-color="#da4a22"/><stop offset=".33" stop-color="#ec5b33"/><stop offset="1" stop-color="#ffbdaa"/></linearGradient><path d="M342.5 386.4c12.5 0 22.6 10.1 22.6 22.6a22.6 22.6 0 11-45.2.1c0-12.5 10.1-22.7 22.6-22.7z" opacity=".4" fill="url(#z)"/><linearGradient id="A" gradientUnits="userSpaceOnUse" x1="276.94" y1="1022.72" x2="347.78" y2="1072.45"><stop offset="0" stop-color="#da4a22"/><stop offset=".33" stop-color="#ec5b33"/><stop offset="1" stop-color="#ffbdaa"/></linearGradient><path d="M315.9 1027.5c12.5 0 22.6 10.1 22.6 22.6a22.6 22.6 0 11-45.2.1c0-12.5 10.1-22.7 22.6-22.7z" opacity=".4" fill="url(#A)"/><linearGradient id="B" gradientUnits="userSpaceOnUse" x1="193.77" y1="963.46" x2="264.61" y2="1013.19"><stop offset="0" stop-color="#da4a22"/><stop offset=".33" stop-color="#ec5b33"/><stop offset="1" stop-color="#ffbdaa"/></linearGradient><path d="M232.8 968.2c12.5 0 22.6 10.1 22.6 22.6a22.6 22.6 0 11-45.2.1c0-12.5 10.1-22.7 22.6-22.7z" opacity=".4" fill="url(#B)"/><linearGradient id="C" gradientUnits="userSpaceOnUse" x1="271.16" y1="690.95" x2="342.01" y2="740.68"><stop offset="0" stop-color="#da4a22"/><stop offset=".33" stop-color="#ec5b33"/><stop offset="1" stop-color="#ffbdaa"/></linearGradient><path d="M310.2 695.7c12.5 0 22.6 10.1 22.6 22.6a22.6 22.6 0 11-45.2.1 22.53 22.53 0 0122.6-22.7z" opacity=".4" fill="url(#C)"/><linearGradient id="D" gradientUnits="userSpaceOnUse" x1="148.5" y1="846.44" x2="219.34" y2="896.16"><stop offset="0" stop-color="#da4a22"/><stop offset=".33" stop-color="#ec5b33"/><stop offset="1" stop-color="#ffbdaa"/></linearGradient><path d="M187.5 851.2c12.5 0 22.6 10.1 22.6 22.6a22.6 22.6 0 11-45.2.1c0-12.5 10.1-22.7 22.6-22.7z" opacity=".4" fill="url(#D)"/></g></svg>