<svg xmlns="http://www.w3.org/2000/svg" viewBox="0 0 1922.8 961.9"><linearGradient id="a" gradientUnits="userSpaceOnUse" x1="954.88" y1="1362.62" x2="970.02" y2="-671.08" gradientTransform="matrix(1 0 0 -1 0 962)"><stop offset="0" stop-color="#22b2da"/><stop offset=".01" stop-color="#32b7dc"/><stop offset=".03" stop-color="#53c3e0"/><stop offset=".06" stop-color="#70cce4"/><stop offset=".09" stop-color="#87d4e7"/><stop offset=".13" stop-color="#99dbe9"/><stop offset=".17" stop-color="#a6dfeb"/><stop offset=".22" stop-color="#ade1ec"/><stop offset=".35" stop-color="#afe2ec"/><stop offset=".96" stop-color="#eef9fc"/></linearGradient><path d="M0 0c685.3 518.7 1427-184.5 1922.8 162.8v767.1C1492.3 607.2 632.4 1249.7 0 789V0z" fill="url(#a)"/><linearGradient id="b" gradientUnits="userSpaceOnUse" x1="5.12" y1="158.35" x2="513.59" y2="471.34"><stop offset="0" stop-color="#22b2da"/><stop offset=".05" stop-color="#34b8dc"/><stop offset=".4" stop-color="#afe2ec"/><stop offset="1" stop-color="#eef9fc"/></linearGradient><linearGradient id="c" gradientUnits="userSpaceOnUse" x1="57.02" y1="249.49" x2="249.34" y2="249.49"><stop offset="0" stop-color="#22b2da"/><stop offset=".05" stop-color="#34b8dc"/><stop offset=".4" stop-color="#afe2ec"/><stop offset="1" stop-color="#eef9fc"/></linearGradient><path class="svg-circle" d="M153.2 153.5c53 0 96 43 96 96a95.97 95.97 0 01-96 96c-53 0-96-43-96-96s43-96 96-96z" opacity=".4" fill="url(#b)" stroke="url(#c)" stroke-width=".31" stroke-miterlimit="10"/><linearGradient id="d" gradientUnits="userSpaceOnUse" x1="1621.56" y1="602.64" x2="2130.04" y2="915.62"><stop offset="0" stop-color="#22b2da"/><stop offset=".05" stop-color="#34b8dc"/><stop offset=".4" stop-color="#afe2ec"/><stop offset="1" stop-color="#eef9fc"/></linearGradient><linearGradient id="e" gradientUnits="userSpaceOnUse" x1="1673.47" y1="693.78" x2="1865.78" y2="693.78"><stop offset="0" stop-color="#22b2da"/><stop offset=".05" stop-color="#34b8dc"/><stop offset=".4" stop-color="#afe2ec"/><stop offset="1" stop-color="#eef9fc"/></linearGradient><path class="svg-circle" d="M1769.6 597.8c53 0 96 43 96 96a95.97 95.97 0 01-96 96c-53 0-96-43-96-96s43-96 96-96z" opacity=".4" fill="url(#d)" stroke="url(#e)" stroke-width=".31" stroke-miterlimit="10"/><linearGradient id="f" gradientUnits="userSpaceOnUse" x1="1204.85" y1="201.16" x2="1713.33" y2="514.14"><stop offset="0" stop-color="#22b2da"/><stop offset=".05" stop-color="#34b8dc"/><stop offset=".4" stop-color="#afe2ec"/><stop offset="1" stop-color="#eef9fc"/></linearGradient><linearGradient id="g" gradientUnits="userSpaceOnUse" x1="1256.76" y1="292.3" x2="1449.07" y2="292.3"><stop offset="0" stop-color="#22b2da"/><stop offset=".05" stop-color="#34b8dc"/><stop offset=".4" stop-color="#afe2ec"/><stop offset="1" stop-color="#eef9fc"/></linearGradient><path class="svg-circle" d="M1352.9 196.3c53 0 96 43 96 96a95.97 95.97 0 01-96 96c-53 0-96-43-96-96s43-96 96-96z" opacity=".4" fill="url(#f)" stroke="url(#g)" stroke-width=".31" stroke-miterlimit="10"/><linearGradient id="h" gradientUnits="userSpaceOnUse" x1="393.97" y1="698.64" x2="902.45" y2="1011.62"><stop offset="0" stop-color="#22b2da"/><stop offset=".05" stop-color="#34b8dc"/><stop offset=".4" stop-color="#afe2ec"/><stop offset="1" stop-color="#eef9fc"/></linearGradient><linearGradient id="i" gradientUnits="userSpaceOnUse" x1="445.88" y1="789.78" x2="638.19" y2="789.78"><stop offset="0" stop-color="#22b2da"/><stop offset=".05" stop-color="#34b8dc"/><stop offset=".4" stop-color="#afe2ec"/><stop offset="1" stop-color="#eef9fc"/></linearGradient><path class="svg-circle" d="M542 693.8c53 0 96 43 96 96a95.97 95.97 0 01-96 96c-53 0-96-43-96-96s43-96 96-96z" opacity=".4" fill="url(#h)" stroke="url(#i)" stroke-width=".31" stroke-miterlimit="10"/><linearGradient id="j" gradientUnits="userSpaceOnUse" x1="993.3" y1="676.46" x2="1307.17" y2="869.66"><stop offset="0" stop-color="#22b2da"/><stop offset=".05" stop-color="#34b8dc"/><stop offset=".4" stop-color="#afe2ec"/><stop offset="1" stop-color="#eef9fc"/></linearGradient><linearGradient id="k" gradientUnits="userSpaceOnUse" x1="1025.34" y1="732.72" x2="1144.05" y2="732.72"><stop offset="0" stop-color="#22b2da"/><stop offset=".05" stop-color="#34b8dc"/><stop offset=".4" stop-color="#afe2ec"/><stop offset="1" stop-color="#eef9fc"/></linearGradient><path class="svg-circle" d="M1084.7 673.5a59.3 59.3 0 0159.3 59.3c0 6.6-1.1 13.1-3.2 19.3-8 23.2-30.1 40-56 40-32.7 0-59.3-26.5-59.3-59.3s26.5-59.3 59.2-59.3z" opacity=".4" fill="url(#j)" stroke="url(#k)" stroke-width=".19" stroke-miterlimit="10"/><linearGradient id="l" gradientUnits="userSpaceOnUse" x1="47.46" y1="613.86" x2="361.34" y2="807.06"><stop offset="0" stop-color="#22b2da"/><stop offset=".05" stop-color="#34b8dc"/><stop offset=".4" stop-color="#afe2ec"/><stop offset="1" stop-color="#eef9fc"/></linearGradient><linearGradient id="m" gradientUnits="userSpaceOnUse" x1="79.5" y1="670.12" x2="198.22" y2="670.12"><stop offset="0" stop-color="#22b2da"/><stop offset=".05" stop-color="#34b8dc"/><stop offset=".4" stop-color="#afe2ec"/><stop offset="1" stop-color="#eef9fc"/></linearGradient><path class="svg-circle" d="M138.9 610.9a59.3 59.3 0 0159.3 59.3c0 6.6-1.1 13.1-3.2 19.3-8 23.2-30.1 40-56 40-32.7 0-59.3-26.5-59.3-59.3s26.4-59.3 59.2-59.3z" opacity=".4" fill="url(#l)" stroke="url(#m)" stroke-width=".19" stroke-miterlimit="10"/><linearGradient id="n" gradientUnits="userSpaceOnUse" x1="1357.52" y1="505.84" x2="1671.39" y2="699.04"><stop offset="0" stop-color="#22b2da"/><stop offset=".05" stop-color="#34b8dc"/><stop offset=".4" stop-color="#afe2ec"/><stop offset="1" stop-color="#eef9fc"/></linearGradient><linearGradient id="o" gradientUnits="userSpaceOnUse" x1="1389.56" y1="562.09" x2="1508.27" y2="562.09"><stop offset="0" stop-color="#22b2da"/><stop offset=".05" stop-color="#34b8dc"/><stop offset=".4" stop-color="#afe2ec"/><stop offset="1" stop-color="#eef9fc"/></linearGradient><path class="svg-circle" d="M1448.9 502.8a59.3 59.3 0 0159.3 59.3c0 6.6-1.1 13.1-3.2 19.3-8 23.2-30.1 40-56 40a59.3 59.3 0 01-59.3-59.3c0-32.7 26.5-59.3 59.2-59.3z" opacity=".4" fill="url(#n)" stroke="url(#o)" stroke-width=".19" stroke-miterlimit="10"/><linearGradient id="p" gradientUnits="userSpaceOnUse" x1="250.92" y1="446.58" x2="564.8" y2="639.78"><stop offset="0" stop-color="#22b2da"/><stop offset=".05" stop-color="#34b8dc"/><stop offset=".4" stop-color="#afe2ec"/><stop offset="1" stop-color="#eef9fc"/></linearGradient><linearGradient id="q" gradientUnits="userSpaceOnUse" x1="282.96" y1="502.84" x2="401.67" y2="502.84"><stop offset="0" stop-color="#22b2da"/><stop offset=".05" stop-color="#34b8dc"/><stop offset=".4" stop-color="#afe2ec"/><stop offset="1" stop-color="#eef9fc"/></linearGradient><path class="svg-circle" d="M342.3 443.6a59.3 59.3 0 0159.3 59.3c0 6.6-1.1 13.1-3.2 19.3-8 23.2-30.1 40-56 40-32.7 0-59.3-26.5-59.3-59.3s26.5-59.3 59.2-59.3z" opacity=".4" fill="url(#p)" stroke="url(#q)" stroke-width=".19" stroke-miterlimit="10"/><linearGradient id="r" gradientUnits="userSpaceOnUse" x1="753.13" y1="313.67" x2="1067" y2="506.87"><stop offset="0" stop-color="#22b2da"/><stop offset=".05" stop-color="#34b8dc"/><stop offset=".4" stop-color="#afe2ec"/><stop offset="1" stop-color="#eef9fc"/></linearGradient><linearGradient id="s" gradientUnits="userSpaceOnUse" x1="785.17" y1="369.93" x2="903.88" y2="369.93"><stop offset="0" stop-color="#22b2da"/><stop offset=".05" stop-color="#34b8dc"/><stop offset=".4" stop-color="#afe2ec"/><stop offset="1" stop-color="#eef9fc"/></linearGradient><path class="svg-circle" d="M844.5 310.7a59.3 59.3 0 0159.3 59.3c0 6.6-1.1 13.1-3.2 19.3-8 23.2-30.1 40-56 40-32.7 0-59.3-26.5-59.3-59.3s26.5-59.3 59.2-59.3z" opacity=".4" fill="url(#r)" stroke="url(#s)" stroke-width=".19" stroke-miterlimit="10"/><linearGradient id="t" gradientUnits="userSpaceOnUse" x1="710.03" y1="541.52" x2="1023.9" y2="734.72"><stop offset="0" stop-color="#22b2da"/><stop offset=".05" stop-color="#34b8dc"/><stop offset=".4" stop-color="#afe2ec"/><stop offset="1" stop-color="#eef9fc"/></linearGradient><linearGradient id="u" gradientUnits="userSpaceOnUse" x1="742.07" y1="597.78" x2="860.78" y2="597.78"><stop offset="0" stop-color="#22b2da"/><stop offset=".05" stop-color="#34b8dc"/><stop offset=".4" stop-color="#afe2ec"/><stop offset="1" stop-color="#eef9fc"/></linearGradient><path class="svg-circle" d="M801.4 538.5a59.3 59.3 0 0159.3 59.3c0 6.6-1.1 13.1-3.2 19.3-8 23.2-30.1 40-56 40a59.3 59.3 0 01-59.3-59.3c0-32.7 26.5-59.3 59.2-59.3z" opacity=".4" fill="url(#t)" stroke="url(#u)" stroke-width=".19" stroke-miterlimit="10"/><linearGradient id="v" gradientUnits="userSpaceOnUse" x1="1618.97" y1="176.78" x2="1932.84" y2="369.98"><stop offset="0" stop-color="#22b2da"/><stop offset=".05" stop-color="#34b8dc"/><stop offset=".4" stop-color="#afe2ec"/><stop offset="1" stop-color="#eef9fc"/></linearGradient><linearGradient id="w" gradientUnits="userSpaceOnUse" x1="1651.01" y1="233.04" x2="1769.72" y2="233.04"><stop offset="0" stop-color="#22b2da"/><stop offset=".05" stop-color="#34b8dc"/><stop offset=".4" stop-color="#afe2ec"/><stop offset="1" stop-color="#eef9fc"/></linearGradient><path class="svg-circle" d="M1710.4 173.8a59.3 59.3 0 0159.3 59.3c0 6.6-1.1 13.1-3.2 19.3-8 23.2-30.1 40-56 40-32.7 0-59.3-26.5-59.3-59.3s26.4-59.3 59.2-59.3z" opacity=".4" fill="url(#v)" stroke="url(#w)" stroke-width=".19" stroke-miterlimit="10"/></svg>