<svg xmlns="http://www.w3.org/2000/svg" viewBox="0 0 997.6 2026.5"><linearGradient id="a" gradientUnits="userSpaceOnUse" x1="-4083.23" y1="159.92" x2="-4083.23" y2="160.59" gradientTransform="matrix(1920.1023 0 0 3469.9954 7840715 -555223.69)"><stop offset="0" stop-color="#afe2ec"/><stop offset="1" stop-color="#eef9fc"/></linearGradient><path d="M.6 69.4c0-92.6 996.3-92.6 996.3 0v1957l-996.3.1V69.4z" fill="url(#a)"/><linearGradient id="b" gradientUnits="userSpaceOnUse" x1="-4082.86" y1="159.89" x2="-4083.42" y2="160.43" gradientTransform="matrix(1925.0815 0 0 2465.5713 7861056.5 -393178.6)"><stop offset="0" stop-color="#da4a22"/><stop offset=".52" stop-color="#ff7650"/><stop offset="1" stop-color="#ffbdaa"/></linearGradient><path d="M0 1962.2c-.3-329.7 352.1-353.7 618-540C855.1 1256 785 708.3 997.6 765.3v1261.3H0v-64.4z" fill="url(#b)"/><linearGradient id="c" gradientUnits="userSpaceOnUse" x1="20.3" y1="138.54" x2="528.78" y2="451.53"><stop offset="0" stop-color="#22b2da"/><stop offset=".05" stop-color="#34b8dc"/><stop offset=".4" stop-color="#afe2ec"/><stop offset="1" stop-color="#eef9fc"/></linearGradient><linearGradient id="d" gradientUnits="userSpaceOnUse" x1="72.21" y1="229.68" x2="264.52" y2="229.68"><stop offset="0" stop-color="#22b2da"/><stop offset=".05" stop-color="#34b8dc"/><stop offset=".4" stop-color="#afe2ec"/><stop offset="1" stop-color="#eef9fc"/></linearGradient><path d="M168.4 133.7c53 0 96 43 96 96a95.97 95.97 0 01-96 96c-53 0-96-43-96-96s42.9-96 96-96z" opacity=".4" fill="url(#c)" stroke="url(#d)" stroke-width=".31" stroke-miterlimit="10"/><linearGradient id="e" gradientUnits="userSpaceOnUse" x1="116.3" y1="793.22" x2="624.78" y2="1106.21"><stop offset="0" stop-color="#22b2da"/><stop offset=".05" stop-color="#34b8dc"/><stop offset=".4" stop-color="#afe2ec"/><stop offset="1" stop-color="#eef9fc"/></linearGradient><linearGradient id="f" gradientUnits="userSpaceOnUse" x1="168.21" y1="884.36" x2="360.52" y2="884.36"><stop offset="0" stop-color="#22b2da"/><stop offset=".05" stop-color="#34b8dc"/><stop offset=".4" stop-color="#afe2ec"/><stop offset="1" stop-color="#eef9fc"/></linearGradient><path d="M264.4 788.4c53 0 96 43 96 96a95.97 95.97 0 01-96 96c-53 0-96-43-96-96s42.9-96 96-96z" opacity=".4" fill="url(#e)" stroke="url(#f)" stroke-width=".31" stroke-miterlimit="10"/><linearGradient id="g" gradientUnits="userSpaceOnUse" x1="365.49" y1="1107.61" x2="873.97" y2="1420.59"><stop offset="0" stop-color="#22b2da"/><stop offset=".05" stop-color="#34b8dc"/><stop offset=".4" stop-color="#afe2ec"/><stop offset="1" stop-color="#eef9fc"/></linearGradient><linearGradient id="h" gradientUnits="userSpaceOnUse" x1="417.4" y1="1198.74" x2="609.71" y2="1198.74"><stop offset="0" stop-color="#22b2da"/><stop offset=".05" stop-color="#34b8dc"/><stop offset=".4" stop-color="#afe2ec"/><stop offset="1" stop-color="#eef9fc"/></linearGradient><path d="M513.6 1102.7c53 0 96 43 96 96a95.97 95.97 0 01-96 96c-53 0-96-43-96-96s42.9-96 96-96z" opacity=".4" fill="url(#g)" stroke="url(#h)" stroke-width=".31" stroke-miterlimit="10"/><linearGradient id="i" gradientUnits="userSpaceOnUse" x1="747.12" y1="493.96" x2="1060.99" y2="687.15"><stop offset="0" stop-color="#22b2da"/><stop offset=".05" stop-color="#34b8dc"/><stop offset=".4" stop-color="#afe2ec"/><stop offset="1" stop-color="#eef9fc"/></linearGradient><linearGradient id="j" gradientUnits="userSpaceOnUse" x1="779.16" y1="550.21" x2="897.87" y2="550.21"><stop offset="0" stop-color="#22b2da"/><stop offset=".05" stop-color="#34b8dc"/><stop offset=".4" stop-color="#afe2ec"/><stop offset="1" stop-color="#eef9fc"/></linearGradient><path d="M838.5 491a59.3 59.3 0 0159.3 59.3c0 6.6-1.1 13.1-3.2 19.3-8 23.2-30.1 40-56 40-32.7 0-59.3-26.5-59.3-59.3s26.5-59.3 59.2-59.3z" opacity=".4" fill="url(#i)" stroke="url(#j)" stroke-width=".19" stroke-miterlimit="10"/><linearGradient id="k" gradientUnits="userSpaceOnUse" x1="54.45" y1="1396.83" x2="368.32" y2="1590.03"><stop offset="0" stop-color="#22b2da"/><stop offset=".05" stop-color="#34b8dc"/><stop offset=".4" stop-color="#afe2ec"/><stop offset="1" stop-color="#eef9fc"/></linearGradient><linearGradient id="l" gradientUnits="userSpaceOnUse" x1="86.49" y1="1453.09" x2="205.2" y2="1453.09"><stop offset="0" stop-color="#22b2da"/><stop offset=".05" stop-color="#34b8dc"/><stop offset=".4" stop-color="#afe2ec"/><stop offset="1" stop-color="#eef9fc"/></linearGradient><path d="M145.8 1393.8a59.3 59.3 0 0159.3 59.3c0 6.6-1.1 13.1-3.2 19.3-8 23.2-30.1 40-56 40-32.7 0-59.3-26.5-59.3-59.3s26.5-59.3 59.2-59.3z" opacity=".4" fill="url(#k)" stroke="url(#l)" stroke-width=".19" stroke-miterlimit="10"/><linearGradient id="m" gradientUnits="userSpaceOnUse" x1="788.97" y1="114.17" x2="1102.84" y2="307.36"><stop offset="0" stop-color="#22b2da"/><stop offset=".05" stop-color="#34b8dc"/><stop offset=".4" stop-color="#afe2ec"/><stop offset="1" stop-color="#eef9fc"/></linearGradient><linearGradient id="n" gradientUnits="userSpaceOnUse" x1="821.01" y1="170.42" x2="939.72" y2="170.42"><stop offset="0" stop-color="#22b2da"/><stop offset=".05" stop-color="#34b8dc"/><stop offset=".4" stop-color="#afe2ec"/><stop offset="1" stop-color="#eef9fc"/></linearGradient><path d="M880.4 111.2a59.3 59.3 0 0159.3 59.3c0 6.6-1.1 13.1-3.2 19.3-8 23.2-30.1 40-56 40-32.7 0-59.3-26.5-59.3-59.3s26.4-59.3 59.2-59.3z" opacity=".4" fill="url(#m)" stroke="url(#n)" stroke-width=".19" stroke-miterlimit="10"/><linearGradient id="o" gradientUnits="userSpaceOnUse" x1="490.21" y1="672.85" x2="804.09" y2="866.04"><stop offset="0" stop-color="#22b2da"/><stop offset=".05" stop-color="#34b8dc"/><stop offset=".4" stop-color="#afe2ec"/><stop offset="1" stop-color="#eef9fc"/></linearGradient><linearGradient id="p" gradientUnits="userSpaceOnUse" x1="522.25" y1="729.1" x2="640.97" y2="729.1"><stop offset="0" stop-color="#22b2da"/><stop offset=".05" stop-color="#34b8dc"/><stop offset=".4" stop-color="#afe2ec"/><stop offset="1" stop-color="#eef9fc"/></linearGradient><path d="M581.6 669.8a59.3 59.3 0 0159.3 59.3c0 6.6-1.1 13.1-3.2 19.3-8 23.2-30.1 40-56 40a59.3 59.3 0 01-59.3-59.3c0-32.7 26.5-59.3 59.2-59.3z" opacity=".4" fill="url(#o)" stroke="url(#p)" stroke-width=".19" stroke-miterlimit="10"/><linearGradient id="q" gradientUnits="userSpaceOnUse" x1="246.45" y1="434.7" x2="560.32" y2="627.89"><stop offset="0" stop-color="#22b2da"/><stop offset=".05" stop-color="#34b8dc"/><stop offset=".4" stop-color="#afe2ec"/><stop offset="1" stop-color="#eef9fc"/></linearGradient><linearGradient id="r" gradientUnits="userSpaceOnUse" x1="278.49" y1="490.95" x2="397.2" y2="490.95"><stop offset="0" stop-color="#22b2da"/><stop offset=".05" stop-color="#34b8dc"/><stop offset=".4" stop-color="#afe2ec"/><stop offset="1" stop-color="#eef9fc"/></linearGradient><path d="M337.8 431.7a59.3 59.3 0 0159.3 59.3c0 6.6-1.1 13.1-3.2 19.3-8 23.2-30.1 40-56 40-32.7 0-59.3-26.5-59.3-59.3s26.5-59.3 59.2-59.3z" opacity=".4" fill="url(#q)" stroke="url(#r)" stroke-width=".19" stroke-miterlimit="10"/><linearGradient id="s" gradientUnits="userSpaceOnUse" x1="490.21" y1="200.54" x2="804.09" y2="393.74"><stop offset="0" stop-color="#22b2da"/><stop offset=".05" stop-color="#34b8dc"/><stop offset=".4" stop-color="#afe2ec"/><stop offset="1" stop-color="#eef9fc"/></linearGradient><linearGradient id="t" gradientUnits="userSpaceOnUse" x1="522.25" y1="256.8" x2="640.97" y2="256.8"><stop offset="0" stop-color="#22b2da"/><stop offset=".05" stop-color="#34b8dc"/><stop offset=".4" stop-color="#afe2ec"/><stop offset="1" stop-color="#eef9fc"/></linearGradient><path d="M581.6 197.5a59.3 59.3 0 0159.3 59.3c0 6.6-1.1 13.1-3.2 19.3-8 23.2-30.1 40-56 40-32.7 0-59.3-26.5-59.3-59.3s26.5-59.3 59.2-59.3z" opacity=".4" fill="url(#s)" stroke="url(#t)" stroke-width=".19" stroke-miterlimit="10"/><g><linearGradient id="u" gradientUnits="userSpaceOnUse" x1="815" y1="971.81" x2="1000.47" y2="1102"><stop offset="0" stop-color="#da4a22"/><stop offset=".33" stop-color="#ec5b33"/><stop offset="1" stop-color="#ffbdaa"/></linearGradient><path d="M917.1 984.2a59.3 59.3 0 0159.3 59.3c0 6.6-1.1 13.1-3.2 19.3-8 23.2-30.1 40-56 40a59.3 59.3 0 01-59.3-59.3c-.1-32.7 26.5-59.3 59.2-59.3z" opacity=".4" fill="url(#u)"/><linearGradient id="v" gradientUnits="userSpaceOnUse" x1="507.45" y1="1575.72" x2="692.92" y2="1705.91"><stop offset="0" stop-color="#da4a22"/><stop offset=".33" stop-color="#ec5b33"/><stop offset="1" stop-color="#ffbdaa"/></linearGradient><path d="M609.6 1588.1a59.3 59.3 0 0159.3 59.3c0 6.6-1.1 13.1-3.2 19.3-8 23.2-30.1 40-56 40-32.7 0-59.3-26.5-59.3-59.3s26.4-59.3 59.2-59.3z" opacity=".4" fill="url(#v)"/><linearGradient id="w" gradientUnits="userSpaceOnUse" x1="354.26" y1="1873.96" x2="539.73" y2="2004.15"><stop offset="0" stop-color="#da4a22"/><stop offset=".33" stop-color="#ec5b33"/><stop offset="1" stop-color="#ffbdaa"/></linearGradient><path d="M456.4 1886.4a59.3 59.3 0 0159.3 59.3c0 6.6-1.1 13.1-3.2 19.3-8 23.2-30.1 40-56 40-32.7 0-59.3-26.5-59.3-59.3s26.4-59.3 59.2-59.3z" opacity=".4" fill="url(#w)"/><linearGradient id="x" gradientUnits="userSpaceOnUse" x1="50.76" y1="1686.55" x2="351.22" y2="1897.45"><stop offset="0" stop-color="#da4a22"/><stop offset=".33" stop-color="#ec5b33"/><stop offset="1" stop-color="#ffbdaa"/></linearGradient><path d="M216.2 1706.7c53 0 96 43 96 96a95.97 95.97 0 01-96 96c-53 0-96-43-96-96s43-96 96-96z" opacity=".4" fill="url(#x)"/><linearGradient id="y" gradientUnits="userSpaceOnUse" x1="714.95" y1="1759.06" x2="1015.41" y2="1969.96"><stop offset="0" stop-color="#da4a22"/><stop offset=".33" stop-color="#ec5b33"/><stop offset="1" stop-color="#ffbdaa"/></linearGradient><path d="M880.4 1779.2c53 0 96 43 96 96a95.97 95.97 0 01-96 96c-53 0-96-43-96-96s42.9-96 96-96z" opacity=".4" fill="url(#y)"/><linearGradient id="z" gradientUnits="userSpaceOnUse" x1="714.95" y1="1336.98" x2="1015.41" y2="1547.88"><stop offset="0" stop-color="#da4a22"/><stop offset=".33" stop-color="#ec5b33"/><stop offset="1" stop-color="#ffbdaa"/></linearGradient><path d="M880.4 1357.1c53 0 96 43 96 96a95.97 95.97 0 01-96 96c-53 0-96-43-96-96s42.9-96 96-96z" opacity=".4" fill="url(#z)"/></g></svg>