<svg xmlns="http://www.w3.org/2000/svg" viewBox="0 0 1921 2242"><linearGradient id="a" gradientUnits="userSpaceOnUse" x1="978.4" y1="1689.7" x2="978.4" y2="1690.5" gradientTransform="matrix(1920.1023 0 0 3469.9954 -1877664.38 -5863608.5)"><stop offset="0" stop-color="#afe2ec"/><stop offset="1" stop-color="#eef9fc"/></linearGradient><path d="M0 96C0-33 1920-31 1920 96l1 2146H1L0 96z" fill="url(#a)"/><linearGradient id="b" gradientUnits="userSpaceOnUse" x1="979.08" y1="1689.69" x2="978.08" y2="1690.59" gradientTransform="matrix(1925.0815 0 0 2465.5713 -1882537.13 -4165379.5)"><stop offset="0" stop-color="#da4a22"/><stop offset=".5" stop-color="#ff7650"/><stop offset="1" stop-color="#ffbdaa"/></linearGradient><path d="M1 2214c-1-290 780-360 1208-760 306-306 390-1234 712-1147v1935H1v-28z" fill="url(#b)"/><linearGradient id="c" gradientUnits="userSpaceOnUse" x1="1609.68" y1="1157.86" x2="1795.15" y2="1288.04"><stop offset="0" stop-color="#da4a22"/><stop offset=".33" stop-color="#ec5b33"/><stop offset="1" stop-color="#ffbdaa"/></linearGradient><path d="M1711.8 1170.3a59.3 59.3 0 0159.3 59.3c0 6.6-1.1 13.1-3.2 19.3-8 23.2-30.1 40-56 40-32.7 0-59.3-26.5-59.3-59.3s26.5-59.3 59.2-59.3z" opacity=".4" fill="url(#c)"/><linearGradient id="d" gradientUnits="userSpaceOnUse" x1="1314.59" y1="1509.07" x2="1500.06" y2="1639.26"><stop offset="0" stop-color="#da4a22"/><stop offset=".33" stop-color="#ec5b33"/><stop offset="1" stop-color="#ffbdaa"/></linearGradient><path d="M1416.7 1521.5a59.3 59.3 0 0159.3 59.3c0 6.6-1.1 13.1-3.2 19.3-8 23.2-30.1 40-56 40-32.7 0-59.3-26.5-59.3-59.3s26.5-59.3 59.2-59.3z" opacity=".4" fill="url(#d)"/><linearGradient id="e" gradientUnits="userSpaceOnUse" x1="1279.84" y1="1906.95" x2="1465.31" y2="2037.14"><stop offset="0" stop-color="#da4a22"/><stop offset=".33" stop-color="#ec5b33"/><stop offset="1" stop-color="#ffbdaa"/></linearGradient><path d="M1381.9 1919.4a59.3 59.3 0 0159.3 59.3c0 6.6-1.1 13.1-3.2 19.3-8 23.2-30.1 40-56 40a59.3 59.3 0 01-59.3-59.3c0-32.8 26.5-59.3 59.2-59.3z" opacity=".4" fill="url(#e)"/><linearGradient id="f" gradientUnits="userSpaceOnUse" x1="1728.2" y1="483.79" x2="1913.67" y2="613.97"><stop offset="0" stop-color="#da4a22"/><stop offset=".33" stop-color="#ec5b33"/><stop offset="1" stop-color="#ffbdaa"/></linearGradient><path d="M1830.3 496.2a59.3 59.3 0 0159.3 59.3c0 6.6-1.1 13.1-3.2 19.3-8 23.2-30.1 40-56 40a59.3 59.3 0 01-59.3-59.3 59.15 59.15 0 0159.2-59.3z" opacity=".4" fill="url(#f)"/><linearGradient id="g" gradientUnits="userSpaceOnUse" x1="117.5" y1="2062.21" x2="302.97" y2="2192.4"><stop offset="0" stop-color="#da4a22"/><stop offset=".33" stop-color="#ec5b33"/><stop offset="1" stop-color="#ffbdaa"/></linearGradient><path d="M219.6 2074.6a59.3 59.3 0 0159.3 59.3c0 6.6-1.1 13.1-3.2 19.3-8 23.2-30.1 40-56 40-32.7 0-59.3-26.5-59.3-59.3s26.5-59.3 59.2-59.3z" opacity=".4" fill="url(#g)"/><linearGradient id="h" gradientUnits="userSpaceOnUse" x1="895.7" y1="2039.69" x2="1081.17" y2="2169.88"><stop offset="0" stop-color="#da4a22"/><stop offset=".33" stop-color="#ec5b33"/><stop offset="1" stop-color="#ffbdaa"/></linearGradient><path d="M997.8 2052.1a59.3 59.3 0 0159.3 59.3c0 6.6-1.1 13.1-3.2 19.3-8 23.2-30.1 40-56 40-32.7 0-59.3-26.5-59.3-59.3s26.5-59.3 59.2-59.3z" opacity=".4" fill="url(#h)"/><linearGradient id="i" gradientUnits="userSpaceOnUse" x1="468.23" y1="1900.36" x2="768.7" y2="2111.26"><stop offset="0" stop-color="#da4a22"/><stop offset=".33" stop-color="#ec5b33"/><stop offset="1" stop-color="#ffbdaa"/></linearGradient><path d="M633.6 1920.5c53 0 96 43 96 96a95.97 95.97 0 01-96 96c-53 0-96-43-96-96s43-96 96-96z" opacity=".4" fill="url(#i)"/><linearGradient id="j" gradientUnits="userSpaceOnUse" x1="987.65" y1="1675.06" x2="1288.12" y2="1885.96"><stop offset="0" stop-color="#da4a22"/><stop offset=".33" stop-color="#ec5b33"/><stop offset="1" stop-color="#ffbdaa"/></linearGradient><path d="M1153.1 1695.2c53 0 96 43 96 96a95.97 95.97 0 01-96 96c-53 0-96-43-96-96s42.9-96 96-96z" opacity=".4" fill="url(#j)"/><linearGradient id="k" gradientUnits="userSpaceOnUse" x1="1582.27" y1="1511.9" x2="1882.73" y2="1722.8" gradientTransform="rotate(-8.23 1430.59 1441.61)"><stop offset="0" stop-color="#da4a22"/><stop offset=".33" stop-color="#ec5b33"/><stop offset="1" stop-color="#ffbdaa"/></linearGradient><path d="M1757.3 1485.7c52.5-7.6 101.2 28.8 108.8 81.3 1.5 10.5 1.3 21.2-.7 31.7-7.4 39.1-38.9 71.1-80.6 77.1-52.5 7.6-101.2-28.8-108.8-81.3-7.6-52.5 28.8-101.2 81.3-108.8z" opacity=".4" fill="url(#k)"/><linearGradient id="l" gradientUnits="userSpaceOnUse" x1="1509.62" y1="800.2" x2="1810.08" y2="1011.1"><stop offset="0" stop-color="#da4a22"/><stop offset=".33" stop-color="#ec5b33"/><stop offset="1" stop-color="#ffbdaa"/></linearGradient><path d="M1675 820.3c53 0 96 43 96 96a95.97 95.97 0 01-96 96c-53 0-96-43-96-96s43-96 96-96z" opacity=".4" fill="url(#l)"/><linearGradient id="m" gradientUnits="userSpaceOnUse" x1="1568.89" y1="1958.52" x2="1869.35" y2="2169.42"><stop offset="0" stop-color="#da4a22"/><stop offset=".33" stop-color="#ec5b33"/><stop offset="1" stop-color="#ffbdaa"/></linearGradient><path d="M1734.3 1978.6c53 0 96 43 96 96a95.97 95.97 0 01-96 96c-53 0-96-43-96-96s43-96 96-96z" opacity=".4" fill="url(#m)"/><g><linearGradient id="n" gradientUnits="userSpaceOnUse" x1="66.37" y1="129.34" x2="574.84" y2="442.32"><stop offset="0" stop-color="#22b2da"/><stop offset=".05" stop-color="#34b8dc"/><stop offset=".4" stop-color="#afe2ec"/><stop offset="1" stop-color="#eef9fc"/></linearGradient><linearGradient id="o" gradientUnits="userSpaceOnUse" x1="118.27" y1="220.47" x2="310.59" y2="220.47"><stop offset="0" stop-color="#22b2da"/><stop offset=".05" stop-color="#34b8dc"/><stop offset=".4" stop-color="#afe2ec"/><stop offset="1" stop-color="#eef9fc"/></linearGradient><path d="M214.4 124.5c53 0 96 43 96 96a95.97 95.97 0 01-96 96c-53 0-96-43-96-96s43-96 96-96z" opacity=".4" fill="url(#n)" stroke="url(#o)" stroke-width=".31" stroke-miterlimit="10"/><linearGradient id="p" gradientUnits="userSpaceOnUse" x1="789.83" y1="598.43" x2="1298.3" y2="911.41"><stop offset="0" stop-color="#22b2da"/><stop offset=".05" stop-color="#34b8dc"/><stop offset=".4" stop-color="#afe2ec"/><stop offset="1" stop-color="#eef9fc"/></linearGradient><linearGradient id="q" gradientUnits="userSpaceOnUse" x1="841.73" y1="689.57" x2="1034.05" y2="689.57"><stop offset="0" stop-color="#22b2da"/><stop offset=".05" stop-color="#34b8dc"/><stop offset=".4" stop-color="#afe2ec"/><stop offset="1" stop-color="#eef9fc"/></linearGradient><path d="M937.9 593.6c53 0 96 43 96 96a95.97 95.97 0 01-96 96c-53 0-96-43-96-96 0-53.1 43-96 96-96z" opacity=".4" fill="url(#p)" stroke="url(#q)" stroke-width=".31" stroke-miterlimit="10"/><linearGradient id="r" gradientUnits="userSpaceOnUse" x1="66.37" y1="660.27" x2="574.84" y2="973.26"><stop offset="0" stop-color="#22b2da"/><stop offset=".05" stop-color="#34b8dc"/><stop offset=".4" stop-color="#afe2ec"/><stop offset="1" stop-color="#eef9fc"/></linearGradient><linearGradient id="s" gradientUnits="userSpaceOnUse" x1="118.27" y1="751.41" x2="310.59" y2="751.41"><stop offset="0" stop-color="#22b2da"/><stop offset=".05" stop-color="#34b8dc"/><stop offset=".4" stop-color="#afe2ec"/><stop offset="1" stop-color="#eef9fc"/></linearGradient><path d="M214.4 655.4c53 0 96 43 96 96a95.97 95.97 0 01-96 96c-53 0-96-43-96-96s43-96 96-96z" opacity=".4" fill="url(#r)" stroke="url(#s)" stroke-width=".31" stroke-miterlimit="10"/><linearGradient id="t" gradientUnits="userSpaceOnUse" x1="162.37" y1="1246.53" x2="670.84" y2="1559.51"><stop offset="0" stop-color="#22b2da"/><stop offset=".05" stop-color="#34b8dc"/><stop offset=".4" stop-color="#afe2ec"/><stop offset="1" stop-color="#eef9fc"/></linearGradient><linearGradient id="u" gradientUnits="userSpaceOnUse" x1="214.27" y1="1337.67" x2="406.59" y2="1337.67"><stop offset="0" stop-color="#22b2da"/><stop offset=".05" stop-color="#34b8dc"/><stop offset=".4" stop-color="#afe2ec"/><stop offset="1" stop-color="#eef9fc"/></linearGradient><path d="M310.4 1241.7c53 0 96 43 96 96a95.97 95.97 0 01-96 96c-53 0-96-43-96-96s43-96 96-96z" opacity=".4" fill="url(#t)" stroke="url(#u)" stroke-width=".31" stroke-miterlimit="10"/><linearGradient id="v" gradientUnits="userSpaceOnUse" x1="1103.98" y1="202.82" x2="1612.46" y2="515.8"><stop offset="0" stop-color="#22b2da"/><stop offset=".05" stop-color="#34b8dc"/><stop offset=".4" stop-color="#afe2ec"/><stop offset="1" stop-color="#eef9fc"/></linearGradient><linearGradient id="w" gradientUnits="userSpaceOnUse" x1="1155.89" y1="293.95" x2="1348.2" y2="293.95"><stop offset="0" stop-color="#22b2da"/><stop offset=".05" stop-color="#34b8dc"/><stop offset=".4" stop-color="#afe2ec"/><stop offset="1" stop-color="#eef9fc"/></linearGradient><path d="M1252 198c53 0 96 43 96 96a95.97 95.97 0 01-96 96c-53 0-96-43-96-96s43-96 96-96z" opacity=".4" fill="url(#v)" stroke="url(#w)" stroke-width=".31" stroke-miterlimit="10"/><linearGradient id="x" gradientUnits="userSpaceOnUse" x1="1038.62" y1="1029.86" x2="1547.1" y2="1342.85"><stop offset="0" stop-color="#22b2da"/><stop offset=".05" stop-color="#34b8dc"/><stop offset=".4" stop-color="#afe2ec"/><stop offset="1" stop-color="#eef9fc"/></linearGradient><linearGradient id="y" gradientUnits="userSpaceOnUse" x1="1090.53" y1="1121" x2="1282.84" y2="1121"><stop offset="0" stop-color="#22b2da"/><stop offset=".05" stop-color="#34b8dc"/><stop offset=".4" stop-color="#afe2ec"/><stop offset="1" stop-color="#eef9fc"/></linearGradient><path d="M1186.7 1025c53 0 96 43 96 96a95.97 95.97 0 01-96 96c-53 0-96-43-96-96s43-96 96-96z" opacity=".4" fill="url(#x)" stroke="url(#y)" stroke-width=".31" stroke-miterlimit="10"/><linearGradient id="z" gradientUnits="userSpaceOnUse" x1="542.25" y1="939.74" x2="856.12" y2="1132.94"><stop offset="0" stop-color="#22b2da"/><stop offset=".05" stop-color="#34b8dc"/><stop offset=".4" stop-color="#afe2ec"/><stop offset="1" stop-color="#eef9fc"/></linearGradient><linearGradient id="A" gradientUnits="userSpaceOnUse" x1="574.29" y1="996" x2="693" y2="996"><stop offset="0" stop-color="#22b2da"/><stop offset=".05" stop-color="#34b8dc"/><stop offset=".4" stop-color="#afe2ec"/><stop offset="1" stop-color="#eef9fc"/></linearGradient><path d="M633.6 936.7a59.3 59.3 0 0159.3 59.3c0 6.6-1.1 13.1-3.2 19.3-8 23.2-30.1 40-56 40-32.7 0-59.3-26.5-59.3-59.3s26.5-59.3 59.2-59.3z" opacity=".4" fill="url(#z)" stroke="url(#A)" stroke-width=".19" stroke-miterlimit="10"/><linearGradient id="B" gradientUnits="userSpaceOnUse" x1="564.77" y1="1561.24" x2="878.64" y2="1754.44"><stop offset="0" stop-color="#22b2da"/><stop offset=".05" stop-color="#34b8dc"/><stop offset=".4" stop-color="#afe2ec"/><stop offset="1" stop-color="#eef9fc"/></linearGradient><linearGradient id="C" gradientUnits="userSpaceOnUse" x1="596.81" y1="1617.5" x2="715.52" y2="1617.5"><stop offset="0" stop-color="#22b2da"/><stop offset=".05" stop-color="#34b8dc"/><stop offset=".4" stop-color="#afe2ec"/><stop offset="1" stop-color="#eef9fc"/></linearGradient><path d="M656.2 1558.2a59.3 59.3 0 0159.3 59.3c0 6.6-1.1 13.1-3.2 19.3-8 23.2-30.1 40-56 40-32.7 0-59.3-26.5-59.3-59.3s26.4-59.3 59.2-59.3z" opacity=".4" fill="url(#B)" stroke="url(#C)" stroke-width=".19" stroke-miterlimit="10"/><linearGradient id="D" gradientUnits="userSpaceOnUse" x1="86.29" y1="1804.95" x2="400.16" y2="1998.15"><stop offset="0" stop-color="#22b2da"/><stop offset=".05" stop-color="#34b8dc"/><stop offset=".4" stop-color="#afe2ec"/><stop offset="1" stop-color="#eef9fc"/></linearGradient><linearGradient id="E" gradientUnits="userSpaceOnUse" x1="118.33" y1="1861.21" x2="237.04" y2="1861.21"><stop offset="0" stop-color="#22b2da"/><stop offset=".05" stop-color="#34b8dc"/><stop offset=".4" stop-color="#afe2ec"/><stop offset="1" stop-color="#eef9fc"/></linearGradient><path d="M177.7 1802a59.3 59.3 0 0159.3 59.3c0 6.6-1.1 13.1-3.2 19.3-8 23.2-30.1 40-56 40a59.3 59.3 0 01-59.3-59.3 59.15 59.15 0 0159.2-59.3z" opacity=".4" fill="url(#D)" stroke="url(#E)" stroke-width=".19" stroke-miterlimit="10"/><linearGradient id="F" gradientUnits="userSpaceOnUse" x1="799.31" y1="82.44" x2="1113.19" y2="275.64"><stop offset="0" stop-color="#22b2da"/><stop offset=".05" stop-color="#34b8dc"/><stop offset=".4" stop-color="#afe2ec"/><stop offset="1" stop-color="#eef9fc"/></linearGradient><linearGradient id="G" gradientUnits="userSpaceOnUse" x1="831.35" y1="138.69" x2="950.06" y2="138.69"><stop offset="0" stop-color="#22b2da"/><stop offset=".05" stop-color="#34b8dc"/><stop offset=".4" stop-color="#afe2ec"/><stop offset="1" stop-color="#eef9fc"/></linearGradient><path d="M890.7 79.4a59.3 59.3 0 0159.3 59.3c0 6.6-1.1 13.1-3.2 19.3-8 23.2-30.1 40-56 40-32.7 0-59.3-26.5-59.3-59.3s26.5-59.3 59.2-59.3z" opacity=".4" fill="url(#F)" stroke="url(#G)" stroke-width=".19" stroke-miterlimit="10"/><linearGradient id="H" gradientUnits="userSpaceOnUse" x1="1608.02" y1="141.7" x2="1921.89" y2="334.89"><stop offset="0" stop-color="#22b2da"/><stop offset=".05" stop-color="#34b8dc"/><stop offset=".4" stop-color="#afe2ec"/><stop offset="1" stop-color="#eef9fc"/></linearGradient><linearGradient id="I" gradientUnits="userSpaceOnUse" x1="1640.06" y1="197.95" x2="1758.77" y2="197.95"><stop offset="0" stop-color="#22b2da"/><stop offset=".05" stop-color="#34b8dc"/><stop offset=".4" stop-color="#afe2ec"/><stop offset="1" stop-color="#eef9fc"/></linearGradient><path d="M1699.4 138.7a59.3 59.3 0 0159.3 59.3c0 6.6-1.1 13.1-3.2 19.3-8 23.2-30.1 40-56 40-32.7 0-59.3-26.5-59.3-59.3s26.5-59.3 59.2-59.3z" opacity=".4" fill="url(#H)" stroke="url(#I)" stroke-width=".19" stroke-miterlimit="10"/><linearGradient id="J" gradientUnits="userSpaceOnUse" x1="446.25" y1="439.94" x2="760.12" y2="633.14"><stop offset="0" stop-color="#22b2da"/><stop offset=".05" stop-color="#34b8dc"/><stop offset=".4" stop-color="#afe2ec"/><stop offset="1" stop-color="#eef9fc"/></linearGradient><linearGradient id="K" gradientUnits="userSpaceOnUse" x1="478.29" y1="496.2" x2="597" y2="496.2"><stop offset="0" stop-color="#22b2da"/><stop offset=".05" stop-color="#34b8dc"/><stop offset=".4" stop-color="#afe2ec"/><stop offset="1" stop-color="#eef9fc"/></linearGradient><path d="M537.6 436.9a59.3 59.3 0 0159.3 59.3c0 6.6-1.1 13.1-3.2 19.3-8 23.2-30.1 40-56 40-32.7 0-59.3-26.5-59.3-59.3s26.5-59.3 59.2-59.3z" opacity=".4" fill="url(#J)" stroke="url(#K)" stroke-width=".19" stroke-miterlimit="10"/><linearGradient id="L" gradientUnits="userSpaceOnUse" x1="740.05" y1="1185.41" x2="1053.93" y2="1378.61"><stop offset="0" stop-color="#22b2da"/><stop offset=".05" stop-color="#34b8dc"/><stop offset=".4" stop-color="#afe2ec"/><stop offset="1" stop-color="#eef9fc"/></linearGradient><linearGradient id="M" gradientUnits="userSpaceOnUse" x1="772.09" y1="1241.67" x2="890.81" y2="1241.67"><stop offset="0" stop-color="#22b2da"/><stop offset=".05" stop-color="#34b8dc"/><stop offset=".4" stop-color="#afe2ec"/><stop offset="1" stop-color="#eef9fc"/></linearGradient><path d="M831.4 1182.4a59.3 59.3 0 0159.3 59.3c0 6.6-1.1 13.1-3.2 19.3-8 23.2-30.1 40-56 40-32.7 0-59.3-26.5-59.3-59.3s26.5-59.3 59.2-59.3z" opacity=".4" fill="url(#L)" stroke="url(#M)" stroke-width=".19" stroke-miterlimit="10"/><linearGradient id="N" gradientUnits="userSpaceOnUse" x1="1325.3" y1="620.63" x2="1639.17" y2="813.82"><stop offset="0" stop-color="#22b2da"/><stop offset=".05" stop-color="#34b8dc"/><stop offset=".4" stop-color="#afe2ec"/><stop offset="1" stop-color="#eef9fc"/></linearGradient><linearGradient id="O" gradientUnits="userSpaceOnUse" x1="1357.34" y1="676.88" x2="1476.05" y2="676.88"><stop offset="0" stop-color="#22b2da"/><stop offset=".05" stop-color="#34b8dc"/><stop offset=".4" stop-color="#afe2ec"/><stop offset="1" stop-color="#eef9fc"/></linearGradient><path d="M1416.7 617.6a59.3 59.3 0 0159.3 59.3c0 6.6-1.1 13.1-3.2 19.3-8 23.2-30.1 40-56 40a59.3 59.3 0 01-59.3-59.3c-.1-32.7 26.5-59.3 59.2-59.3z" opacity=".4" fill="url(#N)" stroke="url(#O)" stroke-width=".19" stroke-miterlimit="10"/></g></svg>