<svg xmlns="http://www.w3.org/2000/svg" viewBox="0 0 1920 1584.7"><linearGradient id="a" gradientUnits="userSpaceOnUse" x1="1027.51" y1="1983.39" x2="751.77" y2="-2796.18" gradientTransform="matrix(1 0 0 -1 0 1584)"><stop offset="0" stop-color="#22b2da"/><stop offset=".06" stop-color="#42bdde"/><stop offset=".14" stop-color="#69cae3"/><stop offset=".22" stop-color="#88d5e7"/><stop offset=".29" stop-color="#9ddcea"/><stop offset=".37" stop-color="#abe0eb"/><stop offset=".44" stop-color="#afe2ec"/><stop offset="1" stop-color="#eef9fc"/></linearGradient><path d="M1920 0v1440.7c-218.8 137.4-508.8 78.9-818.4 20.3-262.4-49.7-538-99.1-796.3-29.2-105.3 28.5-207.7 76.8-305.3 153V100.9c171.3-98.5 359.9 25.6 445.2 60.4C1082.4 420.6 1519.3 0 1920 0z" fill="url(#a)"/><g><linearGradient id="b" gradientUnits="userSpaceOnUse" x1="46.2" y1="1218.09" x2="554.68" y2="1531.08"><stop offset="0" stop-color="#22b2da"/><stop offset=".05" stop-color="#34b8dc"/><stop offset=".4" stop-color="#afe2ec"/><stop offset="1" stop-color="#eef9fc"/></linearGradient><linearGradient id="c" gradientUnits="userSpaceOnUse" x1="98.1" y1="1309.23" x2="290.42" y2="1309.23"><stop offset="0" stop-color="#22b2da"/><stop offset=".05" stop-color="#34b8dc"/><stop offset=".4" stop-color="#afe2ec"/><stop offset="1" stop-color="#eef9fc"/></linearGradient><path d="M194.3 1213.2c53 0 96 43 96 96a95.97 95.97 0 01-96 96c-53 0-96-43-96-96s42.9-96 96-96z" opacity=".4" fill="url(#b)" stroke="url(#c)" stroke-width=".31" stroke-miterlimit="10"/><linearGradient id="d" gradientUnits="userSpaceOnUse" x1="942.79" y1="996.59" x2="1451.26" y2="1309.57"><stop offset="0" stop-color="#22b2da"/><stop offset=".05" stop-color="#34b8dc"/><stop offset=".4" stop-color="#afe2ec"/><stop offset="1" stop-color="#eef9fc"/></linearGradient><linearGradient id="e" gradientUnits="userSpaceOnUse" x1="994.69" y1="1087.73" x2="1187.01" y2="1087.73"><stop offset="0" stop-color="#22b2da"/><stop offset=".05" stop-color="#34b8dc"/><stop offset=".4" stop-color="#afe2ec"/><stop offset="1" stop-color="#eef9fc"/></linearGradient><path d="M1090.8 991.7c53 0 96 43 96 96a95.97 95.97 0 01-96 96c-53 0-96-43-96-96s43-96 96-96z" opacity=".4" fill="url(#d)" stroke="url(#e)" stroke-width=".31" stroke-miterlimit="10"/><linearGradient id="f" gradientUnits="userSpaceOnUse" x1="1614.48" y1="184.41" x2="2122.96" y2="497.4"><stop offset="0" stop-color="#22b2da"/><stop offset=".05" stop-color="#34b8dc"/><stop offset=".4" stop-color="#afe2ec"/><stop offset="1" stop-color="#eef9fc"/></linearGradient><linearGradient id="g" gradientUnits="userSpaceOnUse" x1="1666.39" y1="275.55" x2="1858.7" y2="275.55"><stop offset="0" stop-color="#22b2da"/><stop offset=".05" stop-color="#34b8dc"/><stop offset=".4" stop-color="#afe2ec"/><stop offset="1" stop-color="#eef9fc"/></linearGradient><path d="M1762.5 179.5c53 0 96 43 96 96a95.97 95.97 0 01-96 96c-53 0-96-43-96-96s43-96 96-96z" opacity=".4" fill="url(#f)" stroke="url(#g)" stroke-width=".31" stroke-miterlimit="10"/><linearGradient id="h" gradientUnits="userSpaceOnUse" x1="560.5" y1="1142.05" x2="874.37" y2="1335.24"><stop offset="0" stop-color="#22b2da"/><stop offset=".05" stop-color="#34b8dc"/><stop offset=".4" stop-color="#afe2ec"/><stop offset="1" stop-color="#eef9fc"/></linearGradient><linearGradient id="i" gradientUnits="userSpaceOnUse" x1="592.54" y1="1198.3" x2="711.25" y2="1198.3"><stop offset="0" stop-color="#22b2da"/><stop offset=".05" stop-color="#34b8dc"/><stop offset=".4" stop-color="#afe2ec"/><stop offset="1" stop-color="#eef9fc"/></linearGradient><path d="M651.9 1139a59.3 59.3 0 0159.3 59.3c0 6.6-1.1 13.1-3.2 19.3-8 23.2-30.1 40-56 40a59.3 59.3 0 01-59.3-59.3c-.1-32.7 26.5-59.3 59.2-59.3z" opacity=".4" fill="url(#h)" stroke="url(#i)" stroke-width=".19" stroke-miterlimit="10"/><linearGradient id="j" gradientUnits="userSpaceOnUse" x1="903.45" y1="772.87" x2="1217.33" y2="966.07"><stop offset="0" stop-color="#22b2da"/><stop offset=".05" stop-color="#34b8dc"/><stop offset=".4" stop-color="#afe2ec"/><stop offset="1" stop-color="#eef9fc"/></linearGradient><linearGradient id="k" gradientUnits="userSpaceOnUse" x1="935.49" y1="829.13" x2="1054.21" y2="829.13"><stop offset="0" stop-color="#22b2da"/><stop offset=".05" stop-color="#34b8dc"/><stop offset=".4" stop-color="#afe2ec"/><stop offset="1" stop-color="#eef9fc"/></linearGradient><path d="M994.8 769.9a59.3 59.3 0 0159.3 59.3c0 6.6-1.1 13.1-3.2 19.3-8 23.2-30.1 40-56 40-32.7 0-59.3-26.5-59.3-59.3s26.5-59.3 59.2-59.3z" opacity=".4" fill="url(#j)" stroke="url(#k)" stroke-width=".19" stroke-miterlimit="10"/><linearGradient id="l" gradientUnits="userSpaceOnUse" x1="66.13" y1="920.54" x2="380" y2="1113.74"><stop offset="0" stop-color="#22b2da"/><stop offset=".05" stop-color="#34b8dc"/><stop offset=".4" stop-color="#afe2ec"/><stop offset="1" stop-color="#eef9fc"/></linearGradient><linearGradient id="m" gradientUnits="userSpaceOnUse" x1="98.17" y1="976.8" x2="216.88" y2="976.8"><stop offset="0" stop-color="#22b2da"/><stop offset=".05" stop-color="#34b8dc"/><stop offset=".4" stop-color="#afe2ec"/><stop offset="1" stop-color="#eef9fc"/></linearGradient><path d="M157.5 917.5a59.3 59.3 0 0159.3 59.3c0 6.6-1.1 13.1-3.2 19.3-8 23.2-30.1 40-56 40a59.3 59.3 0 01-59.3-59.3c0-32.7 26.5-59.3 59.2-59.3z" opacity=".4" fill="url(#l)" stroke="url(#m)" stroke-width=".19" stroke-miterlimit="10"/><linearGradient id="n" gradientUnits="userSpaceOnUse" x1="1463.31" y1="994.38" x2="1777.18" y2="1187.58"><stop offset="0" stop-color="#22b2da"/><stop offset=".05" stop-color="#34b8dc"/><stop offset=".4" stop-color="#afe2ec"/><stop offset="1" stop-color="#eef9fc"/></linearGradient><linearGradient id="o" gradientUnits="userSpaceOnUse" x1="1495.35" y1="1050.63" x2="1614.06" y2="1050.63"><stop offset="0" stop-color="#22b2da"/><stop offset=".05" stop-color="#34b8dc"/><stop offset=".4" stop-color="#afe2ec"/><stop offset="1" stop-color="#eef9fc"/></linearGradient><path d="M1554.7 991.4a59.3 59.3 0 0159.3 59.3c0 6.6-1.1 13.1-3.2 19.3-8 23.2-30.1 40-56 40-32.7 0-59.3-26.5-59.3-59.3s26.5-59.3 59.2-59.3z" opacity=".4" fill="url(#n)" stroke="url(#o)" stroke-width=".19" stroke-miterlimit="10"/><linearGradient id="p" gradientUnits="userSpaceOnUse" x1="1611.89" y1="1215.88" x2="1925.76" y2="1409.08"><stop offset="0" stop-color="#22b2da"/><stop offset=".05" stop-color="#34b8dc"/><stop offset=".4" stop-color="#afe2ec"/><stop offset="1" stop-color="#eef9fc"/></linearGradient><linearGradient id="q" gradientUnits="userSpaceOnUse" x1="1643.93" y1="1272.14" x2="1762.64" y2="1272.14"><stop offset="0" stop-color="#22b2da"/><stop offset=".05" stop-color="#34b8dc"/><stop offset=".4" stop-color="#afe2ec"/><stop offset="1" stop-color="#eef9fc"/></linearGradient><path d="M1703.3 1212.9a59.3 59.3 0 0159.3 59.3c0 6.6-1.1 13.1-3.2 19.3-8 23.2-30.1 40-56 40-32.7 0-59.3-26.5-59.3-59.3s26.5-59.3 59.2-59.3z" opacity=".4" fill="url(#p)" stroke="url(#q)" stroke-width=".19" stroke-miterlimit="10"/><linearGradient id="r" gradientUnits="userSpaceOnUse" x1="48.29" y1="258.25" x2="556.77" y2="571.23"><stop offset="0" stop-color="#22b2da"/><stop offset=".05" stop-color="#34b8dc"/><stop offset=".4" stop-color="#afe2ec"/><stop offset="1" stop-color="#eef9fc"/></linearGradient><linearGradient id="s" gradientUnits="userSpaceOnUse" x1="100.2" y1="349.38" x2="292.51" y2="349.38"><stop offset="0" stop-color="#22b2da"/><stop offset=".05" stop-color="#34b8dc"/><stop offset=".4" stop-color="#afe2ec"/><stop offset="1" stop-color="#eef9fc"/></linearGradient><path d="M196.4 253.4c53 0 96 43 96 96a95.97 95.97 0 01-96 96c-53 0-96-43-96-96s42.9-96 96-96z" opacity=".4" fill="url(#r)" stroke="url(#s)" stroke-width=".31" stroke-miterlimit="10"/><linearGradient id="t" gradientUnits="userSpaceOnUse" x1="444.57" y1="775.09" x2="953.05" y2="1088.07"><stop offset="0" stop-color="#22b2da"/><stop offset=".05" stop-color="#34b8dc"/><stop offset=".4" stop-color="#afe2ec"/><stop offset="1" stop-color="#eef9fc"/></linearGradient><linearGradient id="u" gradientUnits="userSpaceOnUse" x1="496.48" y1="866.22" x2="688.79" y2="866.22"><stop offset="0" stop-color="#22b2da"/><stop offset=".05" stop-color="#34b8dc"/><stop offset=".4" stop-color="#afe2ec"/><stop offset="1" stop-color="#eef9fc"/></linearGradient><path d="M592.6 770.2c53 0 96 43 96 96a95.97 95.97 0 01-96 96c-53 0-96-43-96-96s43-96 96-96z" opacity=".4" fill="url(#t)" stroke="url(#u)" stroke-width=".31" stroke-miterlimit="10"/><linearGradient id="v" gradientUnits="userSpaceOnUse" x1="599.83" y1="405.92" x2="1108.31" y2="718.9"><stop offset="0" stop-color="#22b2da"/><stop offset=".05" stop-color="#34b8dc"/><stop offset=".4" stop-color="#afe2ec"/><stop offset="1" stop-color="#eef9fc"/></linearGradient><linearGradient id="w" gradientUnits="userSpaceOnUse" x1="651.74" y1="497.05" x2="844.05" y2="497.05"><stop offset="0" stop-color="#22b2da"/><stop offset=".05" stop-color="#34b8dc"/><stop offset=".4" stop-color="#afe2ec"/><stop offset="1" stop-color="#eef9fc"/></linearGradient><path d="M747.9 401.1c53 0 96 43 96 96a95.97 95.97 0 01-96 96c-53 0-96-43-96-96s43-96 96-96z" opacity=".4" fill="url(#v)" stroke="url(#w)" stroke-width=".31" stroke-miterlimit="10"/><linearGradient id="x" gradientUnits="userSpaceOnUse" x1="297.01" y1="551.37" x2="610.88" y2="744.57"><stop offset="0" stop-color="#22b2da"/><stop offset=".05" stop-color="#34b8dc"/><stop offset=".4" stop-color="#afe2ec"/><stop offset="1" stop-color="#eef9fc"/></linearGradient><linearGradient id="y" gradientUnits="userSpaceOnUse" x1="329.05" y1="607.63" x2="447.76" y2="607.63"><stop offset="0" stop-color="#22b2da"/><stop offset=".05" stop-color="#34b8dc"/><stop offset=".4" stop-color="#afe2ec"/><stop offset="1" stop-color="#eef9fc"/></linearGradient><path d="M388.4 548.4a59.3 59.3 0 0159.3 59.3c0 6.6-1.1 13.1-3.2 19.3-8 23.2-30.1 40-56 40a59.3 59.3 0 01-59.3-59.3 59.15 59.15 0 0159.2-59.3z" opacity=".4" fill="url(#x)" stroke="url(#y)" stroke-width=".19" stroke-miterlimit="10"/><linearGradient id="z" gradientUnits="userSpaceOnUse" x1="1651.3" y1="625.21" x2="1965.17" y2="818.4"><stop offset="0" stop-color="#22b2da"/><stop offset=".05" stop-color="#34b8dc"/><stop offset=".4" stop-color="#afe2ec"/><stop offset="1" stop-color="#eef9fc"/></linearGradient><linearGradient id="A" gradientUnits="userSpaceOnUse" x1="1683.34" y1="681.46" x2="1802.05" y2="681.46"><stop offset="0" stop-color="#22b2da"/><stop offset=".05" stop-color="#34b8dc"/><stop offset=".4" stop-color="#afe2ec"/><stop offset="1" stop-color="#eef9fc"/></linearGradient><path d="M1742.7 622.2a59.3 59.3 0 0159.3 59.3c0 6.6-1.1 13.1-3.2 19.3-8 23.2-30.1 40-56 40-32.7 0-59.3-26.5-59.3-59.3s26.5-59.3 59.2-59.3z" opacity=".4" fill="url(#z)" stroke="url(#A)" stroke-width=".19" stroke-miterlimit="10"/><linearGradient id="B" gradientUnits="userSpaceOnUse" x1="1194.16" y1="403.7" x2="1508.03" y2="596.9"><stop offset="0" stop-color="#22b2da"/><stop offset=".05" stop-color="#34b8dc"/><stop offset=".4" stop-color="#afe2ec"/><stop offset="1" stop-color="#eef9fc"/></linearGradient><linearGradient id="C" gradientUnits="userSpaceOnUse" x1="1226.2" y1="459.96" x2="1344.91" y2="459.96"><stop offset="0" stop-color="#22b2da"/><stop offset=".05" stop-color="#34b8dc"/><stop offset=".4" stop-color="#afe2ec"/><stop offset="1" stop-color="#eef9fc"/></linearGradient><path d="M1285.6 400.7a59.3 59.3 0 0159.3 59.3c0 6.6-1.1 13.1-3.2 19.3-8 23.2-30.1 40-56 40-32.7 0-59.3-26.5-59.3-59.3s26.4-59.3 59.2-59.3z" opacity=".4" fill="url(#B)" stroke="url(#C)" stroke-width=".19" stroke-miterlimit="10"/><linearGradient id="D" gradientUnits="userSpaceOnUse" x1="1253.42" y1="699.04" x2="1567.29" y2="892.24"><stop offset="0" stop-color="#22b2da"/><stop offset=".05" stop-color="#34b8dc"/><stop offset=".4" stop-color="#afe2ec"/><stop offset="1" stop-color="#eef9fc"/></linearGradient><linearGradient id="E" gradientUnits="userSpaceOnUse" x1="1285.46" y1="755.3" x2="1404.17" y2="755.3"><stop offset="0" stop-color="#22b2da"/><stop offset=".05" stop-color="#34b8dc"/><stop offset=".4" stop-color="#afe2ec"/><stop offset="1" stop-color="#eef9fc"/></linearGradient><path d="M1344.8 696a59.3 59.3 0 0159.3 59.3c0 6.6-1.1 13.1-3.2 19.3-8 23.2-30.1 40-56 40a59.3 59.3 0 01-59.3-59.3c0-32.7 26.5-59.3 59.2-59.3z" opacity=".4" fill="url(#D)" stroke="url(#E)" stroke-width=".19" stroke-miterlimit="10"/></g></svg>