<svg xmlns="http://www.w3.org/2000/svg" viewBox="0 0 1371 1962"><linearGradient id="a" gradientUnits="userSpaceOnUse" x1="-1455.73" y1="1405.34" x2="-1455.73" y2="1405.94" gradientTransform="matrix(1920.1023 0 0 3469.9954 2795841.75 -4876694)"><stop offset="0" stop-color="#afe2ec"/><stop offset="1" stop-color="#eef9fc"/></linearGradient><path d="M0 87C0-29 1370-28 1370 87l1 1875H1L0 87z" fill="url(#a)"/><linearGradient id="b" gradientUnits="userSpaceOnUse" x1="-1455.29" y1="1405.33" x2="-1455.99" y2="1406.03" gradientTransform="matrix(1925.0815 0 0 2465.5713 2803094.25 -3464136.5)"><stop offset="0" stop-color="#da4a22"/><stop offset=".5" stop-color="#ff7650"/><stop offset="1" stop-color="#ffbdaa"/></linearGradient><path d="M0 1895c0-244 556-136 905-550 240-258 251-1003 466-897l-1 1514H0v-67z" fill="url(#b)"/><linearGradient id="c" gradientUnits="userSpaceOnUse" x1="66.25" y1="185.45" x2="574.72" y2="498.43"><stop offset="0" stop-color="#22b2da"/><stop offset=".05" stop-color="#34b8dc"/><stop offset=".4" stop-color="#afe2ec"/><stop offset="1" stop-color="#eef9fc"/></linearGradient><linearGradient id="d" gradientUnits="userSpaceOnUse" x1="118.15" y1="276.58" x2="310.47" y2="276.58"><stop offset="0" stop-color="#22b2da"/><stop offset=".05" stop-color="#34b8dc"/><stop offset=".4" stop-color="#afe2ec"/><stop offset="1" stop-color="#eef9fc"/></linearGradient><path d="M214.3 180.6c53 0 96 43 96 96a95.97 95.97 0 01-96 96c-53 0-96-43-96-96s43-96 96-96z" opacity=".4" fill="url(#c)" stroke="url(#d)" stroke-width=".31" stroke-miterlimit="10"/><linearGradient id="e" gradientUnits="userSpaceOnUse" x1="565.9" y1="537.69" x2="1074.37" y2="850.67"><stop offset="0" stop-color="#22b2da"/><stop offset=".05" stop-color="#34b8dc"/><stop offset=".4" stop-color="#afe2ec"/><stop offset="1" stop-color="#eef9fc"/></linearGradient><linearGradient id="f" gradientUnits="userSpaceOnUse" x1="617.8" y1="628.82" x2="810.11" y2="628.82"><stop offset="0" stop-color="#22b2da"/><stop offset=".05" stop-color="#34b8dc"/><stop offset=".4" stop-color="#afe2ec"/><stop offset="1" stop-color="#eef9fc"/></linearGradient><path d="M714 532.8c53 0 96 43 96 96a95.97 95.97 0 01-96 96c-53 0-96-43-96-96s42.9-96 96-96z" opacity=".4" fill="url(#e)" stroke="url(#f)" stroke-width=".31" stroke-miterlimit="10"/><linearGradient id="g" gradientUnits="userSpaceOnUse" x1="1034.44" y1="225.27" x2="1542.92" y2="538.26"><stop offset="0" stop-color="#22b2da"/><stop offset=".05" stop-color="#34b8dc"/><stop offset=".4" stop-color="#afe2ec"/><stop offset="1" stop-color="#eef9fc"/></linearGradient><linearGradient id="h" gradientUnits="userSpaceOnUse" x1="1086.35" y1="316.41" x2="1278.66" y2="316.41"><stop offset="0" stop-color="#22b2da"/><stop offset=".05" stop-color="#34b8dc"/><stop offset=".4" stop-color="#afe2ec"/><stop offset="1" stop-color="#eef9fc"/></linearGradient><path d="M1182.5 220.4c53 0 96 43 96 96a95.97 95.97 0 01-96 96c-53 0-96-43-96-96s43-96 96-96z" opacity=".4" fill="url(#g)" stroke="url(#h)" stroke-width=".31" stroke-miterlimit="10"/><linearGradient id="i" gradientUnits="userSpaceOnUse" x1="66.25" y1="1383.35" x2="574.72" y2="1696.33"><stop offset="0" stop-color="#22b2da"/><stop offset=".05" stop-color="#34b8dc"/><stop offset=".4" stop-color="#afe2ec"/><stop offset="1" stop-color="#eef9fc"/></linearGradient><linearGradient id="j" gradientUnits="userSpaceOnUse" x1="118.15" y1="1474.49" x2="310.47" y2="1474.49"><stop offset="0" stop-color="#22b2da"/><stop offset=".05" stop-color="#34b8dc"/><stop offset=".4" stop-color="#afe2ec"/><stop offset="1" stop-color="#eef9fc"/></linearGradient><path d="M214.3 1378.5c53 0 96 43 96 96a95.97 95.97 0 01-96 96c-53 0-96-43-96-96s43-96 96-96z" opacity=".4" fill="url(#i)" stroke="url(#j)" stroke-width=".31" stroke-miterlimit="10"/><linearGradient id="k" gradientUnits="userSpaceOnUse" x1="122.91" y1="685.9" x2="436.79" y2="879.1"><stop offset="0" stop-color="#22b2da"/><stop offset=".05" stop-color="#34b8dc"/><stop offset=".4" stop-color="#afe2ec"/><stop offset="1" stop-color="#eef9fc"/></linearGradient><linearGradient id="l" gradientUnits="userSpaceOnUse" x1="154.95" y1="742.16" x2="273.66" y2="742.16"><stop offset="0" stop-color="#22b2da"/><stop offset=".05" stop-color="#34b8dc"/><stop offset=".4" stop-color="#afe2ec"/><stop offset="1" stop-color="#eef9fc"/></linearGradient><path d="M214.3 682.9a59.3 59.3 0 0159.3 59.3c0 6.6-1.1 13.1-3.2 19.3-8 23.2-30.1 40-56 40-32.7 0-59.3-26.5-59.3-59.3s26.5-59.3 59.2-59.3z" opacity=".4" fill="url(#k)" stroke="url(#l)" stroke-width=".19" stroke-miterlimit="10"/><linearGradient id="m" gradientUnits="userSpaceOnUse" x1="837.08" y1="941.69" x2="1150.95" y2="1134.89"><stop offset="0" stop-color="#22b2da"/><stop offset=".05" stop-color="#34b8dc"/><stop offset=".4" stop-color="#afe2ec"/><stop offset="1" stop-color="#eef9fc"/></linearGradient><linearGradient id="n" gradientUnits="userSpaceOnUse" x1="869.12" y1="997.95" x2="987.83" y2="997.95"><stop offset="0" stop-color="#22b2da"/><stop offset=".05" stop-color="#34b8dc"/><stop offset=".4" stop-color="#afe2ec"/><stop offset="1" stop-color="#eef9fc"/></linearGradient><path d="M928.5 938.7a59.3 59.3 0 0159.3 59.3c0 6.6-1.1 13.1-3.2 19.3-8 23.2-30.1 40-56 40a59.3 59.3 0 01-59.3-59.3 59.09 59.09 0 0159.2-59.3z" opacity=".4" fill="url(#m)" stroke="url(#n)" stroke-width=".19" stroke-miterlimit="10"/><linearGradient id="o" gradientUnits="userSpaceOnUse" x1="652.04" y1="121.65" x2="965.91" y2="314.84"><stop offset="0" stop-color="#22b2da"/><stop offset=".05" stop-color="#34b8dc"/><stop offset=".4" stop-color="#afe2ec"/><stop offset="1" stop-color="#eef9fc"/></linearGradient><linearGradient id="p" gradientUnits="userSpaceOnUse" x1="684.08" y1="177.9" x2="802.79" y2="177.9"><stop offset="0" stop-color="#22b2da"/><stop offset=".05" stop-color="#34b8dc"/><stop offset=".4" stop-color="#afe2ec"/><stop offset="1" stop-color="#eef9fc"/></linearGradient><path d="M743.4 118.6a59.3 59.3 0 0159.3 59.3c0 6.6-1.1 13.1-3.2 19.3-8 23.2-30.1 40-56 40-32.7 0-59.3-26.5-59.3-59.3s26.5-59.3 59.2-59.3z" opacity=".4" fill="url(#o)" stroke="url(#p)" stroke-width=".19" stroke-miterlimit="10"/><linearGradient id="q" gradientUnits="userSpaceOnUse" x1="291.89" y1="1000.95" x2="605.76" y2="1194.15"><stop offset="0" stop-color="#22b2da"/><stop offset=".05" stop-color="#34b8dc"/><stop offset=".4" stop-color="#afe2ec"/><stop offset="1" stop-color="#eef9fc"/></linearGradient><linearGradient id="r" gradientUnits="userSpaceOnUse" x1="323.93" y1="1057.21" x2="442.64" y2="1057.21"><stop offset="0" stop-color="#22b2da"/><stop offset=".05" stop-color="#34b8dc"/><stop offset=".4" stop-color="#afe2ec"/><stop offset="1" stop-color="#eef9fc"/></linearGradient><path d="M383.3 998a59.3 59.3 0 0159.3 59.3c0 6.6-1.1 13.1-3.2 19.3-8 23.2-30.1 40-56 40a59.3 59.3 0 01-59.3-59.3 59.15 59.15 0 0159.2-59.3z" opacity=".4" fill="url(#q)" stroke="url(#r)" stroke-width=".19" stroke-miterlimit="10"/><linearGradient id="s" gradientUnits="userSpaceOnUse" x1="563.3" y1="1299.74" x2="877.18" y2="1492.94"><stop offset="0" stop-color="#22b2da"/><stop offset=".05" stop-color="#34b8dc"/><stop offset=".4" stop-color="#afe2ec"/><stop offset="1" stop-color="#eef9fc"/></linearGradient><linearGradient id="t" gradientUnits="userSpaceOnUse" x1="595.34" y1="1356" x2="714.05" y2="1356"><stop offset="0" stop-color="#22b2da"/><stop offset=".05" stop-color="#34b8dc"/><stop offset=".4" stop-color="#afe2ec"/><stop offset="1" stop-color="#eef9fc"/></linearGradient><path d="M654.7 1296.7A59.3 59.3 0 01714 1356c0 6.6-1.1 13.1-3.2 19.3-8 23.2-30.1 40-56 40a59.3 59.3 0 01-59.3-59.3c-.1-32.7 26.5-59.3 59.2-59.3z" opacity=".4" fill="url(#s)" stroke="url(#t)" stroke-width=".19" stroke-miterlimit="10"/><g><linearGradient id="u" gradientUnits="userSpaceOnUse" x1="1183.52" y1="611.23" x2="1368.99" y2="741.41"><stop offset="0" stop-color="#da4a22"/><stop offset=".33" stop-color="#ec5b33"/><stop offset="1" stop-color="#ffbdaa"/></linearGradient><path d="M1285.6 623.6a59.3 59.3 0 0159.3 59.3c0 6.6-1.1 13.1-3.2 19.3-8 23.2-30.1 40-56 40a59.3 59.3 0 01-59.3-59.3c0-32.7 26.5-59.3 59.2-59.3z" opacity=".4" fill="url(#u)"/><linearGradient id="v" gradientUnits="userSpaceOnUse" x1="720.65" y1="1789.4" x2="906.12" y2="1919.58"><stop offset="0" stop-color="#da4a22"/><stop offset=".33" stop-color="#ec5b33"/><stop offset="1" stop-color="#ffbdaa"/></linearGradient><path d="M822.8 1801.8a59.3 59.3 0 0159.3 59.3c0 6.6-1.1 13.1-3.2 19.3-8 23.2-30.1 40-56 40-32.7 0-59.3-26.5-59.3-59.3s26.4-59.3 59.2-59.3z" opacity=".4" fill="url(#v)"/><linearGradient id="w" gradientUnits="userSpaceOnUse" x1="478.01" y1="1670.88" x2="663.48" y2="1801.06"><stop offset="0" stop-color="#da4a22"/><stop offset=".33" stop-color="#ec5b33"/><stop offset="1" stop-color="#ffbdaa"/></linearGradient><path d="M580.1 1683.3a59.3 59.3 0 0159.3 59.3c0 6.6-1.1 13.1-3.2 19.3-8 23.2-30.1 40-56 40-32.7 0-59.3-26.5-59.3-59.3s26.5-59.3 59.2-59.3z" opacity=".4" fill="url(#w)"/><linearGradient id="x" gradientUnits="userSpaceOnUse" x1="1124.26" y1="1366.08" x2="1309.73" y2="1496.26"><stop offset="0" stop-color="#da4a22"/><stop offset=".33" stop-color="#ec5b33"/><stop offset="1" stop-color="#ffbdaa"/></linearGradient><path d="M1226.4 1378.5a59.3 59.3 0 0159.3 59.3c0 6.6-1.1 13.1-3.2 19.3-8 23.2-30.1 40-56 40-32.7 0-59.3-26.5-59.3-59.3s26.4-59.3 59.2-59.3z" opacity=".4" fill="url(#x)"/><linearGradient id="y" gradientUnits="userSpaceOnUse" x1="75.46" y1="1789.4" x2="260.93" y2="1919.58"><stop offset="0" stop-color="#da4a22"/><stop offset=".33" stop-color="#ec5b33"/><stop offset="1" stop-color="#ffbdaa"/></linearGradient><path d="M177.6 1801.8a59.3 59.3 0 0159.3 59.3c0 6.6-1.1 13.1-3.2 19.3-8 23.2-30.1 40-56 40-32.7 0-59.3-26.5-59.3-59.3s26.4-59.3 59.2-59.3z" opacity=".4" fill="url(#y)"/><linearGradient id="z" gradientUnits="userSpaceOnUse" x1="787.04" y1="1430.84" x2="1087.51" y2="1641.74"><stop offset="0" stop-color="#da4a22"/><stop offset=".33" stop-color="#ec5b33"/><stop offset="1" stop-color="#ffbdaa"/></linearGradient><path d="M952.5 1450.9c53 0 96 43 96 96a95.97 95.97 0 01-96 96c-53 0-96-43-96-96s42.9-96 96-96z" opacity=".4" fill="url(#z)"/><linearGradient id="A" gradientUnits="userSpaceOnUse" x1="1060.95" y1="941.1" x2="1361.41" y2="1152"><stop offset="0" stop-color="#da4a22"/><stop offset=".33" stop-color="#ec5b33"/><stop offset="1" stop-color="#ffbdaa"/></linearGradient><path d="M1226.4 961.2c53 0 96 43 96 96a95.97 95.97 0 01-96 96c-53 0-96-43-96-96s42.9-96 96-96z" opacity=".4" fill="url(#A)"/><linearGradient id="B" gradientUnits="userSpaceOnUse" x1="1048.72" y1="1703.14" x2="1349.18" y2="1914.04"><stop offset="0" stop-color="#da4a22"/><stop offset=".33" stop-color="#ec5b33"/><stop offset="1" stop-color="#ffbdaa"/></linearGradient><path d="M1214.1 1723.2c53 0 96 43 96 96a95.97 95.97 0 01-96 96c-53 0-96-43-96-96s43-96 96-96z" opacity=".4" fill="url(#B)"/></g></svg>