<svg xmlns="http://www.w3.org/2000/svg" viewBox="0 0 851.5 1152"><linearGradient id="a" gradientUnits="userSpaceOnUse" x1="467.95" y1="1371.93" x2="279.17" y2="-1900.27" gradientTransform="matrix(1 0 0 -1 0 1152)"><stop offset="0" stop-color="#22b2da"/><stop offset=".06" stop-color="#42bdde"/><stop offset=".14" stop-color="#69cae3"/><stop offset=".22" stop-color="#88d5e7"/><stop offset=".29" stop-color="#9ddcea"/><stop offset=".37" stop-color="#abe0eb"/><stop offset=".44" stop-color="#afe2ec"/><stop offset="1" stop-color="#eef9fc"/></linearGradient><path d="M0 576.3v-10.6V37.3c171.2-98.5 359.9 25.6 445.1 60.4 145.2 59.1 280 82.9 406.3 84.4v803.3c-183.6-25.9-368.9-34.1-546.2 13.8-4.2 1.1-8.4 2.3-12.6 3.5-1 .3-2 .6-3 .8-3.2.9-6.3 1.9-9.5 2.8-2 .6-4 1.2-5.9 1.8-2 .6-4 1.2-5.9 1.8-1.9.6-3.7 1.2-5.6 1.8-3.9 1.3-7.7 2.5-11.6 3.8-1.3.4-2.6.9-3.9 1.3-6.8 2.4-13.7 4.8-20.5 7.4-1.6.6-3.3 1.2-4.9 1.8-1.6.6-3.2 1.2-4.9 1.9-1.5.6-3 1.2-4.6 1.8l-5.1 2.1c-1.6.7-3.2 1.3-4.8 2-1.6.7-3.2 1.3-4.8 2-1.6.7-3.2 1.3-4.8 2l-4.8 2.1-4.8 2.1-4.8 2.1c-1.6.7-3.2 1.4-4.8 2.2-1.6.7-3.2 1.5-4.8 2.2-1.6.7-3.2 1.5-4.8 2.2-1.6.8-3.3 1.5-4.9 2.3-1.4.7-2.9 1.4-4.3 2.1l-.6.3c-1.5.7-2.9 1.4-4.4 2.1-.2.1-.3.2-.5.2-1.5.7-3 1.5-4.5 2.3l-4.8 2.4-4.8 2.4c-1.6.8-3.2 1.6-4.8 2.5-3.2 1.7-6.3 3.3-9.5 5.1-1.6.9-3.2 1.7-4.7 2.6-1.6.9-3.2 1.7-4.7 2.6-1.6.9-3.2 1.8-4.7 2.7-1.6.9-3.2 1.8-4.7 2.7-1.6.9-3.2 1.8-4.7 2.7-3.1 1.8-6.3 3.7-9.4 5.6-1.6.9-3.1 1.9-4.7 2.8-1.6.9-3.1 1.9-4.7 2.9-4.7 2.9-9.4 5.8-14 8.9-3.1 2-6.2 4-9.3 6.1-6.2 4.1-12.4 8.3-18.6 12.7-1.5 1.1-3.1 2.2-4.6 3.3-1.5 1.1-3.1 2.2-4.6 3.3-1.5 1.1-3.1 2.2-4.6 3.3-7.7 5.6-15.3 11.4-23 17.3v-11.3 11.3" fill="url(#a)"/><linearGradient id="b" gradientUnits="userSpaceOnUse" x1="-14.38" y1="163.56" x2="494.09" y2="476.54"><stop offset="0" stop-color="#22b2da"/><stop offset=".05" stop-color="#34b8dc"/><stop offset=".4" stop-color="#afe2ec"/><stop offset="1" stop-color="#eef9fc"/></linearGradient><linearGradient id="c" gradientUnits="userSpaceOnUse" x1="37.52" y1="254.7" x2="229.83" y2="254.7"><stop offset="0" stop-color="#22b2da"/><stop offset=".05" stop-color="#34b8dc"/><stop offset=".4" stop-color="#afe2ec"/><stop offset="1" stop-color="#eef9fc"/></linearGradient><path d="M133.7 158.7c53 0 96 43 96 96a95.97 95.97 0 01-96 96c-53 0-96-43-96-96s43-96 96-96z" opacity=".4" fill="url(#b)" stroke="url(#c)" stroke-width=".31" stroke-miterlimit="10"/><linearGradient id="d" gradientUnits="userSpaceOnUse" x1="-24.6" y1="799.24" x2="483.88" y2="1112.23"><stop offset="0" stop-color="#22b2da"/><stop offset=".05" stop-color="#34b8dc"/><stop offset=".4" stop-color="#afe2ec"/><stop offset="1" stop-color="#eef9fc"/></linearGradient><linearGradient id="e" gradientUnits="userSpaceOnUse" x1="27.31" y1="890.38" x2="219.62" y2="890.38"><stop offset="0" stop-color="#22b2da"/><stop offset=".05" stop-color="#34b8dc"/><stop offset=".4" stop-color="#afe2ec"/><stop offset="1" stop-color="#eef9fc"/></linearGradient><path d="M123.5 794.4c53 0 96 43 96 96a95.97 95.97 0 01-96 96c-53 0-96-43-96-96s42.9-96 96-96z" opacity=".4" fill="url(#d)" stroke="url(#e)" stroke-width=".31" stroke-miterlimit="10"/><linearGradient id="f" gradientUnits="userSpaceOnUse" x1="357.44" y1="562.84" x2="865.91" y2="875.82"><stop offset="0" stop-color="#22b2da"/><stop offset=".05" stop-color="#34b8dc"/><stop offset=".4" stop-color="#afe2ec"/><stop offset="1" stop-color="#eef9fc"/></linearGradient><linearGradient id="g" gradientUnits="userSpaceOnUse" x1="409.34" y1="653.98" x2="601.65" y2="653.98"><stop offset="0" stop-color="#22b2da"/><stop offset=".05" stop-color="#34b8dc"/><stop offset=".4" stop-color="#afe2ec"/><stop offset="1" stop-color="#eef9fc"/></linearGradient><path d="M505.5 558c53 0 96 43 96 96a95.97 95.97 0 01-96 96c-53 0-96-43-96-96s43-96 96-96z" opacity=".4" fill="url(#f)" stroke="url(#g)" stroke-width=".31" stroke-miterlimit="10"/><linearGradient id="h" gradientUnits="userSpaceOnUse" x1="657.08" y1="797.38" x2="970.95" y2="990.58"><stop offset="0" stop-color="#22b2da"/><stop offset=".05" stop-color="#34b8dc"/><stop offset=".4" stop-color="#afe2ec"/><stop offset="1" stop-color="#eef9fc"/></linearGradient><linearGradient id="i" gradientUnits="userSpaceOnUse" x1="689.12" y1="853.64" x2="807.83" y2="853.64"><stop offset="0" stop-color="#22b2da"/><stop offset=".05" stop-color="#34b8dc"/><stop offset=".4" stop-color="#afe2ec"/><stop offset="1" stop-color="#eef9fc"/></linearGradient><path d="M748.5 794.4a59.3 59.3 0 0159.3 59.3c0 6.6-1.1 13.1-3.2 19.3-8 23.2-30.1 40-56 40-32.7 0-59.3-26.5-59.3-59.3s26.4-59.3 59.2-59.3z" opacity=".4" fill="url(#h)" stroke="url(#i)" stroke-width=".19" stroke-miterlimit="10"/><linearGradient id="j" gradientUnits="userSpaceOnUse" x1="307.78" y1="267.65" x2="621.65" y2="460.84"><stop offset="0" stop-color="#22b2da"/><stop offset=".05" stop-color="#34b8dc"/><stop offset=".4" stop-color="#afe2ec"/><stop offset="1" stop-color="#eef9fc"/></linearGradient><linearGradient id="k" gradientUnits="userSpaceOnUse" x1="339.82" y1="323.9" x2="458.53" y2="323.9"><stop offset="0" stop-color="#22b2da"/><stop offset=".05" stop-color="#34b8dc"/><stop offset=".4" stop-color="#afe2ec"/><stop offset="1" stop-color="#eef9fc"/></linearGradient><path d="M399.2 264.6a59.3 59.3 0 0159.3 59.3c0 6.6-1.1 13.1-3.2 19.3-8 23.2-30.1 40-56 40-32.7 0-59.3-26.5-59.3-59.3s26.4-59.3 59.2-59.3z" opacity=".4" fill="url(#j)" stroke="url(#k)" stroke-width=".19" stroke-miterlimit="10"/><linearGradient id="l" gradientUnits="userSpaceOnUse" x1="636.65" y1="373.59" x2="950.52" y2="566.79"><stop offset="0" stop-color="#22b2da"/><stop offset=".05" stop-color="#34b8dc"/><stop offset=".4" stop-color="#afe2ec"/><stop offset="1" stop-color="#eef9fc"/></linearGradient><linearGradient id="m" gradientUnits="userSpaceOnUse" x1="668.69" y1="429.85" x2="787.4" y2="429.85"><stop offset="0" stop-color="#22b2da"/><stop offset=".05" stop-color="#34b8dc"/><stop offset=".4" stop-color="#afe2ec"/><stop offset="1" stop-color="#eef9fc"/></linearGradient><path d="M728 370.6a59.3 59.3 0 0159.3 59.3c0 6.6-1.1 13.1-3.2 19.3-8 23.2-30.1 40-56 40-32.7 0-59.3-26.5-59.3-59.3s26.5-59.3 59.2-59.3z" opacity=".4" fill="url(#l)" stroke="url(#m)" stroke-width=".19" stroke-miterlimit="10"/><linearGradient id="n" gradientUnits="userSpaceOnUse" x1="128.07" y1="519.76" x2="441.94" y2="712.96"><stop offset="0" stop-color="#22b2da"/><stop offset=".05" stop-color="#34b8dc"/><stop offset=".4" stop-color="#afe2ec"/><stop offset="1" stop-color="#eef9fc"/></linearGradient><linearGradient id="o" gradientUnits="userSpaceOnUse" x1="160.11" y1="576.02" x2="278.82" y2="576.02"><stop offset="0" stop-color="#22b2da"/><stop offset=".05" stop-color="#34b8dc"/><stop offset=".4" stop-color="#afe2ec"/><stop offset="1" stop-color="#eef9fc"/></linearGradient><path d="M219.5 516.8a59.3 59.3 0 0159.3 59.3c0 6.6-1.1 13.1-3.2 19.3-8 23.2-30.1 40-56 40a59.3 59.3 0 01-59.3-59.3 59.09 59.09 0 0159.2-59.3z" opacity=".4" fill="url(#n)" stroke="url(#o)" stroke-width=".19" stroke-miterlimit="10"/></svg>