<svg xmlns="http://www.w3.org/2000/svg" viewBox="0 0 691 540.62">
  <defs/>
  <g data-name="Layer 2">
    <g data-name="Layer 1">
      <path fill="#22da4a" d="M289.61 15C135.61 15.11 15 127.22 15 270.31c0 140.78 123.29 255.31 274.53 255.32 239.33-4.69 386.24-136.17 386.47-206.2.07-21.82-15.78-33.3-47.11-34.12-48.56-1.28-69.77-46.42-92.24-94.22C500.8 114.8 456.18 19.86 289.61 15m.21-15c282.79 8.11 235.39 267.58 339.46 270.31 155.07 4.07 9.17 263.48-339.46 270.31C129.76 540.62 0 419.6 0 270.31S127.47 0 289.82 0z" data-name="photo frame"/>
    </g>
  </g>
</svg>
