<svg xmlns="http://www.w3.org/2000/svg" viewBox="0 0 745 732"><g id="Layer_2" data-name="Layer 2"><g id="Layer_1-2" data-name="Layer 1"><g id="Path_17-2" data-name="Path 17-2"><path d="M372.5,724.35c-33.67-10.16-365-230-365-423C7.5,84.68,196.05,7.5,372.5,7.5s365,77.18,365,293.81C737.5,494.36,406.17,714.19,372.5,724.35Z" style="fill:none"/><path d="M372.5,15C199.67,15,15,90.21,15,301.31,15,483.1,328,696.73,372.5,716.25,417,696.73,730,483.1,730,301.31,730,90.21,545.33,15,372.5,15m0-15C578.23,0,745,99.17,745,301.31S390,732,372.5,732,0,503.44,0,301.31,166.77,0,372.5,0Z" style="fill:#22da4a"/></g></g></g></svg>