<svg xmlns="http://www.w3.org/2000/svg" viewBox="0 0 439.41 472.01">
  <defs/>
  <g data-name="Layer 2">
    <g stroke="#22da4a" stroke-miterlimit="10" data-name="Layer 1">
      <path fill="none" d="M219.47 462.53l-2.85-1.9C82.5 371.56 8.63 283.42 8.63 212.45 4.47 165.81 21.65 119.21 57 80.56 98.51 35.13 159.32 8 219.64 8c60.9 0 122.17 27.52 163.9 73.62 34.92 38.56 51.66 84.76 47.15 130.09-.04 112.94-182.63 232.85-211.22 250.82z"/>
      <path fill="#22da4a" d="M219.78 453.73c47.49-29.25 203.37-142 203.37-241.28v-.75l.07-.74c4.3-43.18-11.76-87.33-45.24-124.31C337.65 42.1 278.45 15.5 219.64 15.5c-58.25 0-117 26.21-157.12 70.12-33.9 37.08-50.39 81.64-46.45 125.49l.06.67v.67c0 68.21 72.31 153.87 203.65 241.28m-.63 17.78s0 0 0 0c1-1.12-218-131.31-218-259C-8.75 102.55 99 .5 219.64.5s229.42 102.42 218.51 212c0 127.15-218.21 259.01-219 259.01z"/>
    </g>
  </g>
</svg>
