<svg xmlns="http://www.w3.org/2000/svg" viewBox="0 0 691 540.62"><g id="Layer_2" data-name="Layer 2"><g id="Layer_1-2" data-name="Layer 1"><g id="photo_frame" data-name="photo frame"><path d="M289.61,15C135.61,15.11,15,127.22,15,270.31c0,140.78,123.29,255.31,274.53,255.32C528.86,520.94,675.77,389.46,676,319.43c.07-21.82-15.78-33.3-47.11-34.12-48.56-1.28-69.77-46.42-92.24-94.22C500.8,114.8,456.18,19.86,289.61,15m.21-15C572.61,8.11,525.21,267.58,629.28,270.31c155.07,4.07,9.17,263.48-339.46,270.31C129.76,540.62,0,419.6,0,270.31S127.47,0,289.82,0Z" style="fill:#22da4a"/></g></g></g></svg>