<svg xmlns="http://www.w3.org/2000/svg" viewBox="0 0 300 233.28"><g id="Layer_2" data-name="Layer 2"><g id="Layer_1-2" data-name="Layer 1"><g id="photo_frame" data-name="photo frame"><path d="M125.76,5a133.69,133.69,0,0,0-24.65,2.28,128.73,128.73,0,0,0-22.86,6.54A123.13,123.13,0,0,0,57.7,24.16,119.1,119.1,0,0,0,39.89,37.82,113.62,113.62,0,0,0,25.28,54.35a109.05,109.05,0,0,0-11,18.94A105.06,105.06,0,0,0,5,116.64,104,104,0,0,0,14.44,160a108.79,108.79,0,0,0,11.09,18.94,115.08,115.08,0,0,0,14.72,16.54,119.61,119.61,0,0,0,17.88,13.67,123.9,123.9,0,0,0,20.55,10.34A126.56,126.56,0,0,0,101.4,226a131.27,131.27,0,0,0,24.38,2.28,269.85,269.85,0,0,0,72.41-10.95,222.28,222.28,0,0,0,29.17-11A190.24,190.24,0,0,0,251.56,193c13.63-8.93,24.94-19.15,32.71-29.56a64.8,64.8,0,0,0,8.12-13.95A31.49,31.49,0,0,0,295,137.84a16.07,16.07,0,0,0-1.2-6.41,12.86,12.86,0,0,0-3.58-4.76,19.09,19.09,0,0,0-6.65-3.46,38.42,38.42,0,0,0-10.49-1.57c-9.31-.24-17.08-4.48-23.77-12.94-5.6-7.1-10.14-16.7-14.95-26.86-7.79-16.49-16.63-35.18-32.66-50a90.67,90.67,0,0,0-13.34-10.21,96,96,0,0,0-16.65-8.27A118.44,118.44,0,0,0,151.05,7.6,163.29,163.29,0,0,0,125.76,5m.07-5C248.6,3.5,228,115.46,273.21,116.64c67.32,1.76,4,113.7-147.38,116.64C56.34,233.28,0,181.06,0,116.64S55.34,0,125.83,0Z" style="fill:#22da4a"/></g></g></g></svg>