<svg id="Layer_1" data-name="Layer 1" xmlns="http://www.w3.org/2000/svg" viewBox="0 0 706.0066 548.7998"><path d="M698.5063,325.75c-.24,73.209-153.8089,210.6471-404.0139,215.55C136.3868,541.3,7.5,421.5707,7.5,274.4,7.5,124.8039,133.5852,7.6151,294.5761,7.5c174.1313,5.07,220.777,104.32,258.265,184.0732,23.48,49.97,45.6628,97.17,96.4168,98.4972C682.02,290.9277,698.59,302.9393,698.5063,325.75Z" fill="#bdccd4"/><path d="M698.5063,325.75c-.24,73.209-153.8089,210.6471-404.0139,215.55C136.3868,541.3,7.5,421.5707,7.5,274.4,7.5,124.8039,133.5852,7.6151,294.5761,7.5c174.1313,5.07,220.777,104.32,258.265,184.0732,23.48,49.97,45.6628,97.17,96.4168,98.4972C682.02,290.9277,698.59,302.9393,698.5063,325.75Z" fill="none" stroke="#22da4a" stroke-miterlimit="10" stroke-width="15"/></svg>